SplineFontDB: 3.0
FontName: F0ntUni-Simple
FullName: F0ntUni Simple
FamilyName: F0ntUni
Weight: 400
Copyright: Copyright (c) 2015, Sungsit Sawaiwan (https://sungsit.com | gibbozer [at] gmail [dot] com)
Version: 1.0-beta1
ItalicAngle: 0
UnderlinePosition: -120
UnderlineWidth: 60
Ascent: 960
Descent: 240
InvalidEm: 0
sfntRevision: 0x00010000
LayerCount: 2
Layer: 0 0 "Back" 1
Layer: 1 0 "Fore" 0
XUID: [1021 562 1168208084 4523371]
FSType: 0
OS2Version: 3
OS2_WeightWidthSlopeOnly: 0
OS2_UseTypoMetrics: 1
CreationTime: 1433644666
ModificationTime: 1433689621
PfmFamily: 17
TTFWeight: 400
TTFWidth: 5
LineGap: 90
VLineGap: 0
Panose: 2 0 2 3 0 0 0 0 0 0
OS2TypoAscent: 960
OS2TypoAOffset: 0
OS2TypoDescent: -240
OS2TypoDOffset: 0
OS2TypoLinegap: 90
OS2WinAscent: 1200
OS2WinAOffset: 0
OS2WinDescent: 600
OS2WinDOffset: 0
HheadAscent: 1200
HheadAOffset: 0
HheadDescent: -600
HheadDOffset: 0
OS2SubXSize: 780
OS2SubYSize: 840
OS2SubXOff: 0
OS2SubYOff: 168
OS2SupXSize: 780
OS2SupYSize: 840
OS2SupXOff: 0
OS2SupYOff: 576
OS2StrikeYSize: 59
OS2StrikeYPos: 310
OS2CapHeight: 800
OS2XHeight: 600
OS2Vendor: 'BUni'
OS2CodePages: 00010000.00000000
OS2UnicodeRanges: 81000003.1000200a.00000000.00000000
MarkAttachClasses: 1
DEI: 91125
LangName: 1033 "" "" "" "" "" "" "" "" "BoonUni" "Sungsit Sawaiwan" "" "https://boonuni.com/" "https://sungsit.com/" "" "" "" "F0ntUni"
Encoding: UnicodeBmp
Compacted: 1
UnicodeInterp: none
NameList: AGL For New Fonts
DisplaySize: -48
AntiAlias: 1
FitToEm: 1
WinInfo: 0 16 10
BeginPrivate: 8
BlueValues 31 [-30 0 600 630 800 830 840 870]
OtherBlues 21 [-270 -240 1200 1230]
BlueScale 5 0.033
BlueShift 1 5
StdHW 4 [10]
StdVW 4 [10]
StemSnapH 14 [6 9 10 11 14]
StemSnapV 9 [9 10 16]
EndPrivate
BeginChars: 65537 215

StartChar: .notdef
Encoding: 65536 -1 0
Width: 720
Flags: MW
HStem: 0 10<170 550 170 560> 30 10<200 520 200 530> 560 10<200 200 200 520> 590 10<170 170 170 550>
VStem: 160 10<10 590 10 600> 190 10<40 560 40 570> 520 10<40 560 560 560> 550 10<10 590 590 590>
LayerCount: 2
Back
Fore
SplineSet
200 560 m 1
 200 40 l 1
 520 40 l 1
 520 560 l 1
 200 560 l 1
160 600 m 1
 560 600 l 1
 560 0 l 1
 160 0 l 1
 160 600 l 1
190 570 m 1
 530 570 l 1
 530 30 l 1
 190 30 l 1
 190 570 l 1
170 590 m 1
 170 10 l 1
 550 10 l 1
 550 590 l 1
 170 590 l 1
EndSplineSet
EndChar

StartChar: exclam
Encoding: 33 33 5
Width: 330
GlyphClass: 2
Flags: MW
HStem: -5 10<132.5 180 132.5 182.5> 122 10<142 177.5> 268 10<147.5 163.5 147.5 164.5> 826 10<185 187 179 194.5>
VStem: 81 10<44 65 44 67.5> 101 10<795 796 795 796 795 803.5> 125 10<295 295> 195 10<304 304> 210 10<811 812 811 816.5> 239 10<69 80.5>
LayerCount: 2
Back
Fore
SplineSet
136 828 m 2
 176 835 l 2
 179 836 183 836 187 836 c 0
 202 836 220 830 220 812 c 2
 220 811 l 2
 218 725 222 574 205 303 c 0
 204 285 176 268 153 268 c 0
 138 268 126 275 125 295 c 0
 117 433 111 709 101 794 c 1
 101 796 l 2
 101 811 118 825 136 828 c 2
138 818 m 2
 122 816 111 804 111 796 c 2
 111 795 l 1
 121 708 127 433 135 296 c 0
 136 281 142 278 153 278 c 0
 174 278 195 294 195 304 c 0
 212 574 208 725 210 811 c 2
 210 812 l 2
 210 821 201 826 187 826 c 2
 179 826 l 1
 178 825 l 1
 138 818 l 2
231 112 m 0
 233 110 249 95 249 71 c 0
 249 67 249 62 248 58 c 0
 243 32 210 -5 155 -5 c 0
 105 -5 81 26 81 56 c 0
 81 79 103 132 175 132 c 0
 181 132 187 131 191 130 c 2
 207 126 l 2
 217 123 226 118 231 112 c 0
224 105 m 2
 223 106 l 2
 220 109 213 114 204 116 c 1
 205 116 206 116 205 116 c 2
 189 120 l 2
 185 121 180 122 175 122 c 0
 109 122 91 74 91 56 c 0
 91 32 110 5 155 5 c 0
 205 5 234 39 238 60 c 1
 238 60 l 1
 238 60 l 1
 239 63 239 67 239 71 c 0
 239 90 226 103 224 105 c 2
EndSplineSet
EndChar

StartChar: quotedbl
Encoding: 34 34 6
Width: 510
GlyphClass: 2
Flags: MW
HStem: 548 10<142 156.5 142 158> 553 10<335 349.5 335 351> 829 10<366 368 366 368>
VStem: 107 10<802 804 802 810> 196 10<812 814.5> 304 10<804 806 804 812> 313 10<579 579> 393 10<814 816.5>
LayerCount: 2
Back
Fore
SplineSet
347 838 m 2x7d
 366 839 l 1
 368 839 l 2
 389 839 403 827 403 814 c 0
 402 726 397 620 391 586 c 0
 389 571 362 553 340 553 c 0
 326 553 315 560 313 579 c 0x7b
 309 621 309 718 304 804 c 1
 304 806 l 2
 304 818 315 836 347 838 c 2x7d
150 836 m 2
 169 837 l 1
 171 837 l 2
 192 837 206 825 206 812 c 0
 205 724 204 616 198 581 c 0
 196 566 169 548 147 548 c 0xb9
 133 548 122 555 120 574 c 0
 116 615 112 715 107 802 c 1
 107 804 l 2
 107 816 118 834 150 836 c 2
348 828 m 2
 319 826 314 812 314 806 c 2
 314 804 l 1x7d
 319 719 319 621 323 580 c 0
 324 566 330 563 340 563 c 0x7b
 359 563 380 580 381 588 c 0
 387 620 392 727 393 814 c 0
 393 819 386 829 368 829 c 2
 366 829 l 1
 348 828 l 2
151 826 m 2
 122 824 117 810 117 804 c 2
 117 802 l 1
 122 716 126 615 130 575 c 0
 131 561 137 558 147 558 c 0xb9
 166 558 187 575 188 583 c 0
 194 616 195 724 196 812 c 0
 196 817 189 827 171 827 c 2
 169 827 l 1
 151 826 l 2
EndSplineSet
EndChar

StartChar: numbersign
Encoding: 35 35 7
Width: 720
GlyphClass: 2
Flags: MW
HStem: -29 10<136 153 136 154.5> -19 10<406 423 406 424.5> 241 7 284 10<517 626> 521 7 564 10<570 666> 819 10<296 313.5> 829 10<566 583.5>
VStem: 111 10<-4 -1 -7 0 -7 0> 329 10<802 804 801 807.5> 381 10<6 9 3 10 3 10> 599 10<812 814 811 817.5> 649 10<266 269 265 272> 689 10<546 549 545 552>
LayerCount: 2
Back
Fore
SplineSet
305 829 m 0xbefc
 325 829 339 819 339 804 c 2
 339 801 l 1
 326 718 313 644 301 574 c 1
 365 573 427 573 492 573 c 1
 505 646 517 723 531 809 c 0
 533 825 554 839 575 839 c 0
 595 839 609 829 609 814 c 2
 609 811 l 1
 595 724 583 647 570 574 c 1
 666 574 l 2
 685 574 699 563 699 549 c 2
 699 545 l 2
 696 529 675 516 654 516 c 2
 559 516 l 1
 546 441 532 369 517 294 c 1
 626 294 l 2
 645 294 659 283 659 269 c 2
 659 265 l 2
 656 249 635 236 614 236 c 2
 506 236 l 1
 492 166 476 92 459 10 c 0
 456 -6 435 -19 414 -19 c 0x7dfc
 395 -19 381 -8 381 6 c 2
 381 10 l 1
 398 92 414 166 428 235 c 1
 363 235 303 235 238 236 c 1
 223 163 207 87 189 0 c 0
 186 -16 165 -29 144 -29 c 0
 125 -29 111 -18 111 -4 c 2
 111 0 l 1
 129 87 145 165 160 238 c 1
 126 239 91 240 52 241 c 0
 33 242 20 253 20 266 c 0
 20 268 21 269 21 271 c 0
 25 286 46 299 66 299 c 2
 68 299 l 2
 105 298 139 297 172 296 c 1
 187 371 201 443 214 518 c 1
 176 519 136 520 92 521 c 0
 73 522 60 533 60 546 c 0
 60 548 61 549 61 551 c 0
 65 566 86 579 106 579 c 2
 108 579 l 2
 150 578 188 577 224 576 c 1
 236 645 248 718 261 799 c 0
 263 815 284 829 305 829 c 0xbefc
291 516 m 1
 278 441 265 370 250 295 c 1
 315 294 374 293 439 293 c 1
 454 368 469 440 482 515 c 1
 417 515 355 515 291 516 c 1
305 819 m 0x3efc
 287 819 272 806 271 798 c 0
 258 716 246 643 234 574 c 1
 232 566 l 1
 224 566 l 2
 188 567 150 568 108 569 c 2
 106 569 l 2
 90 569 74 558 71 549 c 2
 71 549 71 547 70 545 c 0
 70 540 77 532 92 531 c 0
 136 530 176 529 214 528 c 2
 226 528 l 1
 224 516 l 2
 211 441 197 369 182 294 c 2
 180 286 l 1
 172 286 l 2
 139 287 105 288 68 289 c 2
 66 289 l 2
 50 289 34 278 31 269 c 2
 31 269 31 267 30 265 c 0
 30 260 37 252 52 251 c 0
 91 250 126 249 160 248 c 2
 172 248 l 1
 170 236 l 2
 155 163 139 86 121 -1 c 1
 121 -4 l 2
 121 -10 128 -19 144 -19 c 0xbefc
 162 -19 177 -7 179 2 c 0
 197 89 213 165 228 238 c 2
 230 246 l 1
 238 246 l 2
 303 245 363 245 428 245 c 2
 440 245 l 1
 438 233 l 2
 424 164 408 91 391 9 c 1
 391 6 l 2
 391 0 398 -9 414 -9 c 0
 432 -9 447 3 449 12 c 0
 466 94 482 168 496 238 c 2
 498 246 l 1
 614 246 l 2
 631 246 647 257 649 266 c 2
 649 269 l 2
 649 275 642 284 626 284 c 2
 505 284 l 1
 507 296 l 2
 522 371 536 443 549 518 c 1
 551 526 l 1
 654 526 l 2
 671 526 687 537 689 546 c 2
 689 549 l 2
 689 555 682 564 666 564 c 2
 558 564 l 1
 560 576 l 2
 573 649 585 725 599 812 c 1
 599 814 l 2
 599 821 592 829 575 829 c 0x7dfc
 557 829 542 816 541 808 c 0
 527 721 515 644 502 571 c 1
 500 563 l 1
 492 563 l 2
 427 563 365 563 301 564 c 2
 289 564 l 1
 291 576 l 2
 303 646 316 719 329 802 c 1
 329 804 l 2
 329 811 322 819 305 819 c 0x3efc
281 518 m 1
 283 526 l 1
 291 526 l 2
 355 525 417 525 482 525 c 2
 494 525 l 1
 492 513 l 2
 479 438 464 366 449 291 c 2
 447 283 l 1
 439 283 l 2
 374 283 315 284 250 285 c 2
 238 285 l 1
 240 297 l 2
 255 372 268 443 281 518 c 1
EndSplineSet
EndChar

StartChar: dollar
Encoding: 36 36 8
Width: 720
GlyphClass: 2
Flags: MW
HStem: -127 10<351.5 359.5 351.5 360> 46 10<387 397 387 387> 192 10<138 150> 584 10<537 552 550 552> 812 10<396 400 386 386> 916 10<361 361 361 365>
VStem: 70 10<555 595 555 595.5> 78 10<156.5 162.5 156.5 165.5> 169 10<578.5 605.5 578.5 606> 319 10<461 516> 323 10<882 899> 382 10<448 494.5> 392 10<-96 -95 -103 -95> 504 10<617 620 611.5 621 611.5 621> 565 10<189.5 228.5> 604 10<644.5 689.5> 664 10<196.5 252.5>
LayerCount: 2
Back
Fore
SplineSet
360 926 m 2xfea780
 365 926 l 2
 383 926 397 917 397 904 c 0
 397 876 396 848 396 822 c 1
 400 822 l 2
 539 822 614 737 614 648 c 0
 614 640 613 633 612 625 c 0
 609 604 581 585 552 584 c 2
 550 584 l 2
 524 584 504 598 504 617 c 2
 504 621 l 2
 505 626 505 631 505 636 c 0
 505 692 458 739 395 744 c 1
 394 637 392 541 392 448 c 1xfeb780
 439 432 486 415 506 408 c 0
 622 371 674 294 674 216 c 0
 674 174 658 131 630 94 c 0
 584 35 503 -13 400 -21 c 1
 401 -45 401 -70 402 -95 c 2
 402 -96 l 2
 402 -110 385 -123 366 -126 c 0
 364 -126 361 -127 359 -127 c 0
 342 -127 329 -117 328 -105 c 0
 327 -76 326 -47 325 -20 c 1
 197 -8 115 60 80 147 c 0xfe8f80
 79 150 78 154 78 157 c 0xfd8780
 78 174 94 192 118 199 c 0
 126 201 134 202 141 202 c 0
 161 202 178 194 184 179 c 0
 208 119 256 78 323 63 c 1
 320 176 318 276 318 375 c 1
 284 387 253 398 236 404 c 0
 123 442 70 515 70 590 c 0
 70 601 71 611 73 622 c 0
 91 709 184 793 322 816 c 1
 322 842 323 868 323 896 c 0
 323 910 340 924 360 926 c 2xfea780
319 474 m 1xfcc780
 319 558 320 643 321 738 c 1
 239 722 192 674 181 622 c 0
 180 615 179 609 179 602 c 0
 179 555 213 509 294 482 c 0
 301 480 309 477 319 474 c 1xfcc780
393 350 m 1
 393 258 394 163 397 56 c 1
 462 59 509 86 537 124 c 0
 555 148 565 176 565 203 c 0
 565 254 531 305 450 330 c 0
 438 334 418 341 393 350 c 1
361 916 m 2
 344 914 333 902 333 896 c 0
 333 868 332 842 332 816 c 2
 332 808 l 1
 324 806 l 1
 188 784 100 701 83 620 c 0
 81 610 80 600 80 590 c 0xfeb780
 80 520 129 451 239 413 c 0
 256 407 287 396 321 384 c 2
 328 382 l 1
 328 375 l 2
 328 276 330 176 333 63 c 2
 333 50 l 1
 321 53 l 2
 251 69 200 112 175 175 c 0
 171 185 159 192 141 192 c 0
 135 192 127 191 121 189 c 0
 100 183 88 168 88 157 c 0
 88 156 88 154 89 150 c 0
 123 68 201 2 326 -10 c 2
 335 -11 l 1
 335 -20 l 2
 336 -46 337 -76 338 -104 c 0
 338 -109 344 -117 359 -117 c 0
 360 -117 360 -117 365 -116 c 0
 381 -113 392 -102 392 -96 c 2
 392 -95 l 2xfd8f80
 391 -70 391 -45 390 -21 c 2
 390 -12 l 1
 399 -11 l 2
 500 -3 578 44 622 100 c 0
 649 135 664 177 664 216 c 0
 664 289 616 362 503 399 c 0
 482 406 436 423 389 439 c 2
 382 441 l 1
 382 448 l 2xfc9780
 382 541 384 637 385 744 c 2
 385 755 l 1
 396 754 l 2
 463 749 515 698 515 636 c 0
 515 631 515 626 514 620 c 2
 514 617 l 2
 514 606 527 594 550 594 c 2
 552 594 l 2
 578 595 600 613 602 626 c 0
 603 634 604 641 604 648 c 0
 604 731 535 812 400 812 c 2
 386 812 l 1
 386 822 l 2
 386 848 387 876 387 904 c 0
 387 908 381 916 365 916 c 2
 361 916 l 2
329 474 m 2xfcc780
 329 461 l 1
 316 464 l 2
 306 468 298 470 291 472 c 0
 207 500 169 549 169 602 c 0
 169 610 170 617 171 623 c 2
 171 624 l 1
 171 624 l 1
 183 681 234 731 319 748 c 2
 331 750 l 1
 331 738 l 2
 330 643 329 558 329 474 c 2xfcc780
383 350 m 2
 383 364 l 1
 396 359 l 2
 421 350 441 343 453 340 c 0
 537 314 575 259 575 203 c 0
 575 174 564 144 545 118 c 0
 515 78 465 49 397 46 c 2
 387 46 l 1
 387 56 l 2
 384 163 383 258 383 350 c 2
EndSplineSet
EndChar

StartChar: percent
Encoding: 37 37 9
Width: 780
GlyphClass: 2
Flags: MW
HStem: -14 10<520.5 568 520.5 568> 6 10<102 110 102 111.5> 34 10<565.5 583 581 583 581 584> 369 10<562 572> 374 10<160.5 208 160.5 208> 416 10<565 596.5> 422 10<205.5 223 221 223 221 224> 757 10<202 212> 784 10<669.5 678> 804 10<205 236.5>
VStem: 50 10<527.5 638.5 527.5 639.5> 70 10<29 31.5 29 33.5> 120 10<532.5 643 532.5 644> 246 10<724 726.5 724 727.5> 290 10<530.5 620> 320 10<747.5 749> 360 10<542 628> 410 10<139.5 250.5 139.5 251.5> 480 10<144.5 255 144.5 256> 606 10<336 338.5 336 339.5> 650 10<142.5 232> 680 10<359.5 361> 699 10<768 772.5> 720 10<154 240>
LayerCount: 2
Back
Fore
SplineSet
608 347 m 0xf1ffff
 592 363 578 369 566 369 c 0
 558 369 551 366 546 363 c 0
 525 351 490 304 490 206 c 0
 490 83 558 44 581 44 c 2
 583 44 l 2
 595 45 650 77 650 208 c 0
 650 256 634 304 613 322 c 0
 608 326 606 332 606 338 c 0
 606 341 607 344 608 347 c 0xf1ffff
688 351 m 0
 718 316 730 265 730 216 c 0
 730 90 681 -2 583 -13 c 0
 577 -14 571 -14 565 -14 c 0
 468 -14 410 79 410 198 c 0
 410 305 444 378 511 411 c 0
 533 422 554 426 575 426 c 0xe5ffff
 621 426 661 403 685 373 c 0
 688 369 690 365 690 360 c 0
 690 357 689 354 688 351 c 0
248 735 m 0
 232 751 218 757 206 757 c 0
 198 757 191 754 186 751 c 0
 165 739 130 692 130 594 c 0
 130 471 198 432 221 432 c 2
 223 432 l 2xe3ffff
 235 433 290 465 290 596 c 0
 290 644 274 692 253 710 c 0
 248 714 246 720 246 726 c 0
 246 729 247 732 248 735 c 0
328 739 m 0
 358 704 370 653 370 604 c 0
 370 478 321 386 223 375 c 0
 217 374 211 374 205 374 c 0xe9ffff
 108 374 50 467 50 586 c 0
 50 693 84 766 151 799 c 0
 173 810 194 814 215 814 c 0
 261 814 301 791 325 761 c 0
 328 757 330 753 330 748 c 0
 330 745 329 742 328 739 c 0
690 792 m 0
 703 788 709 780 709 770 c 0
 709 765 708 760 704 755 c 0
 542 534 305 218 143 23 c 0
 134 13 119 6 104 6 c 0
 99 6 93 7 88 9 c 0
 77 13 70 22 70 31 c 0
 70 36 73 42 77 47 c 0
 237 240 474 554 636 775 c 0
 645 787 660 794 676 794 c 0
 681 794 686 793 690 792 c 0
615 354 m 2
 619 350 l 1
 617 344 l 2
 616 341 616 339 616 338 c 0
 616 334 617 332 619 330 c 0
 645 308 660 258 660 208 c 0
 660 75 605 36 584 34 c 2
 583 34 l 1
 581 34 l 2
 550 34 480 80 480 206 c 0
 480 306 515 357 541 372 c 0
 547 375 556 379 566 379 c 0xf1ffff
 582 379 598 371 615 354 c 2
680 344 m 1
 677 349 l 1
 679 354 l 2
 680 357 680 359 680 360 c 0
 680 362 679 364 677 367 c 0
 655 394 618 416 575 416 c 0xe5ffff
 555 416 536 412 515 402 c 0
 453 371 420 303 420 198 c 0
 420 81 476 -4 565 -4 c 0
 571 -4 576 -4 581 -3 c 2
 582 -3 l 1
 582 -3 l 1
 672 7 720 92 720 216 c 0
 720 264 708 312 680 344 c 1
255 742 m 2
 259 738 l 1
 257 732 l 2
 256 729 256 727 256 726 c 0
 256 722 257 720 259 718 c 0
 285 696 300 646 300 596 c 0
 300 463 245 424 224 422 c 2
 223 422 l 1
 221 422 l 2xe3ffff
 190 422 120 468 120 594 c 0
 120 694 155 745 181 760 c 0
 187 763 196 767 206 767 c 0
 222 767 238 759 255 742 c 2
320 732 m 1
 317 737 l 1
 319 742 l 2
 320 745 320 747 320 748 c 0
 320 750 319 752 317 755 c 0
 295 782 258 804 215 804 c 0
 195 804 176 800 155 790 c 0
 93 759 60 691 60 586 c 0
 60 469 116 384 205 384 c 0xe9ffff
 211 384 216 384 221 385 c 2
 222 385 l 1
 222 385 l 1
 312 395 360 480 360 604 c 0
 360 652 348 700 320 732 c 1
687 782 m 0
 684 783 680 784 676 784 c 0
 663 784 651 778 644 769 c 0
 482 548 245 234 85 41 c 0
 82 37 80 32 80 31 c 0
 80 27 83 21 92 18 c 0
 95 17 100 16 104 16 c 0
 116 16 129 22 135 30 c 0
 297 224 534 540 696 761 c 0
 699 764 699 766 699 770 c 0
 699 775 698 779 687 782 c 0
EndSplineSet
EndChar

StartChar: ampersand
Encoding: 38 38 10
Width: 800
GlyphClass: 2
Flags: MW
HStem: -25 10<697.5 708 697.5 709> 39 10<273.5 356.5 273.5 358.5> 389 10<646 670.5> 734 10<366.5 396.5> 796 10<371 442.5>
VStem: 66 10<106 202.5 106 206> 164 10<129.5 197 129.5 200> 202 10<592 657 592 658.5> 296 10<606.5 655 606.5 655.5> 450 10<652 682.5> 538 10<657.5 698> 695 10<366 371> 749 10<12.5 18.5>
LayerCount: 2
Back
Fore
SplineSet
352 475 m 1
 403 519 436 575 446 624 c 0
 448 636 450 647 450 657 c 0
 450 708 420 734 373 734 c 0
 360 734 352 732 346 730 c 0
 323 721 306 681 306 629 c 0
 306 584 319 529 352 475 c 1
659 399 m 0
 685 399 705 384 705 366 c 0
 705 364 704 362 704 360 c 0
 690 298 667 226 627 161 c 1
 670 115 712 71 751 34 c 0
 757 29 759 23 759 16 c 0
 759 5 752 -8 738 -16 c 0
 728 -22 715 -25 703 -25 c 0
 690 -25 677 -21 669 -14 c 0
 638 16 604 49 570 85 c 1
 507 18 421 -29 302 -29 c 0
 153 -29 66 51 66 154 c 0
 66 258 171 341 274 417 c 1
 232 476 202 555 202 626 c 0
 202 691 227 751 294 785 c 0
 321 799 354 806 387 806 c 0
 503 806 548 737 548 664 c 0
 548 651 547 637 544 624 c 0
 530 554 483 478 404 418 c 0
 402 417 401 415 399 414 c 1
 442 365 497 302 556 237 c 1
 573 275 587 317 596 360 c 0
 601 381 630 399 659 399 c 0
507 153 m 1
 440 226 373 300 323 358 c 1
 233 286 174 228 174 166 c 0
 174 93 229 49 318 49 c 0
 395 49 459 90 507 153 c 1
359 467 m 1
 350 460 l 1
 343 470 l 2
 309 525 296 582 296 629 c 0
 296 682 312 728 342 739 c 1
 343 739 l 1
 343 739 l 1
 350 742 359 744 373 744 c 0
 425 744 460 713 460 657 c 0
 460 646 458 634 456 622 c 0
 445 570 411 513 359 467 c 1
659 389 m 0
 633 389 609 372 606 358 c 0
 597 314 582 271 565 233 c 2
 559 219 l 1
 549 230 l 2
 490 295 434 358 391 407 c 2
 383 417 l 1
 394 423 l 1
 398 426 l 2
 475 485 521 558 534 626 c 0
 537 638 538 651 538 664 c 0
 538 732 498 796 387 796 c 0
 355 796 324 789 299 776 c 0
 235 744 212 688 212 626 c 0
 212 558 241 480 282 423 c 2
 288 415 l 1
 280 409 l 2
 176 332 76 251 76 154 c 0
 76 58 156 -19 302 -19 c 0
 418 -19 501 27 563 92 c 2
 570 100 l 1
 577 92 l 2
 611 56 644 24 676 -7 c 0
 681 -11 692 -15 703 -15 c 0
 713 -15 725 -12 733 -7 c 0
 744 -1 749 9 749 16 c 0
 749 21 748 23 745 26 c 2
 744 27 l 1
 744 27 l 1
 705 64 663 108 620 154 c 2
 614 160 l 1
 618 166 l 2
 657 229 680 301 694 361 c 0
 694 363 695 366 695 366 c 2
 695 376 682 389 659 389 c 0
514 160 m 1
 520 154 l 1
 515 147 l 2
 466 82 399 39 318 39 c 0
 226 39 164 86 164 166 c 0
 164 234 227 294 317 366 c 2
 324 372 l 1
 331 365 l 1
 380 307 447 233 514 160 c 1
EndSplineSet
EndChar

StartChar: quotesingle
Encoding: 39 39 11
Width: 330
GlyphClass: 2
Flags: MW
HStem: 544 10<145.5 161.5 145.5 163> 832 10<179 181 179 179.5 179 181>
VStem: 110 10<803 805 803 811.5> 209 10<814 817.5>
LayerCount: 2
Back
Fore
SplineSet
158 841 m 2
 179 842 l 1
 181 842 l 2
 205 842 219 828 219 814 c 0
 218 726 215 616 209 581 c 0
 206 564 175 544 151 544 c 0
 136 544 123 551 121 573 c 0
 117 614 115 716 110 803 c 1
 110 805 l 2
 110 818 121 839 158 841 c 2
159 831 m 2
 126 829 120 812 120 805 c 2
 120 803 l 1
 125 717 127 614 131 574 c 0
 132 557 140 554 151 554 c 0
 172 554 198 573 199 583 c 0
 205 616 208 727 209 814 c 0
 209 821 201 832 181 832 c 2
 179 832 l 1
 180 832 180 832 179 832 c 1
 159 831 l 2
EndSplineSet
EndChar

StartChar: parenleft
Encoding: 40 40 12
Width: 360
GlyphClass: 2
Flags: MW
HStem: -112 10<230.5 239 230.5 239.5> 882 10<243 251.5>
VStem: 55 10<283 515 283 516> 135 10<297 522 297 523> 270 10<-82 -76.5>
LayerCount: 2
Back
Fore
SplineSet
262 -105 m 0
 253 -110 244 -112 235 -112 c 0
 224 -112 214 -108 207 -100 c 0
 149 -35 55 149 55 415 c 0
 55 617 116 769 209 874 c 0
 219 885 234 892 249 892 c 0
 255 892 260 891 266 889 c 0
 277 885 281 877 281 869 c 0
 281 862 278 854 271 846 c 0
 194 759 145 619 145 425 c 0
 145 169 227 -9 273 -60 c 0
 278 -66 280 -72 280 -79 c 0
 280 -89 275 -98 262 -105 c 0
257 -96 m 0
 268 -90 270 -85 270 -79 c 0
 270 -74 269 -71 265 -67 c 0
 217 -13 135 167 135 425 c 0
 135 621 184 763 264 853 c 0
 269 859 271 865 271 869 c 0
 271 873 270 877 263 880 c 0
 258 881 254 882 249 882 c 0
 237 882 224 876 216 867 c 0
 125 764 65 615 65 415 c 0
 65 151 159 -31 214 -93 c 0
 219 -99 226 -102 235 -102 c 0
 243 -102 250 -100 257 -96 c 0
EndSplineSet
EndChar

StartChar: parenright
Encoding: 41 41 13
Width: 360
GlyphClass: 2
Flags: MW
HStem: -112 10<108.5 117 108.5 118.5> 882 10<121 129.5>
VStem: 79 10<-91 -87 -91 -85.5> 215 10<258 483> 295 10<265 497>
LayerCount: 2
Back
Fore
SplineSet
98 885 m 0
 107 890 116 892 125 892 c 0
 136 892 146 888 153 880 c 0
 211 815 305 631 305 365 c 0
 305 163 244 11 151 -94 c 0
 141 -105 126 -112 111 -112 c 0
 105 -112 100 -111 94 -109 c 0
 83 -105 79 -97 79 -89 c 0
 79 -82 82 -74 89 -66 c 0
 166 21 215 161 215 355 c 0
 215 611 133 789 87 840 c 0
 82 846 80 852 80 859 c 0
 80 869 85 878 98 885 c 0
103 876 m 0
 92 870 90 865 90 859 c 0
 90 854 91 851 95 847 c 0
 143 793 225 613 225 355 c 0
 225 159 176 17 96 -73 c 0
 91 -79 89 -85 89 -89 c 0
 89 -93 90 -97 97 -100 c 0
 102 -101 106 -102 111 -102 c 0
 123 -102 136 -96 144 -87 c 0
 235 16 295 165 295 365 c 0
 295 629 201 811 146 873 c 0
 141 879 134 882 125 882 c 0
 117 882 110 880 103 876 c 0
EndSplineSet
EndChar

StartChar: asterisk
Encoding: 42 42 14
Width: 600
GlyphClass: 2
Flags: MW
HStem: 392 10<290 305 300 305> 488 10<118.5 127.5 118.5 128> 495 10<469 477 469 478> 735 10<124 133> 742 10<472.5 481.5> 839 10<300.5 309>
VStem: 84 10<709.5 713.5 709.5 715> 89 10<511.5 514 511.5 516.5> 256 10<814 815 814 822.5> 265 10<413 440.5 413 441> 272 10<572 572> 326 10<757 783.5> 335 10<420.5 447> 501 10<727 730.5> 506 10<525.5 528.5>
LayerCount: 2
Back
Fore
SplineSet
293 848 m 0xd680
 296 848 299 849 301 849 c 0
 319 849 333 839 334 826 c 0
 335 809 336 792 336 775 c 0
 336 739 334 702 333 664 c 1
 372 690 410 718 446 743 c 0
 455 749 466 752 477 752 c 0x8e90
 487 752 495 750 502 745 c 0
 508 741 511 735 511 729 c 0x9694
 511 721 506 712 496 705 c 0
 454 676 406 650 358 623 c 1
 408 597 458 573 503 547 c 0
 511 542 516 535 516 527 c 0
 516 520 512 513 505 507 c 0
 496 499 484 495 472 495 c 0
 464 495 456 497 449 501 c 0
 411 523 374 547 335 571 c 1
 339 520 345 471 345 424 c 0
 345 409 327 394 305 392 c 2
 300 392 l 2
 280 392 265 402 265 416 c 0xb44a
 265 466 270 518 272 572 c 1
 230 545 191 518 151 495 c 0xb420
 142 490 133 488 123 488 c 0
 112 488 102 491 96 497 c 0
 92 501 89 507 89 512 c 0
 89 521 96 531 107 537 c 0
 153 564 206 589 257 617 c 1
 204 645 148 667 99 691 c 0xc520
 89 696 84 703 84 712 c 0
 84 718 87 725 93 731 c 0
 102 740 116 745 130 745 c 0
 137 745 143 744 149 741 c 0
 190 722 229 698 270 673 c 1
 266 722 260 769 256 814 c 1
 256 815 l 2
 256 830 272 845 293 848 c 0xd680
294 838 m 0
 277 835 266 823 266 815 c 2
 266 814 l 1
 270 771 276 723 280 674 c 2
 282 654 l 1
 265 664 l 2
 224 690 185 713 145 732 c 0
 140 734 136 735 130 735 c 0
 118 735 107 731 100 724 c 0
 96 719 94 715 94 712 c 0x9694
 94 707 96 704 103 700 c 0
 152 676 208 654 262 626 c 2
 278 617 l 1
 262 608 l 2
 210 580 158 555 112 528 c 0
 103 523 99 516 99 512 c 0
 99 511 101 507 103 504 c 0
 106 501 114 498 123 498 c 0
 132 498 139 500 146 504 c 0
 185 526 224 553 267 580 c 2
 283 591 l 1
 282 572 l 2xd520
 280 517 275 465 275 416 c 0
 275 410 282 402 300 402 c 2
 305 402 l 2
 323 404 335 417 335 424 c 0
 335 470 329 519 325 570 c 2
 323 590 l 1
 340 580 l 2
 379 555 416 531 454 510 c 0
 459 507 466 505 472 505 c 0
 482 505 491 508 498 515 c 0
 504 519 506 524 506 527 c 0xa44a
 506 530 504 535 498 538 c 0
 454 564 403 588 353 614 c 2
 337 623 l 1
 353 632 l 2
 401 659 449 685 490 713 c 0
 498 719 501 725 501 729 c 0xa404
 501 732 500 734 496 737 c 0
 491 741 486 742 477 742 c 0
 468 742 459 739 452 735 c 0
 416 710 378 682 339 656 c 2
 322 645 l 1
 323 664 l 2
 324 702 326 739 326 775 c 0
 326 792 325 809 324 825 c 0
 324 831 317 839 301 839 c 0
 300 839 300 838 294 838 c 0
EndSplineSet
EndChar

StartChar: plus
Encoding: 43 43 15
Width: 600
GlyphClass: 2
Flags: MW
HStem: 145 10<289 305 300 305> 302 10<339 349 349 368.5> 362 10<337 347 337 337> 370 10<120 135 130 135> 525 10<293 299 293 293>
VStem: 80 10<337 342 342 343> 250 10<494 497> 259 10<303 313> 340 10<178 204.5> 510 10<342 343 342 348.5>
LayerCount: 2
Back
Fore
SplineSet
81 349 m 0xedc0
 86 367 107 380 130 380 c 2
 135 380 l 2xddc0
 170 377 211 374 257 373 c 1
 256 417 253 457 250 494 c 2
 250 497 l 2
 250 515 269 532 292 535 c 2
 299 535 l 2
 320 535 338 523 340 506 c 0
 344 465 346 420 347 372 c 1
 388 372 432 373 478 375 c 2
 480 375 l 2
 502 375 520 361 520 343 c 2
 520 342 l 2
 519 323 496 306 472 305 c 0
 429 303 388 302 349 302 c 1
 350 264 350 225 350 184 c 0
 350 165 329 147 305 145 c 2
 300 145 l 2
 278 145 260 158 260 176 c 0xeec0
 260 220 260 263 259 303 c 1
 205 304 157 306 115 310 c 0
 94 312 80 326 80 342 c 0
 80 344 80 347 81 349 c 0xedc0
91 346 m 1
 90 345 l 1
 90 344 91 346 90 345 c 1
 90 342 l 2
 90 332 99 322 116 320 c 0
 158 316 205 314 259 313 c 2
 269 313 l 1
 269 303 l 2xddc0
 270 263 270 220 270 176 c 0
 270 166 281 155 300 155 c 2
 305 155 l 2
 325 157 340 172 340 184 c 0
 340 225 340 264 339 302 c 2
 339 312 l 1
 349 312 l 2
 388 312 429 313 472 315 c 0
 492 316 509 331 510 342 c 2
 510 343 l 2
 510 354 498 365 480 365 c 2
 478 365 l 2
 433 363 388 362 347 362 c 2
 337 362 l 1
 337 372 l 2
 336 420 334 465 330 505 c 0
 329 515 317 525 299 525 c 2
 293 525 l 2
 274 522 260 508 260 497 c 2
 260 494 l 2xeec0
 263 458 266 417 267 373 c 2
 267 363 l 1
 257 363 l 2
 211 364 171 367 135 370 c 2
 130 370 l 2
 110 370 94 359 91 346 c 1
EndSplineSet
EndChar

StartChar: comma
Encoding: 44 44 16
Width: 330
GlyphClass: 2
Flags: MW
HStem: -182 10<93 103 93 103.5> 48 10<97 106.5 97 107.5> 117 10<153 168 163 168>
VStem: 61 10<-156 -151.5 -156 -149> 170 10<-13.5 18.5> 251 10<-15.5 29.5>
LayerCount: 2
Back
Fore
SplineSet
73 58 m 0
 68 63 65 69 65 75 c 0
 65 85 72 95 85 103 c 0
 89 106 93 109 98 111 c 0
 117 121 141 127 163 127 c 2
 168 127 l 2
 201 125 223 110 236 94 c 0
 252 74 261 46 261 15 c 0
 261 -50 222 -129 126 -176 c 0
 118 -180 108 -182 99 -182 c 0
 85 -182 73 -177 66 -169 c 0
 63 -165 61 -160 61 -155 c 0
 61 -143 69 -131 84 -124 c 0
 144 -94 170 -36 170 9 c 0
 170 28 165 45 157 55 c 0
 152 61 148 62 148 62 c 1
 148 62 144 62 135 57 c 0
 125 51 113 48 102 48 c 0
 90 48 80 51 73 58 c 0
80 65 m 0
 85 61 92 58 102 58 c 0
 111 58 121 61 130 66 c 0
 140 71 145 72 147 72 c 2
 147 72 -85 62 149 72 c 1
 150 72 l 2
 152 71 158 69 165 61 c 0
 175 49 180 30 180 9 c 0
 180 -40 152 -101 88 -133 c 0
 76 -139 71 -148 71 -155 c 0
 71 -157 72 -160 74 -163 c 0
 78 -167 87 -172 99 -172 c 0
 107 -172 115 -170 122 -167 c 0
 215 -122 251 -46 251 15 c 0
 251 44 242 70 228 88 c 0
 217 102 199 115 168 117 c 2
 163 117 l 2
 143 117 120 111 103 102 c 1
 102 102 l 1
 102 102 l 1
 98 100 95 98 91 95 c 1
 91 95 l 1
 90 94 l 2
 79 87 75 80 75 75 c 0
 75 72 76 69 80 65 c 0
EndSplineSet
EndChar

StartChar: hyphen
Encoding: 45 45 17
Width: 600
GlyphClass: 2
Flags: MW
HStem: 301 10<282 345.5> 363 10<298 359.5> 371 10<122 138 133 138>
VStem: 75 10<335.5 340.5 335.5 341.5> 514 10<343 346 342 350.5>
LayerCount: 2
Back
Fore
SplineSet
77 349 m 0xd8
 84 367 108 381 133 381 c 2
 138 381 l 1xb8
 191 376 259 373 337 373 c 0
 382 373 430 374 480 376 c 2
 482 376 l 2
 506 376 524 363 524 346 c 2
 524 342 l 2
 521 323 497 305 470 304 c 0
 418 302 369 301 322 301 c 0
 242 301 170 304 112 309 c 0
 90 311 75 324 75 340 c 0
 75 343 76 346 77 349 c 0xd8
86 346 m 0
 86 343 85 341 85 340 c 0
 85 331 94 321 113 319 c 0
 170 314 242 311 322 311 c 0
 369 311 418 312 470 314 c 0
 493 315 511 330 514 343 c 2
 514 346 l 2
 514 355 503 366 482 366 c 2
 480 366 l 2
 431 364 382 363 337 363 c 0xd8
 259 363 192 366 138 371 c 1
 133 371 l 2
 111 371 91 358 86 346 c 0
EndSplineSet
EndChar

StartChar: period
Encoding: 46 46 18
Width: 330
GlyphClass: 2
Flags: MW
HStem: -5 10<132.5 180 132.5 182.5> 122 10<142 177.5>
VStem: 81 10<44 65 44 67.5> 239 10<69 80.5>
LayerCount: 2
Back
Fore
SplineSet
231 112 m 0
 233 110 249 95 249 71 c 0
 249 67 249 62 248 58 c 0
 243 32 210 -5 155 -5 c 0
 105 -5 81 26 81 56 c 0
 81 79 103 132 175 132 c 0
 181 132 187 131 191 130 c 2
 207 126 l 2
 217 123 226 118 231 112 c 0
224 105 m 2
 223 106 l 2
 220 109 213 114 204 116 c 1
 205 116 206 116 205 116 c 2
 189 120 l 2
 185 121 180 122 175 122 c 0
 109 122 91 74 91 56 c 0
 91 32 110 5 155 5 c 0
 205 5 234 39 238 60 c 1
 238 60 l 1
 238 60 l 1
 239 63 239 67 239 71 c 0
 239 90 226 103 224 105 c 2
EndSplineSet
EndChar

StartChar: slash
Encoding: 47 47 19
Width: 480
GlyphClass: 2
Flags: MW
HStem: -29 10<73 81.5 73 83> 818 10<397.5 409 406 409>
VStem: 41 10<-6 -3 -6 -1.5> 429 10<801 810.5 803 804 804 807>
LayerCount: 2
Back
Fore
SplineSet
409 828 m 2
 427 827 439 817 439 804 c 0
 439 802 439 799 438 797 c 0
 347 520 244 259 117 -6 c 0
 111 -19 92 -29 74 -29 c 0
 72 -29 69 -28 67 -28 c 0
 51 -26 41 -15 41 -3 c 0
 41 0 42 3 43 6 c 0
 168 269 271 528 362 803 c 0
 367 818 386 828 406 828 c 2
 409 828 l 2
409 818 m 2
 406 818 l 2
 389 818 375 809 371 800 c 0
 280 525 178 266 52 2 c 0
 52 0 51 -3 51 -3 c 2
 51 -9 56 -16 67 -18 c 0
 71 -18 72 -19 74 -19 c 0
 89 -19 104 -10 108 -2 c 0
 235 263 338 523 428 800 c 1
 429 801 l 1
 429 802 428 800 429 801 c 1
 429 804 l 2
 429 810 424 817 409 818 c 2
EndSplineSet
EndChar

StartChar: zero
Encoding: 48 48 20
Width: 720
GlyphClass: 2
Flags: MW
HStem: -24 10<275 361 275 361.5> 46 10<339.5 386 379 386 379 387 379 387> 742 10<345.5 372> 811 10<350.5 407>
VStem: 66 10<265.5 490.5 265.5 491.5> 164 10<274.5 498 274.5 499> 456 10<661.5 666.5 661.5 667.5> 546 10<273.5 452.5> 564 10<702.5 707> 644 10<290 465.5>
LayerCount: 2
Back
Fore
SplineSet
567 685 m 1
 629 620 654 516 654 416 c 0
 654 162 556 -4 386 -22 c 0
 376 -23 366 -24 357 -24 c 0
 185 -24 66 145 66 384 c 0
 66 599 136 737 257 795 c 0
 294 813 332 821 368 821 c 0
 449 821 522 781 568 723 c 0
 572 718 574 711 574 705 c 0
 574 698 572 691 567 685 c 1
464 686 m 1
 428 727 389 742 355 742 c 0
 336 742 319 738 304 730 c 0
 248 701 174 600 174 396 c 0
 174 153 308 56 379 56 c 2
 386 56 l 1
 438 62 546 143 546 404 c 0
 546 501 514 601 466 642 c 0
 459 648 456 656 456 664 c 0
 456 671 458 679 464 686 c 1
560 678 m 1
 554 685 l 1
 559 691 l 2
 563 695 564 700 564 705 c 0
 564 709 562 714 560 717 c 0
 516 773 446 811 368 811 c 0
 333 811 297 803 261 786 c 0
 145 730 76 597 76 384 c 0
 76 147 193 -14 357 -14 c 0
 365 -14 375 -13 385 -12 c 0
 547 5 644 164 644 416 c 0
 644 515 619 616 560 678 c 1
472 693 m 1
 477 686 l 1
 472 679 l 2
 467 675 466 669 466 664 c 0
 466 659 468 654 473 650 c 0
 524 605 556 503 556 404 c 0
 556 141 447 53 387 46 c 1
 387 46 l 1
 379 46 l 2
 300 46 164 150 164 396 c 0
 164 602 239 707 299 739 c 0
 316 748 335 752 355 752 c 0
 392 752 434 735 472 693 c 1
EndSplineSet
EndChar

StartChar: one
Encoding: 49 49 21
Width: 720
GlyphClass: 2
Flags: MW
HStem: -19 10<158.5 175 172 175> -9 10<485 623 549 621 621 623> 49 10<185 185> 57 10<373 373> 591 10<165.5 178 165.5 178.5> 802 10<437.5 454.5>
VStem: 126 10<14 17 8.5 18 8.5 18 622 628.5> 364 10<373.5 465.5> 371 10<80.5 83 80.5 83> 462 10<385.5 487> 469 10<775 778 775 788.5> 677 10<16.5 25.5>
LayerCount: 2
Back
Fore
SplineSet
130 610 m 0x1f10
 127 614 126 619 126 624 c 0
 126 639 139 656 159 664 c 0
 239 696 321 733 384 791 c 1
 384 791 420 812 448 812 c 0
 465 812 479 804 479 778 c 2
 479 775 l 1x1f30
 474 635 472 534 472 440 c 0x1e50
 472 331 475 232 479 97 c 0
 480 74 547 84 649 68 c 0
 656 67 687 41 687 19 c 0
 687 4 672 -9 623 -9 c 2
 621 -9 l 1
 549 -9 l 2x5e30
 421 -9 322 -13 175 -19 c 1
 172 -19 l 2
 145 -19 126 -5 126 14 c 2
 126 18 l 2
 129 39 155 58 185 59 c 0xae30
 255 62 314 65 373 67 c 1
 372 71 371 77 371 83 c 0x1eb0
 367 219 364 318 364 429 c 0
 364 502 365 579 368 676 c 1
 312 642 253 617 201 596 c 0
 192 592 183 591 174 591 c 0
 155 591 137 598 130 610 c 0x1f10
138 616 m 2
 139 615 l 2
 143 608 157 601 174 601 c 0
 182 601 189 602 197 605 c 0
 249 626 308 651 363 685 c 2
 379 694 l 1
 378 676 l 2
 375 579 374 502 374 429 c 0x4f30
 374 318 377 220 381 83 c 0
 381 78 382 73 383 69 c 2
 386 57 l 1
 373 57 l 2x5e90
 314 55 255 52 185 49 c 0
 159 48 139 32 136 17 c 2
 136 14 l 2
 136 3 148 -9 172 -9 c 2
 175 -9 l 1xae90
 321 -3 421 1 549 1 c 2
 623 1 l 2
 672 1 677 14 677 19 c 0
 677 32 655 54 647 58 c 0
 555 72 471 59 469 97 c 0
 465 232 462 331 462 440 c 0x4ed0
 462 534 464 636 469 775 c 1
 469 778 l 2
 469 799 461 802 448 802 c 0
 427 802 396 786 390 783 c 0
 325 724 243 687 163 655 c 0
 145 648 136 633 136 624 c 0
 136 620 137 618 138 616 c 2
EndSplineSet
EndChar

StartChar: two
Encoding: 50 50 22
Width: 720
GlyphClass: 2
Flags: MW
HStem: -13 10<255 355 255 355.5> 61 10<295 373> 74 10<596 603 596 596> 620 10<124 136 124 137.5> 740 10<352.5 391> 809 10<367 435.5>
VStem: 71 10<54.5 184.5 54.5 189.5> 81 10<649 656.5 649 657> 501 10<500 648.5> 599 10<485 672> 639 10<44.5 56.5>
LayerCount: 2
Back
Fore
SplineSet
111 622 m 0xfee0
 92 626 81 639 81 654 c 0xfde0
 81 660 82 666 86 672 c 0
 137 754 235 806 335 817 c 0
 348 818 360 819 373 819 c 0
 502 819 609 745 609 606 c 0
 609 355 193 261 180 81 c 1
 206 74 262 71 328 71 c 0
 418 71 526 76 595 84 c 1
 603 84 l 2
 629 84 649 70 649 51 c 0
 649 30 625 9 595 6 c 0
 524 -1 408 -13 303 -13 c 0
 207 -13 120 -3 86 28 c 0
 78 36 71 46 71 59 c 0
 71 320 501 406 501 594 c 0
 501 703 426 740 356 740 c 0
 349 740 342 740 335 739 c 0
 279 733 219 703 184 648 c 0
 173 632 149 620 126 620 c 0
 121 620 116 621 111 622 c 0xfee0
113 632 m 0
 118 631 122 630 126 630 c 0
 146 630 167 641 176 654 c 0
 212 711 276 743 334 749 c 0
 341 750 349 750 356 750 c 0
 430 750 511 709 511 594 c 0
 511 393 81 310 81 59 c 0xfee0
 81 50 85 43 93 35 c 0
 123 9 207 -3 303 -3 c 0
 407 -3 523 9 594 16 c 0
 621 19 639 38 639 51 c 0
 639 62 626 74 603 74 c 2
 596 74 l 1
 527 66 418 61 328 61 c 0
 262 61 206 64 177 71 c 2
 169 73 l 1
 170 82 l 1
 184 275 599 364 599 606 c 0
 599 738 498 809 373 809 c 0
 361 809 349 808 336 807 c 0
 239 796 144 746 94 667 c 0
 92 662 91 659 91 654 c 0
 91 644 98 635 113 632 c 0
EndSplineSet
EndChar

StartChar: three
Encoding: 51 51 23
Width: 720
GlyphClass: 2
Flags: MW
HStem: -27 10<298 380 298 380.5> 44 10<335.5 389.5 335.5 390> 150 10<124 135> 361 10<222.5 241.5 222.5 242> 372 10<361 418.5> 630 10<118.5 130.5 118.5 132> 741 10<347.5 386> 810 10<360.5 428>
VStem: 66 10<111.5 119 111.5 121.5> 76 10<660 666.5 660 667.5> 203 10<379 389 379 393.5> 491 10<525 654.5> 546 10<177.5 285.5> 589 10<578 679> 644 10<183 291.5>
LayerCount: 2
Back
Fore
SplineSet
103 633 m 0xffbe
 86 638 76 651 76 664 c 0xff7e
 76 671 78 677 83 684 c 0
 138 760 234 808 329 818 c 0
 342 819 354 820 366 820 c 0
 493 820 599 749 599 616 c 0
 599 535 547 473 488 436 c 1
 576 418 654 352 654 236 c 0
 654 126 598 44 504 3 c 0
 457 -18 406 -27 355 -27 c 0
 238 -27 124 23 71 98 c 0
 67 103 66 108 66 114 c 0
 66 129 77 144 97 153 c 0
 107 157 118 160 128 160 c 0
 145 160 161 153 169 142 c 0
 210 84 297 54 374 54 c 0
 405 54 434 59 458 69 c 0
 502 88 546 131 546 224 c 0
 546 347 461 372 376 372 c 0
 346 372 316 369 290 366 c 0
 268 364 252 361 232 361 c 0
 210 361 203 370 203 382 c 0
 203 405 229 437 229 437 c 1
 306 457 491 446 491 604 c 0
 491 705 421 741 351 741 c 0
 344 741 336 741 329 740 c 0
 274 734 214 707 177 656 c 0
 165 640 143 630 121 630 c 0
 115 630 109 631 103 633 c 0xffbe
106 643 m 0
 111 641 116 640 121 640 c 0
 140 640 159 649 169 662 c 0
 208 716 271 744 328 750 c 0
 335 751 344 751 351 751 c 0
 424 751 501 711 501 604 c 0
 501 438 308 446 235 428 c 1
 229 420 213 396 213 382 c 0
 213 376 213 371 232 371 c 0
 251 371 267 374 289 376 c 0
 315 379 345 382 376 382 c 0
 463 382 556 355 556 224 c 0
 556 127 509 80 462 60 c 0
 436 49 406 44 374 44 c 0
 295 44 205 74 161 136 c 0
 155 144 142 150 128 150 c 0
 120 150 110 147 101 144 c 0
 84 136 76 124 76 114 c 0xffbe
 76 109 77 107 79 104 c 1
 79 104 l 1
 79 104 l 1
 130 32 241 -17 355 -17 c 0
 405 -17 454 -8 500 12 c 0
 591 52 644 130 644 236 c 0
 644 347 570 409 486 426 c 2
 462 431 l 1
 483 444 l 2
 540 480 589 540 589 616 c 0
 589 742 490 810 366 810 c 0
 355 810 343 809 330 808 c 0
 238 798 144 751 91 678 c 0
 87 672 86 669 86 664 c 0
 86 656 92 647 106 643 c 0
EndSplineSet
EndChar

StartChar: four
Encoding: 52 52 24
Width: 720
GlyphClass: 2
Flags: MW
HStem: -30 10<495.5 507.5 495.5 508.5> 174 10<216.5 313.5> 243 10<275.5 330> 259 10<637 642 637 642> 609 10<511 517 511 511> 819 10<331 331 331 338>
VStem: 31 10<218 268 218 274> 276 10<784 791 784 794.5> 374 10<796 801.5> 455 10<393 447> 554 10<252 290 263 290 561 590.5> 679 10<234 235 234 240.5>
LayerCount: 2
Back
Fore
SplineSet
330 829 m 2
 338 829 l 2
 364 829 384 815 384 796 c 0
 383 545 208 340 152 262 c 1
 190 256 244 253 307 253 c 0
 353 253 404 254 456 257 c 1
 456 310 455 366 455 420 c 0
 455 474 456 527 456 575 c 0
 456 596 480 616 510 619 c 2
 517 619 l 2
 544 619 564 604 564 585 c 0
 564 537 563 483 563 428 c 0
 563 373 564 317 564 263 c 1
 589 265 613 267 637 269 c 2
 642 269 l 2
 669 269 689 254 689 235 c 2
 689 234 l 2
 688 213 663 193 633 191 c 0
 612 189 589 188 564 186 c 1
 565 115 567 54 569 17 c 2
 569 16 l 2
 569 -5 546 -25 517 -29 c 0
 514 -29 510 -30 507 -30 c 0
 481 -30 462 -16 461 3 c 0
 459 42 457 105 456 179 c 1
 400 176 341 174 286 174 c 0
 147 174 31 187 31 234 c 0
 31 314 275 501 276 784 c 0
 276 805 300 826 330 829 c 2
331 819 m 2
 304 816 286 798 286 784 c 0
 285 497 41 302 41 234 c 0
 41 202 141 184 286 184 c 0
 341 184 400 186 455 189 c 2
 466 190 l 1
 466 179 l 2
 467 105 469 42 471 4 c 0
 472 -8 484 -20 507 -20 c 0
 508 -20 510 -19 516 -19 c 0
 541 -15 559 2 559 16 c 2
 559 17 l 2
 557 53 555 115 554 186 c 2
 554 195 l 1
 563 196 l 2
 589 198 611 199 632 201 c 0
 659 203 678 220 679 234 c 2
 679 235 l 2
 679 246 666 259 642 259 c 2
 637 259 l 2
 614 257 590 255 565 253 c 2
 554 252 l 1
 554 263 l 2
 554 317 553 373 553 428 c 0
 553 483 554 537 554 585 c 0
 554 596 541 609 517 609 c 2
 511 609 l 2
 484 606 466 589 466 575 c 0
 466 527 465 474 465 420 c 0
 465 366 466 310 466 257 c 2
 466 248 l 1
 457 247 l 2
 404 244 353 243 307 243 c 0
 244 243 189 246 150 252 c 2
 134 255 l 1
 144 268 l 2
 200 347 373 549 374 796 c 0
 374 807 361 819 338 819 c 2
 331 819 l 2
EndSplineSet
EndChar

StartChar: five
Encoding: 53 53 25
Width: 720
GlyphClass: 2
Flags: MW
HStem: -26 10<295 357 295 357.5> 43 10<333 373 333 373> 150 10<133 145> 334 10<129.5 146 129.5 148> 409 10<359.5 412.5> 477 10<377 451> 716 10<342 412.5> 784 10<342 426.5> 795 10<158 181 576.5 588.5>
VStem: 76 10<111 118 111 120.5> 106 10<368 377 357.5 377> 125 10<762.5 769 762.5 771> 226 10<704 719> 541 10<172.5 274.5> 614 10<770 772 772 772> 639 10<175.5 280.5>
LayerCount: 2
Back
Fore
SplineSet
109 154 m 0
 118 158 128 160 137 160 c 0
 155 160 172 153 180 141 c 0
 214 87 297 53 369 53 c 0
 377 53 384 53 391 54 c 0
 460 61 541 101 541 244 c 0
 541 305 524 345 500 370 c 0
 474 397 436 409 389 409 c 0
 330 409 259 389 189 350 c 1
 189 350 160 334 136 334 c 0
 119 334 106 342 106 368 c 2
 106 377 l 1
 114 461 128 593 128 696 c 0
 128 718 127 738 126 757 c 2
 126 757 125 760 125 764 c 0
 125 778 132 805 178 805 c 0
 184 805 190 805 197 804 c 0
 239 799 301 794 383 794 c 0
 470 794 526 798 567 804 c 0
 570 804 574 805 577 805 c 0
 602 805 622 792 624 773 c 2
 624 770 l 2
 624 750 602 730 573 726 c 0
 520 718 458 716 367 716 c 0
 317 716 274 717 236 719 c 1
 236 704 l 2
 236 623 229 529 221 451 c 1
 281 474 346 487 407 487 c 0
 497 487 578 458 620 383 c 0
 639 349 649 306 649 256 c 0
 649 90 536 -9 391 -24 c 0
 377 -25 364 -26 351 -26 c 0
 237 -26 129 22 80 99 c 0
 77 103 76 108 76 113 c 0
 76 128 89 146 109 154 c 0
113 145 m 0
 96 138 86 123 86 113 c 0
 86 109 87 107 88 105 c 1
 88 105 l 1
 88 104 l 1
 135 31 239 -16 351 -16 c 0
 363 -16 376 -15 390 -14 c 0
 531 1 639 95 639 256 c 0
 639 305 629 346 611 378 c 0
 572 449 495 477 407 477 c 0
 347 477 284 464 225 442 c 2
 209 436 l 1
 211 452 l 2
 219 530 226 624 226 704 c 2
 226 730 l 1
 237 729 l 2
 274 727 317 726 367 726 c 0
 458 726 519 728 572 736 c 0
 598 740 614 757 614 770 c 2
 614 772 l 2
 613 783 600 795 577 795 c 0
 576 795 574 794 568 794 c 0
 528 788 470 784 383 784 c 0
 301 784 238 789 196 794 c 0
 189 795 184 795 178 795 c 0
 138 795 135 774 135 764 c 0
 135 761 136 760 136 760 c 1
 136 759 l 1
 136 758 l 2
 137 739 138 718 138 696 c 0
 138 592 124 461 116 377 c 1
 116 368 l 2
 116 347 123 344 136 344 c 0
 156 344 184 359 184 359 c 1
 255 398 328 419 389 419 c 0
 438 419 479 407 507 377 c 0
 533 350 551 307 551 244 c 0
 551 96 464 51 392 44 c 0
 385 43 377 43 369 43 c 0
 294 43 208 78 172 136 c 0
 166 143 153 150 137 150 c 0
 129 150 121 148 113 145 c 0
EndSplineSet
EndChar

StartChar: six
Encoding: 54 54 26
Width: 720
GlyphClass: 2
Flags: MW
HStem: -29 10<278 454.5 278 457> 39 10<330.5 432 330.5 434> 251 10<79 100 86 90 86 100> 397 10<385.5 451.5> 466 10<393 506> 819 10<421.5 434>
VStem: 32 10<280 285 280 287.5> 90 10<251 261> 188 10<211 288.5 211 289> 464 10<791.5 798.5> 560 10<221.5 274> 658 10<231.5 295>
LayerCount: 2
Back
Fore
SplineSet
45 262 m 0
 36 267 32 274 32 282 c 0
 32 293 40 304 52 314 c 0
 62 322 72 330 82 337 c 0
 86 340 91 343 95 346 c 0
 96 353 98 361 99 368 c 0
 127 514 216 677 381 813 c 0
 394 823 412 829 429 829 c 0
 440 829 450 827 458 822 c 0
 469 815 474 805 474 795 c 0
 474 785 469 775 459 767 c 0
 333 663 254 539 219 423 c 1
 291 458 361 476 423 476 c 0
 595 476 668 354 668 240 c 0
 668 222 666 205 663 188 c 0
 642 85 547 -29 367 -29 c 0
 183 -29 97 103 90 251 c 1
 86 251 l 2
 72 251 55 256 45 262 c 0
199 318 m 1
 199 306 l 2
 199 299 198 292 198 285 c 0
 198 137 278 49 383 49 c 0
 481 49 539 103 556 187 c 0
 559 201 560 215 560 228 c 0
 560 320 496 397 407 397 c 0
 364 397 303 382 221 332 c 0
 214 328 206 323 199 318 c 1
50 271 m 0
 58 266 74 261 86 261 c 2
 100 261 l 1
 100 251 l 1
 107 107 189 -19 367 -19 c 0
 542 -19 633 91 653 190 c 0
 656 206 658 223 658 240 c 0
 658 350 589 466 423 466 c 0
 363 466 294 448 223 414 c 2
 203 404 l 1
 209 426 l 2
 245 544 325 669 453 775 c 0
 461 781 464 788 464 795 c 0
 464 802 461 808 453 814 c 0
 447 817 439 819 429 819 c 0
 414 819 398 813 387 805 c 0
 224 671 136 509 109 366 c 0
 108 359 106 351 105 345 c 2
 104 340 l 1
 101 338 l 2
 96 334 92 332 88 329 c 0
 78 322 68 314 58 306 c 0
 47 297 42 288 42 282 c 0
 42 278 43 274 50 271 c 0
189 323 m 1
 193 326 l 2
 200 331 209 337 216 341 c 0
 299 391 362 407 407 407 c 0
 502 407 570 324 570 228 c 0
 570 215 569 200 566 185 c 0
 548 97 485 39 383 39 c 0
 271 39 188 133 188 285 c 0
 188 293 189 300 189 306 c 2
 189 323 l 1
EndSplineSet
EndChar

StartChar: seven
Encoding: 55 55 27
Width: 720
GlyphClass: 2
Flags: MW
HStem: -19 10<308.5 333 308.5 334.5> 554 10<143.5 155 143.5 155> 716 10<322 386 322 386> 784 10<322.5 419> 795 10<612 623 611.5 623.5>
VStem: 69 10<763.5 770.5 763.5 773> 199 10<595 598 598 598> 274 10<10 15 10 16> 648 10<777 784.5>
LayerCount: 2
Back
Fore
SplineSet
368 794 m 0
 470 794 538 800 603 804 c 2
 603 804 608 805 615 805 c 0
 631 805 658 801 658 779 c 0
 658 773 656 766 651 756 c 0
 521 509 451 325 383 19 c 0
 378 -2 349 -19 320 -19 c 0
 294 -19 274 -3 274 15 c 0
 274 17 275 19 275 21 c 0
 339 309 407 494 522 721 c 1
 475 718 420 716 352 716 c 0
 291 716 232 722 182 725 c 1
 191 689 202 646 209 599 c 1
 209 595 l 2
 209 577 190 560 165 555 c 0
 161 554 157 554 153 554 c 0
 131 554 114 565 111 581 c 0
 100 649 82 709 71 754 c 2
 71 754 69 759 69 766 c 0
 69 780 76 801 123 801 c 2
 130 801 l 2
 178 799 277 794 368 794 c 0
368 784 m 0
 277 784 177 789 130 791 c 2
 123 791 l 2
 80 791 79 775 79 766 c 0
 79 761 80 758 80 758 c 1
 81 757 l 1
 81 756 l 1
 92 712 110 651 121 583 c 0
 123 573 134 564 153 564 c 0
 157 564 160 564 163 565 c 1
 163 565 l 1
 163 565 l 1
 186 569 199 584 199 595 c 2
 199 598 l 1
 192 643 181 687 172 723 c 2
 169 736 l 1
 183 735 l 2
 233 732 292 726 352 726 c 0
 420 726 475 728 521 731 c 2
 539 732 l 1
 531 716 l 2
 416 490 349 307 285 20 c 0
 285 18 284 15 284 15 c 2
 284 5 297 -9 320 -9 c 0
 346 -9 370 7 373 21 c 0
 441 328 512 513 642 761 c 0
 647 770 648 775 648 779 c 0
 648 790 632 795 615 795 c 0
 609 795 605 794 605 794 c 1
 604 794 l 1
 604 794 l 1
 539 790 470 784 368 784 c 0
EndSplineSet
EndChar

StartChar: eight
Encoding: 56 56 28
Width: 720
GlyphClass: 2
Flags: MW
HStem: -24 10<264.5 409 264.5 410> 44 10<311.5 409.5 311.5 411> 394 9<340 347> 610 10<551.5 563.5> 651 10<525.5 538 525.5 538.5> 741 10<300 369.5> 809 10<283 408>
VStem: 76 10<140.5 238 140.5 240.5> 87 10<581.5 617.5 581.5 618> 174 10<164 241.5 164 244.5> 185 10<602 628 602 628.5> 549 10<187 237> 584 10<691.5 698> 594 10<583 589.5> 649 10<190 256>
LayerCount: 2
Back
Fore
SplineSet
242 428 m 1xfff6
 135 476 87 545 87 613 c 0
 87 623 88 633 90 643 c 0
 108 734 214 819 348 819 c 0
 471 819 548 764 588 713 c 0
 592 708 594 702 594 696 c 0xfffa
 594 682 583 667 565 658 c 0
 555 653 544 651 533 651 c 0
 516 651 501 657 492 667 c 0
 460 706 407 741 332 741 c 0
 268 741 209 700 197 643 c 0
 196 637 195 631 195 625 c 0
 195 579 229 525 333 486 c 1
 341 491 348 497 356 502 c 0
 460 569 516 607 516 607 c 2
 528 615 543 620 558 620 c 0
 571 620 584 616 593 609 c 0
 601 603 604 595 604 587 c 0
 604 575 597 563 585 554 c 0
 583 552 532 517 436 455 c 1
 586 405 659 307 659 211 c 0
 659 167 644 124 614 86 c 0
 563 21 468 -24 352 -24 c 0
 173 -24 76 86 76 188 c 0
 76 293 152 367 242 428 c 1xfff6
340 394 m 0
 241 329 184 283 184 200 c 0
 184 128 255 54 368 54 c 0
 451 54 500 84 528 127 c 0
 542 148 549 174 549 200 c 0
 549 274 491 357 346 393 c 0
 344 393 342 394 340 394 c 0
246 437 m 2
 262 430 l 1
 248 420 l 2
 158 359 86 288 86 188 c 0
 86 93 177 -14 352 -14 c 0
 466 -14 557 30 606 92 c 0
 635 129 649 169 649 211 c 0
 649 301 580 396 433 446 c 1
 413 452 l 1
 431 463 l 2
 521 522 572 557 578 561 c 1
 578 562 l 1
 579 562 l 1
 589 570 594 579 594 587 c 0xfff6
 594 592 592 597 587 601 c 0
 580 606 569 610 558 610 c 0
 545 610 532 606 522 599 c 2
 522 599 466 561 361 494 c 0
 354 489 347 483 338 478 c 2
 334 475 l 1
 329 477 l 2
 224 516 185 573 185 625 c 0
 185 632 186 638 187 645 c 0
 200 708 264 751 332 751 c 0
 410 751 465 715 500 673 c 0
 506 667 518 661 533 661 c 0
 543 661 552 663 561 667 c 0
 576 675 584 687 584 696 c 0
 584 700 583 704 580 707 c 0
 542 756 468 809 348 809 c 0
 218 809 117 726 100 641 c 0
 98 632 97 622 97 613 c 0
 97 550 141 484 246 437 c 2
335 402 m 1
 337 404 l 1
 340 404 l 2
 344 404 345 403 346 403 c 2
 347 403 l 1
 348 403 l 1
 496 366 559 280 559 200 c 0
 559 172 552 144 536 121 c 0
 506 76 454 44 368 44 c 0
 251 44 174 121 174 200 c 0
 174 289 236 338 335 402 c 1
EndSplineSet
EndChar

StartChar: nine
Encoding: 57 57 29
Width: 720
GlyphClass: 2
Flags: MW
HStem: -29 10<286 298.5 286 299.5> 324 10<214 327 214 328> 393 10<268.5 334.5 268.5 335.5> 539 10<630 634 620 620> 751 10<288 389.5> 819 10<265.5 442>
VStem: 52 10<505 568.5 505 569> 150 10<526 578.5 526 578.5> 246 10<1.5 8.5 1.5 10> 521 10<482 494> 620 10<539 549 549 549> 678 10<515 520>
LayerCount: 2
Back
Fore
SplineSet
675 538 m 0
 684 533 688 526 688 518 c 0
 688 507 680 496 668 486 c 0
 658 478 648 470 638 463 c 0
 634 460 629 457 625 454 c 0
 624 447 622 439 621 432 c 0
 593 286 504 123 339 -13 c 0
 326 -23 308 -29 291 -29 c 0
 280 -29 270 -27 262 -22 c 0
 251 -15 246 -5 246 5 c 0
 246 15 251 25 261 33 c 0
 387 137 466 261 501 377 c 1
 429 342 359 324 297 324 c 0
 125 324 52 446 52 560 c 0
 52 578 54 595 57 612 c 0
 78 715 173 829 353 829 c 0
 537 829 623 697 630 549 c 1
 634 549 l 2
 648 549 665 544 675 538 c 0
521 482 m 1
 521 494 l 2
 521 501 522 508 522 515 c 0
 522 663 442 751 337 751 c 0
 239 751 181 697 164 613 c 0
 161 599 160 585 160 572 c 0
 160 480 224 403 313 403 c 0
 356 403 417 418 499 468 c 0
 506 472 514 477 521 482 c 1
670 529 m 0
 662 534 646 539 634 539 c 2
 620 539 l 1
 620 549 l 1
 613 693 531 819 353 819 c 0
 178 819 87 709 67 610 c 0
 64 594 62 577 62 560 c 0
 62 450 131 334 297 334 c 0
 357 334 426 352 497 386 c 2
 517 396 l 1
 511 374 l 2
 475 256 395 131 267 25 c 0
 259 19 256 12 256 5 c 0
 256 -2 259 -8 267 -14 c 0
 273 -17 281 -19 291 -19 c 0
 306 -19 322 -13 333 -5 c 0
 496 129 584 291 611 434 c 0
 612 441 614 449 615 455 c 2
 616 460 l 1
 619 462 l 2
 624 466 628 468 632 471 c 0
 642 478 652 486 662 494 c 0
 673 503 678 512 678 518 c 0
 678 522 677 526 670 529 c 0
531 477 m 1
 527 474 l 2
 520 469 511 463 504 459 c 0
 421 409 358 393 313 393 c 0
 218 393 150 476 150 572 c 0
 150 585 151 600 154 615 c 0
 172 703 235 761 337 761 c 0
 449 761 532 667 532 515 c 0
 532 507 531 500 531 494 c 2
 531 477 l 1
EndSplineSet
EndChar

StartChar: colon
Encoding: 58 58 30
Width: 330
GlyphClass: 2
Flags: MW
HStem: -5 10<132.5 180 132.5 182.5> 122 10<142 177.5> 475 10<132.5 180 132.5 182.5> 602 10<142 177.5>
VStem: 81 10<44 65 44 67.5 524 545> 239 10<69 80.5 549 560.5>
LayerCount: 2
Back
Fore
SplineSet
231 592 m 0
 233 590 249 575 249 551 c 0
 249 547 249 542 248 538 c 0
 243 512 210 475 155 475 c 0
 105 475 81 506 81 536 c 0
 81 559 103 612 175 612 c 0
 181 612 187 611 191 610 c 2
 207 606 l 2
 217 603 226 598 231 592 c 0
224 585 m 2
 223 586 l 2
 220 589 213 594 204 596 c 1
 205 596 206 596 205 596 c 2
 189 600 l 2
 185 601 180 602 175 602 c 0
 109 602 91 554 91 536 c 0
 91 512 110 485 155 485 c 0
 205 485 234 519 238 540 c 1
 238 540 l 1
 238 540 l 1
 239 543 239 547 239 551 c 0
 239 570 226 583 224 585 c 2
231 112 m 0
 233 110 249 95 249 71 c 0
 249 67 249 62 248 58 c 0
 243 32 210 -5 155 -5 c 0
 105 -5 81 26 81 56 c 0
 81 79 103 132 175 132 c 0
 181 132 187 131 191 130 c 2
 207 126 l 2
 217 123 226 118 231 112 c 0
224 105 m 2
 223 106 l 2
 220 109 213 114 204 116 c 1
 205 116 206 116 205 116 c 2
 189 120 l 2
 185 121 180 122 175 122 c 0
 109 122 91 74 91 56 c 0
 91 32 110 5 155 5 c 0
 205 5 234 39 238 60 c 1
 238 60 l 1
 238 60 l 1
 239 63 239 67 239 71 c 0
 239 90 226 103 224 105 c 2
EndSplineSet
EndChar

StartChar: semicolon
Encoding: 59 59 31
Width: 330
GlyphClass: 2
Flags: MW
HStem: -182 10<93 103 93 103.5> 48 10<97 106.5 97 107.5> 117 10<153 168 163 168> 475 10<132.5 180 132.5 182.5> 602 10<142 177.5>
VStem: 61 10<-156 -151.5 -156 -149> 81 10<524 545> 170 10<-13.5 18.5> 239 10<549 560.5> 251 10<-15.5 29.5>
LayerCount: 2
Back
Fore
SplineSet
231 592 m 0
 233 590 249 575 249 551 c 0
 249 547 249 542 248 538 c 0
 243 512 210 475 155 475 c 0
 105 475 81 506 81 536 c 0
 81 559 103 612 175 612 c 0
 181 612 187 611 191 610 c 2
 207 606 l 2
 217 603 226 598 231 592 c 0
224 585 m 2
 223 586 l 2
 220 589 213 594 204 596 c 1
 205 596 206 596 205 596 c 2
 189 600 l 2
 185 601 180 602 175 602 c 0
 109 602 91 554 91 536 c 0
 91 512 110 485 155 485 c 0
 205 485 234 519 238 540 c 1
 238 540 l 1
 238 540 l 1
 239 543 239 547 239 551 c 0
 239 570 226 583 224 585 c 2
73 58 m 0
 68 63 65 69 65 75 c 0
 65 85 72 95 85 103 c 0
 89 106 93 109 98 111 c 0
 117 121 141 127 163 127 c 2
 168 127 l 2
 201 125 223 110 236 94 c 0
 252 74 261 46 261 15 c 0
 261 -50 222 -129 126 -176 c 0
 118 -180 108 -182 99 -182 c 0
 85 -182 73 -177 66 -169 c 0
 63 -165 61 -160 61 -155 c 0
 61 -143 69 -131 84 -124 c 0
 144 -94 170 -36 170 9 c 0
 170 28 165 45 157 55 c 0
 152 61 148 62 148 62 c 1
 148 62 144 62 135 57 c 0
 125 51 113 48 102 48 c 0
 90 48 80 51 73 58 c 0
80 65 m 0
 85 61 92 58 102 58 c 0
 111 58 121 61 130 66 c 0
 140 71 145 72 147 72 c 2
 147 72 -85 62 149 72 c 1
 150 72 l 2
 152 71 158 69 165 61 c 0
 175 49 180 30 180 9 c 0
 180 -40 152 -101 88 -133 c 0
 76 -139 71 -148 71 -155 c 0
 71 -157 72 -160 74 -163 c 0
 78 -167 87 -172 99 -172 c 0
 107 -172 115 -170 122 -167 c 0
 215 -122 251 -46 251 15 c 0
 251 44 242 70 228 88 c 0
 217 102 199 115 168 117 c 2
 163 117 l 2
 143 117 120 111 103 102 c 1
 102 102 l 1
 102 102 l 1
 98 100 95 98 91 95 c 1
 91 95 l 1
 90 94 l 2
 79 87 75 80 75 75 c 0
 75 72 76 69 80 65 c 0
EndSplineSet
EndChar

StartChar: less
Encoding: 60 60 32
Width: 600
GlyphClass: 2
Flags: MW
HStem: 65 10<473.5 485 473.5 486> 606 10<476 486.5>
VStem: 63 10<334 339 334 341.5> 514 10<583 588> 524 10<103 108.5>
LayerCount: 2
Back
Fore
SplineSet
521 80 m 0xe8
 510 70 494 65 478 65 c 0
 468 65 459 67 451 71 c 0
 368 118 195 229 78 313 c 0
 72 317 63 326 63 337 c 0
 63 346 69 356 89 367 c 0
 196 426 356 540 443 603 c 0
 454 611 468 616 482 616 c 0
 493 616 504 613 512 607 c 0
 520 601 524 594 524 586 c 0xf0
 524 576 518 565 507 557 c 0
 430 501 301 407 190 341 c 1
 301 264 449 169 519 129 c 0
 529 123 534 115 534 106 c 0
 534 97 530 88 521 80 c 0xe8
514 87 m 0
 522 94 524 100 524 106 c 0xe8
 524 111 522 116 514 120 c 0
 444 161 296 256 184 333 c 1
 172 342 l 1
 185 350 l 2
 295 415 424 509 501 565 c 0
 510 572 514 580 514 586 c 0
 514 590 512 594 506 599 c 0
 500 603 491 606 482 606 c 0
 470 606 458 602 449 595 c 0
 362 532 202 418 94 358 c 0
 75 348 73 341 73 337 c 0
 73 331 79 325 84 321 c 0
 201 237 372 127 456 80 c 0
 462 77 469 75 478 75 c 0
 492 75 506 79 514 87 c 0
EndSplineSet
EndChar

StartChar: equal
Encoding: 61 61 33
Width: 600
GlyphClass: 2
Flags: MW
HStem: 201 10<282 345.5> 263 10<298 359.5> 271 10<122 138 133 138> 401 10<282 345.5> 463 10<298 359.5> 471 10<122 138 133 138>
VStem: 75 10<235.5 240.5 235.5 241.5 435.5 440.5> 514 10<243 246 242 250.5 443 446>
LayerCount: 2
Back
Fore
SplineSet
77 249 m 0xd3
 84 267 108 281 133 281 c 2
 138 281 l 1xb3
 191 276 259 273 337 273 c 0
 382 273 430 274 480 276 c 2
 482 276 l 2
 506 276 524 263 524 246 c 2
 524 242 l 2
 521 223 497 205 470 204 c 0
 418 202 369 201 322 201 c 0
 242 201 170 204 112 209 c 0
 90 211 75 224 75 240 c 0
 75 243 76 246 77 249 c 0xd3
77 449 m 0
 84 467 108 481 133 481 c 2
 138 481 l 1x97
 191 476 259 473 337 473 c 0x9b
 382 473 430 474 480 476 c 2
 482 476 l 2
 506 476 524 463 524 446 c 2
 524 442 l 2
 521 423 497 405 470 404 c 0
 418 402 369 401 322 401 c 0
 242 401 170 404 112 409 c 0
 90 411 75 424 75 440 c 0
 75 443 76 446 77 449 c 0
86 246 m 0
 86 243 85 241 85 240 c 0
 85 231 94 221 113 219 c 0
 170 214 242 211 322 211 c 0
 369 211 418 212 470 214 c 0
 493 215 511 230 514 243 c 2
 514 246 l 2
 514 255 503 266 482 266 c 2
 480 266 l 2
 431 264 382 263 337 263 c 0xd3
 259 263 192 266 138 271 c 1
 133 271 l 2xb3
 111 271 91 258 86 246 c 0
86 446 m 0
 86 443 85 441 85 440 c 0
 85 431 94 421 113 419 c 0
 170 414 242 411 322 411 c 0
 369 411 418 412 470 414 c 0
 493 415 511 430 514 443 c 2
 514 446 l 2
 514 455 503 466 482 466 c 2
 480 466 l 2
 431 464 382 463 337 463 c 0x9b
 259 463 192 466 138 471 c 1
 133 471 l 2x97
 111 471 91 458 86 446 c 0
EndSplineSet
EndChar

StartChar: greater
Encoding: 62 62 34
Width: 600
GlyphClass: 2
Flags: MW
HStem: 64 10<113.5 124 113.5 125> 605 10<115 126.5>
VStem: 66 10<571.5 577> 76 10<92 97 92 99> 527 10<341 346>
LayerCount: 2
Back
Fore
SplineSet
79 600 m 0xe8
 90 610 106 615 122 615 c 0
 132 615 141 613 149 609 c 0
 232 562 405 451 522 367 c 0
 528 363 537 354 537 343 c 0
 537 334 531 324 511 313 c 0
 404 254 244 140 157 77 c 0
 146 69 132 64 118 64 c 0
 107 64 96 67 88 73 c 0
 80 79 76 86 76 94 c 0xd8
 76 104 82 115 93 123 c 0
 170 179 299 273 410 339 c 1
 299 416 151 511 81 551 c 0
 71 557 66 565 66 574 c 0
 66 583 70 592 79 600 c 0xe8
86 593 m 0
 78 586 76 580 76 574 c 0xe8
 76 569 78 564 86 560 c 0
 156 519 304 424 416 347 c 1
 428 338 l 1
 415 330 l 2
 305 265 176 171 99 115 c 0
 90 108 86 100 86 94 c 0
 86 90 88 86 94 81 c 0
 100 77 109 74 118 74 c 0
 130 74 142 78 151 85 c 0
 238 148 398 262 506 322 c 0
 525 332 527 339 527 343 c 0
 527 349 521 355 516 359 c 0
 399 443 228 553 144 600 c 0
 138 603 131 605 122 605 c 0
 108 605 94 601 86 593 c 0
EndSplineSet
EndChar

StartChar: question
Encoding: 63 63 35
Width: 480
GlyphClass: 2
Flags: MW
HStem: -5 10<203.5 251 203.5 253.5> 122 10<213 248.5> 255 10<203.5 211.5 203.5 212> 594 10<66.5 77 66.5 78> 784 10<219 250.5> 846 10<224.5 279.5>
VStem: 11 10<677.5 718 677.5 721> 98 10<694.5 720 694.5 723> 120 10<631 635.5> 152 10<44 65 44 67.5> 161 10<340.5 417 340.5 421.5> 241 10<346.5 410 346.5 416> 254 10<290.5 295.5> 310 10<69 80.5> 351 10<612 679> 439 10<593 692>
LayerCount: 2
Back
Fore
SplineSet
229 258 m 0xffbf
 222 256 215 255 209 255 c 0
 194 255 184 262 178 275 c 0
 166 303 161 328 161 351 c 0
 161 492 351 559 351 665 c 0
 351 693 344 715 334 732 c 0
 312 769 271 784 230 784 c 0
 208 784 187 780 168 773 c 0
 137 760 108 738 108 702 c 0
 108 687 114 669 126 648 c 0
 128 644 130 639 130 635 c 0
 130 621 118 607 99 599 c 0
 91 596 82 594 74 594 c 0
 57 594 41 601 34 612 c 0
 18 638 11 664 11 689 c 0
 11 753 60 807 131 835 c 0
 166 849 205 856 243 856 c 0
 318 856 390 828 426 768 c 0
 441 742 449 711 449 675 c 0
 449 503 251 466 251 354 c 0
 251 339 254 323 262 305 c 0
 263 302 264 298 264 295 c 0
 264 280 250 265 229 258 c 0xffbf
226 268 m 0
 245 274 254 286 254 295 c 0
 254 296 254 298 253 301 c 0
 245 320 241 338 241 354 c 0
 241 478 439 511 439 675 c 0
 439 709 431 739 417 763 c 0
 384 819 316 846 243 846 c 0
 206 846 168 839 135 826 c 0
 66 799 21 747 21 689 c 0
 21 666 27 642 42 617 c 0
 47 610 59 604 74 604 c 0
 80 604 89 606 95 608 c 0
 112 615 120 627 120 635 c 0
 120 636 119 640 117 643 c 0
 105 665 98 684 98 702 c 0
 98 744 132 769 164 782 c 0
 185 790 207 794 230 794 c 0
 273 794 318 778 343 737 c 0
 354 719 361 695 361 665 c 0
 361 548 171 483 171 351 c 0
 171 330 176 306 187 279 c 0
 192 269 198 265 209 265 c 0
 214 265 220 266 226 268 c 0
302 112 m 0xc044
 304 110 320 95 320 71 c 0
 320 67 320 62 319 58 c 0
 314 32 281 -5 226 -5 c 0
 176 -5 152 26 152 56 c 0
 152 79 174 132 246 132 c 0
 252 132 258 131 262 130 c 2
 278 126 l 2
 288 123 297 118 302 112 c 0xc044
295 105 m 2
 294 106 l 2
 291 109 284 114 275 116 c 1
 276 116 277 116 276 116 c 2
 260 120 l 2
 256 121 251 122 246 122 c 0
 180 122 162 74 162 56 c 0
 162 32 181 5 226 5 c 0
 276 5 305 39 309 60 c 1
 309 60 l 1
 309 60 l 1
 310 63 310 67 310 71 c 0
 310 90 297 103 295 105 c 2
EndSplineSet
EndChar

StartChar: at
Encoding: 64 64 36
Width: 1020
GlyphClass: 2
Flags: MW
HStem: -179 10<349 542 349 543.5> -131 10<388 539.5 388 541> -76 10<698 706.5> 38 10<404 501 404 504> 92 10<450.5 502 450.5 507.5> 352 10<634 647.5> 399 10<649.5 666 660 666 660 667> 490 10<531.5 586> 544 10<503.5 639> 711 10<452 596.5> 759 10<430.5 619.5>
VStem: 74 10<132 253 132 253.5> 143 10<145 259 145 259.5> 293 10<177 233 177 233.5> 372 10<194 242.5 194 243> 622 10<422.5 436> 670 10<183 235.5> 702 10<431.5 445> 726 10<-92 -89.5> 865 10<336 439> 935 10<335.5 450>
LayerCount: 2
Back
Fore
SplineSet
690 345 m 1
 685 301 680 251 680 220 c 0
 680 146 692 107 705 99 c 0
 707 100 712 102 719 106 c 0
 814 165 865 279 865 393 c 0
 865 485 832 576 762 638 c 0
 710 684 641 711 552 711 c 0
 352 711 205 547 164 346 c 0
 157 311 153 276 153 242 c 0
 153 48 268 -121 508 -121 c 0
 571 -121 650 -88 674 -74 c 0
 683 -69 692 -66 702 -66 c 0
 713 -66 723 -69 729 -75 c 0
 733 -79 736 -85 736 -90 c 0
 736 -99 729 -109 718 -116 c 0
 682 -138 591 -179 496 -179 c 0
 196 -179 74 25 74 235 c 0
 74 272 78 310 85 346 c 0
 127 553 291 769 564 769 c 0
 677 769 765 733 826 678 c 0
 905 607 945 504 945 398 c 0
 945 270 886 139 765 64 c 0
 746 52 723 43 698 41 c 2
 692 41 l 2
 640 41 620 90 615 159 c 1
 587 93 543 38 465 38 c 0
 336 38 293 129 293 222 c 0
 293 245 295 268 300 290 c 0
 324 405 415 554 585 554 c 0
 701 554 712 456 712 436 c 0
 712 419 691 402 667 399 c 2
 660 399 l 2
 639 399 622 411 622 426 c 0
 622 446 601 490 571 490 c 0
 492 490 411 405 388 290 c 0
 384 270 382 251 382 234 c 0
 382 154 422 102 479 102 c 0
 525 102 570 196 603 331 c 0
 607 348 620 362 643 362 c 0
 661 362 690 345 690 345 c 1
679 339 m 1
 671 344 652 352 643 352 c 0
 625 352 616 342 613 329 c 0
 580 196 536 92 479 92 c 0
 414 92 372 151 372 234 c 0
 372 252 374 271 378 292 c 0
 402 410 485 500 571 500 c 0
 610 500 632 449 632 426 c 0
 632 419 642 409 660 409 c 2
 666 409 l 2
 687 412 702 427 702 436 c 0
 702 454 693 544 585 544 c 0
 422 544 333 401 310 288 c 0
 305 267 303 244 303 222 c 0
 303 132 343 48 465 48 c 0
 537 48 578 98 606 163 c 2
 622 201 l 1
 625 160 l 2
 630 91 649 51 692 51 c 2
 698 51 l 2
 720 53 742 61 760 72 c 0
 877 145 935 273 935 398 c 0
 935 502 896 602 819 671 c 0
 760 724 675 759 564 759 c 0
 297 759 136 548 95 344 c 0
 88 309 84 271 84 235 c 0
 84 29 202 -169 496 -169 c 0
 588 -169 678 -129 713 -108 c 0
 722 -102 726 -94 726 -90 c 0
 726 -89 724 -85 722 -82 c 0
 719 -79 711 -76 702 -76 c 0
 694 -76 687 -78 679 -83 c 0
 654 -97 574 -131 508 -131 c 0
 262 -131 143 44 143 242 c 0
 143 277 147 312 154 348 c 0
 196 552 346 721 552 721 c 0
 643 721 715 693 769 645 c 0
 841 581 875 487 875 393 c 0
 875 276 823 159 724 97 c 0
 716 93 711 91 709 90 c 2
 709 90 704 88 704 88 c 1
 704 88 700 90 700 90 c 2
 680 103 670 146 670 220 c 0
 670 251 674 295 679 339 c 1
EndSplineSet
EndChar

StartChar: A
Encoding: 65 65 37
Width: 810
GlyphClass: 2
Flags: MW
HStem: -16 10<79 91 79 92.5> 3 10<707.5 730 707.5 730.5> 179 10<66 78 66 78> 209 10<454.5 556> 271 10<472 514.5> 810 10<400.5 417.5>
VStem: 33 10<208 209 208 209 208 218> 39 10<10 16 10 16.5> 763 10<32.5 42>
LayerCount: 2
Back
Fore
SplineSet
232 196 m 1xfe80
 199 124 167 60 137 11 c 0
 128 -5 104 -16 81 -16 c 0
 77 -16 73 -16 69 -15 c 0
 50 -11 39 0 39 14 c 0xfd80
 39 19 40 24 43 29 c 0
 67 69 95 124 124 185 c 1
 111 183 98 182 88 180 c 0
 84 179 80 179 76 179 c 0
 53 179 35 191 33 207 c 2
 33 209 l 2
 33 227 55 245 82 250 c 0
 103 253 129 257 158 260 c 1
 239 444 321 662 360 774 c 0
 362 779 364 784 365 788 c 0
 373 812 390 820 408 820 c 0
 435 820 464 802 464 802 c 1
 609 532 730 186 767 64 c 0
 768 60 770 57 771 53 c 0
 772 49 773 45 773 41 c 0
 773 15 744 3 717 3 c 0
 697 3 677 10 670 24 c 0
 624 119 631 209 481 209 c 0
 428 209 324 204 232 196 c 1xfe80
265 269 m 1
 353 276 444 281 499 281 c 0
 531 281 561 277 585 272 c 1
 541 389 483 529 421 659 c 1
 379 547 323 401 265 269 c 1
223 200 m 2
 225 205 l 1
 231 206 l 1
 323 214 427 219 481 219 c 0
 638 219 635 119 679 28 c 0
 683 20 698 13 717 13 c 0
 743 13 763 24 763 41 c 0
 763 43 762 47 761 51 c 0
 761 52 759 56 757 61 c 0
 721 182 601 525 457 795 c 1
 450 798 427 810 408 810 c 0
 393 810 382 805 375 785 c 0
 373 781 371 775 369 771 c 0
 330 658 248 440 167 256 c 1
 165 251 l 1
 159 250 l 2
 130 247 104 243 84 240 c 0
 59 236 43 219 43 209 c 2
 43 208 l 2xfe80
 45 199 56 189 76 189 c 0
 80 189 83 189 86 190 c 1
 86 190 l 1
 86 190 l 1
 97 192 110 193 122 195 c 2
 141 198 l 1
 133 181 l 2
 104 120 76 64 52 24 c 0
 50 21 49 18 49 14 c 0
 49 6 54 -2 71 -5 c 0
 74 -6 77 -6 81 -6 c 0
 101 -6 122 4 128 16 c 0
 158 65 190 128 223 200 c 2
266 259 m 2
 249 258 l 1
 256 273 l 2
 314 405 370 551 412 663 c 2
 420 685 l 1
 430 663 l 2
 492 533 550 393 594 276 c 2
 601 259 l 1
 583 262 l 2
 560 267 530 271 499 271 c 0
 445 271 354 266 266 259 c 2
EndSplineSet
EndChar

StartChar: B
Encoding: 66 66 38
Width: 800
GlyphClass: 2
Flags: MW
HStem: -22 10<262.5 312.5 262.5 313> 49 10<300.5 362.5 300.5 363> 395 10<476.5 525.5> 634 10<175 188> 661 10<62.5 75 62.5 75.5> 742 10<341.5 411.5> 809 10<347 426>
VStem: 26 10<691.5 699 691.5 701.5> 116 10<597 600 597 600 597 610> 121 10<50 82 50 82> 223 10<353 383 421 422> 537 10<597 633> 636 10<265 268.5 607.5 659.5> 735 10<289 342.5>
LayerCount: 2
Back
Fore
SplineSet
233 353 m 2xff3c
 232 239 229 126 229 72 c 1
 245 64 279 59 322 59 c 0
 403 59 514 79 577 139 c 0
 607 168 631 208 636 266 c 0
 636 271 637 276 637 281 c 0
 637 369 569 395 482 395 c 0
 471 395 460 395 449 394 c 0
 430 393 410 390 391 387 c 0
 352 373 309 360 266 352 c 1
 266 352 246 366 233 383 c 1
 233 353 l 2xff3c
233 421 m 1
 239 424 l 2
 245 427 251 429 258 431 c 0
 290 443 327 453 366 461 c 1
 393 471 418 481 441 492 c 0
 503 520 537 572 537 622 c 0
 537 644 530 666 516 685 c 0
 494 716 449 742 374 742 c 0
 309 742 221 722 104 668 c 0
 93 663 81 661 70 661 c 0
 53 661 39 666 31 677 c 0
 27 682 26 688 26 694 c 0
 26 709 37 723 56 732 c 0
 187 792 300 819 392 819 c 0
 461 819 519 804 562 777 c 0
 618 742 646 689 646 634 c 0
 646 577 616 517 558 470 c 1
 661 456 745 400 745 292 c 0
 745 286 745 280 744 274 c 0
 729 83 536 0 380 -17 c 0
 353 -20 326 -22 300 -22 c 0
 225 -22 157 -8 130 27 c 0
 124 34 121 44 121 54 c 0xff7c
 121 110 125 247 125 376 c 0
 125 463 123 547 116 596 c 1
 116 600 l 2xffbc
 116 620 138 638 165 643 c 0
 169 644 173 644 177 644 c 0
 201 644 221 632 224 614 c 0
 230 567 232 497 233 422 c 2
 233 421 l 1
223 353 m 2
 223 413 l 1
 241 389 l 2
 250 378 262 367 268 363 c 1
 309 370 350 383 388 396 c 1
 389 397 l 1
 389 397 l 1
 408 400 429 403 448 404 c 0
 459 405 471 405 482 405 c 0
 570 405 647 377 647 281 c 0
 647 275 646 270 646 266 c 1
 646 266 l 1
 646 265 l 1
 641 205 615 162 584 132 c 0
 518 69 404 49 322 49 c 0
 278 49 244 54 225 63 c 2
 219 66 l 1
 219 72 l 2
 219 126 222 239 223 353 c 2
223 405 m 1
 223 422 l 2
 222 497 220 565 214 613 c 0
 212 623 199 634 177 634 c 0
 173 634 170 634 167 633 c 1
 167 633 l 1
 167 633 l 1
 142 629 126 612 126 600 c 2
 126 597 l 1xffbc
 133 548 135 463 135 376 c 0
 135 247 131 110 131 54 c 0
 131 46 134 38 138 34 c 1
 138 33 l 1
 138 33 l 1
 161 3 225 -12 300 -12 c 0
 325 -12 352 -10 379 -7 c 0
 534 10 720 92 734 275 c 1
 734 275 l 1
 734 276 l 2
 735 281 735 286 735 292 c 0
 735 393 657 446 557 460 c 2
 534 463 l 1
 552 478 l 2
 608 523 636 581 636 634 c 0
 636 685 610 735 557 769 c 0
 516 794 460 809 392 809 c 0
 302 809 190 782 60 723 c 0
 43 715 36 704 36 694 c 0
 36 689 37 686 39 683 c 1
 39 683 l 1
 39 683 l 1
 44 675 55 671 70 671 c 0
 80 671 90 673 100 677 c 0
 218 731 307 752 374 752 c 0
 451 752 500 725 524 691 c 0
 539 670 547 646 547 622 c 0
 547 567 510 512 445 483 c 0
 422 472 397 462 369 452 c 1
 369 451 l 1
 368 451 l 1
 329 443 293 433 262 422 c 1
 261 421 l 1
 261 421 l 1
 254 419 249 418 243 415 c 2
 223 405 l 1
EndSplineSet
EndChar

StartChar: C
Encoding: 67 67 39
Width: 750
GlyphClass: 2
Flags: MW
HStem: -20 10<324 420.5 324 420.5> 52 10<378.5 436 378.5 436> 169 10<658.5 672.5> 586 10<604.5 626 618 626> 739 10<425.5 465> 811 10<439 509>
VStem: 68 10<250.5 517 250.5 519> 172 10<268 523.5 268 525.5> 569 10<614.5 659.5> 673 10<625 685.5> 707 10<144 149.5>
LayerCount: 2
Back
Fore
SplineSet
684 178 m 0
 705 174 717 160 717 145 c 0
 717 140 715 134 712 128 c 0
 664 50 565 -6 457 -18 c 0
 442 -20 428 -20 413 -20 c 0
 229 -20 68 109 68 387 c 0
 68 651 225 799 407 819 c 0
 420 820 432 821 445 821 c 0
 576 821 683 747 683 632 c 0
 683 610 657 589 626 586 c 2
 618 586 l 2
 591 586 569 600 569 620 c 0
 569 699 501 739 429 739 c 0
 422 739 414 739 407 738 c 0
 320 729 182 648 182 399 c 0
 182 137 325 62 432 62 c 0
 440 62 449 62 457 63 c 0
 520 70 578 101 608 150 c 0
 619 168 645 179 670 179 c 0
 675 179 679 179 684 178 c 0
682 168 m 0
 678 169 675 169 670 169 c 0
 647 169 625 159 617 145 c 0
 584 92 523 60 458 53 c 0
 449 52 440 52 432 52 c 0
 320 52 172 132 172 399 c 0
 172 652 314 738 406 748 c 0
 413 749 422 749 429 749 c 0
 504 749 579 706 579 620 c 0
 579 609 593 596 618 596 c 2
 626 596 l 2
 653 599 673 618 673 632 c 0
 673 739 573 811 445 811 c 0
 433 811 421 810 408 809 c 0
 231 790 78 647 78 387 c 0
 78 114 235 -10 413 -10 c 0
 428 -10 441 -10 456 -8 c 0
 561 4 657 58 703 133 c 0
 705 137 707 143 707 145 c 0
 707 154 700 165 682 168 c 0
EndSplineSet
EndChar

StartChar: D
Encoding: 68 68 40
Width: 810
GlyphClass: 2
Flags: MW
HStem: -21 10<270.5 322.5> 49 10<307.5 359.5 307.5 360> 634 10<175 188> 661 10<67 79 67 80> 742 10<350 425.5> 810 10<360.5 466.5>
VStem: 26 10<691.5 698 691.5 700.5> 116 10<597 600 597 600 597 610> 121 10<61 91 61 91> 223 10<326.5 431.5> 630 10<318 412> 729 10<270.5 424.5>
LayerCount: 2
Back
Fore
SplineSet
34 675 m 0xff70
 28 681 26 687 26 694 c 0
 26 707 35 721 51 730 c 0
 125 771 206 800 287 813 c 0
 317 818 346 820 375 820 c 0
 562 820 711 717 734 494 c 0
 737 465 739 438 739 412 c 0
 739 123 550 1 370 -18 c 0
 351 -20 332 -21 313 -21 c 0
 228 -21 151 -1 127 42 c 0
 123 48 121 56 121 64 c 0xfef0
 121 118 125 247 125 369 c 0
 125 458 123 544 116 596 c 1
 116 600 l 2
 116 620 138 638 165 643 c 0
 169 644 173 644 177 644 c 0
 201 644 221 632 224 614 c 0
 231 560 233 475 233 388 c 0
 233 265 229 137 229 80 c 1
 241 70 282 59 333 59 c 0
 386 59 449 70 502 106 c 0
 568 150 630 236 630 400 c 0
 630 424 629 449 626 476 c 0
 605 673 490 742 361 742 c 0
 339 742 317 740 295 736 c 0
 235 726 170 704 109 670 c 0
 98 664 86 661 74 661 c 0
 58 661 43 666 34 675 c 0xff70
42 681 m 0
 49 675 60 671 74 671 c 0
 84 671 95 674 104 679 c 0
 166 713 232 736 293 746 c 0
 316 750 338 752 361 752 c 0
 494 752 614 679 636 477 c 0
 639 450 640 424 640 400 c 0
 640 233 576 144 508 98 c 0
 452 60 387 49 333 49 c 0
 281 49 239 59 223 72 c 2
 219 75 l 1
 219 80 l 2
 219 137 223 265 223 388 c 0
 223 475 221 558 214 613 c 0
 212 623 199 634 177 634 c 0
 173 634 170 634 167 633 c 1
 167 633 l 1
 167 633 l 1
 142 629 126 612 126 600 c 2
 126 597 l 1xff70
 133 545 135 458 135 369 c 0
 135 247 131 118 131 64 c 0
 131 58 133 51 135 48 c 2
 136 47 l 1
 136 47 l 1
 156 10 228 -11 313 -11 c 0
 332 -11 350 -10 369 -8 c 0
 545 11 729 129 729 412 c 0
 729 437 727 464 724 493 c 0
 702 711 558 810 375 810 c 0
 346 810 318 808 289 803 c 0
 209 790 129 762 56 721 c 0
 42 714 36 702 36 694 c 0
 36 689 37 686 42 681 c 0
EndSplineSet
EndChar

StartChar: E
Encoding: 69 69 41
Width: 740
GlyphClass: 2
Flags: MW
HStem: -24 10<260.5 368 259.5 368.5> -9 10<625 625> 46 10<290.5 364.5 289 365> 59 10<635 638 635 638> 361 10<108 110> 423 10<313 357.5> 726 10<313 396.5> 794 10<303 402> 799 10<98 111 109 111 109 111> 804 10<600 608 600 608>
VStem: 66 10<389.5 395 395 396.5> 106 10<86 96> 121 10<430 454 617 634> 204 10<101 104 84 105 84 105> 220 10<519.5 554.5> 564 10<404 406 403 411.5> 644 10<774.5 786.5> 674 10<33 36 32 41.5>
LayerCount: 2
Back
Fore
SplineSet
684 32 m 2xfe7fc0
 681 11 655 -8 625 -9 c 0
 523 -13 414 -24 323 -24 c 0
 198 -24 106 -3 106 86 c 2
 106 96 l 1
 111 173 116 261 119 360 c 1
 115 360 112 361 108 361 c 0
 83 362 66 377 66 395 c 0
 66 398 66 400 67 403 c 0
 72 422 96 437 121 439 c 1
 121 469 122 502 122 534 c 0
 122 566 121 600 121 634 c 0
 120 703 109 719 86 729 c 0
 83 730 78 732 73 733 c 1
 73 733 72 742 72 754 c 0
 72 777 77 809 109 809 c 2
 111 809 l 1xfebfc0
 196 805 271 804 335 804 c 0xff3fc0
 469 804 557 810 600 814 c 1
 608 814 l 2
 634 814 654 800 654 781 c 0
 654 760 630 739 600 736 c 0
 551 731 463 726 330 726 c 0
 296 726 259 726 219 727 c 1
 226 705 229 677 229 646 c 0
 229 608 230 572 230 537 c 0
 230 502 229 468 229 435 c 1
 265 434 297 433 329 433 c 0
 386 433 443 435 524 439 c 1
 527 439 l 2
 554 439 574 425 574 406 c 2
 574 403 l 2
 572 382 546 362 516 361 c 0
 433 357 372 355 311 355 c 0
 284 355 256 355 227 356 c 1
 224 262 219 179 214 104 c 1
 214 101 l 2
 214 67 247 56 331 56 c 0
 398 56 496 63 635 69 c 1
 638 69 l 2
 665 69 684 55 684 36 c 2
 684 32 l 2xfe7fc0
674 33 m 2
 674 36 l 2
 674 47 662 59 638 59 c 2
 635 59 l 1
 497 53 399 46 331 46 c 0
 250 46 204 56 204 101 c 2
 204 104 l 1
 204 105 l 1
 209 180 214 262 217 356 c 2
 217 366 l 1
 227 366 l 2
 256 365 284 365 311 365 c 0
 372 365 432 367 516 371 c 0
 542 372 562 390 564 404 c 2
 564 406 l 2
 564 417 552 429 527 429 c 2
 524 429 l 1
 525 429 525 429 524 429 c 1
 443 425 386 423 329 423 c 0
 297 423 265 424 229 425 c 2
 219 425 l 1
 219 435 l 2
 219 468 220 502 220 537 c 0
 220 572 219 608 219 646 c 0
 219 676 216 703 209 724 c 2
 205 737 l 1
 219 737 l 2
 259 736 296 736 330 736 c 0
 463 736 550 741 599 746 c 0
 626 749 644 768 644 781 c 0
 644 792 631 804 608 804 c 2
 600 804 l 1xfe7fc0
 558 800 469 794 335 794 c 0xff3fc0
 271 794 196 795 111 799 c 1
 112 799 112 799 111 799 c 1
 109 799 l 2
 87 799 82 778 82 754 c 2
 82 741 l 2
 84 740 88 739 89 738 c 2
 90 738 l 1
 90 738 l 1
 118 726 130 704 131 634 c 0
 131 600 132 566 132 534 c 0
 132 502 131 469 131 439 c 2
 131 430 l 1
 122 429 l 2
 99 427 80 413 77 400 c 1
 77 400 l 1
 76 400 l 1
 76 395 l 2
 76 384 87 372 108 371 c 0
 114 371 117 370 119 370 c 2
 129 370 l 1
 129 360 l 2
 126 261 121 174 116 96 c 1
 116 86 l 2
 116 8 196 -14 323 -14 c 0
 413 -14 522 -3 625 1 c 0
 651 2 671 18 674 33 c 2
EndSplineSet
EndChar

StartChar: F
Encoding: 70 70 42
Width: 710
GlyphClass: 2
Flags: MW
HStem: -14 10<149.5 168 163 168> 355 10<300 343.5> 360 10<121.5 134 124 134> 423 10<314 358.5> 726 10<312 395> 794 10<303 402> 799 10 804 10<600 608 600 608>
VStem: 59 10<747.5 753.5 747.5 759.5> 66 10<389.5 395 395 396.5> 116 10<20 21 14.5 21> 124 10<300 360> 214 10<30 30> 222 10<298.5 366> 564 10<404 406 403 411.5> 644 10<774.5 786.5>
LayerCount: 2
Back
Fore
SplineSet
654 781 m 0x9983
 654 760 630 739 600 736 c 0
 551 731 461 726 329 726 c 0
 295 726 259 726 219 727 c 1
 227 703 229 677 229 646 c 0
 230 575 231 504 231 435 c 1
 267 434 298 433 330 433 c 0
 387 433 444 435 524 439 c 1
 527 439 l 2
 554 439 574 425 574 406 c 2
 574 403 l 2
 572 382 546 362 516 361 c 0
 434 357 374 355 313 355 c 0
 287 355 260 355 232 356 c 1xd987
 232 241 230 131 224 29 c 0
 223 8 198 -12 168 -14 c 2
 163 -14 l 2
 136 -14 116 1 116 20 c 2
 116 21 l 1xd92b
 122 125 124 240 124 360 c 1
 119 360 113 361 108 361 c 0
 83 362 66 377 66 395 c 0xb853
 66 398 66 400 67 403 c 0
 72 422 97 437 123 439 c 1
 122 503 122 568 121 634 c 0
 120 703 109 719 86 729 c 0
 83 730 78 732 73 733 c 0
 63 736 59 742 59 748 c 0
 59 771 111 809 111 809 c 1xba83
 196 805 271 804 335 804 c 0x9c83
 469 804 557 810 600 814 c 1
 608 814 l 2
 634 814 654 800 654 781 c 0x9983
644 781 m 0
 644 792 631 804 608 804 c 2
 600 804 l 1xd907
 558 800 469 794 335 794 c 0x9c07
 271 794 200 795 114 799 c 1
 102 790 69 759 69 748 c 0x9a87
 69 747 69 745 75 743 c 0
 81 742 87 739 89 738 c 2
 90 738 l 1
 90 738 l 1
 118 726 130 703 131 634 c 0
 132 568 132 503 133 439 c 2
 133 430 l 1
 124 429 l 2
 100 427 80 413 77 400 c 1
 77 400 l 1
 76 400 l 1
 76 395 l 2
 76 384 87 372 108 371 c 0
 114 371 120 370 124 370 c 2
 134 370 l 1
 134 360 l 2xba53
 134 240 132 126 126 21 c 1
 126 20 l 2
 126 9 139 -4 163 -4 c 2
 168 -4 l 2
 194 -2 213 16 214 30 c 0xba2b
 220 131 222 241 222 356 c 2
 222 366 l 1
 232 366 l 2
 260 365 287 365 313 365 c 0
 374 365 433 367 516 371 c 0
 542 372 562 390 564 404 c 2
 564 406 l 2
 564 417 552 429 527 429 c 2
 524 429 l 1
 525 429 525 429 524 429 c 1
 444 425 387 423 330 423 c 0
 298 423 267 424 231 425 c 2
 221 425 l 1
 221 435 l 2
 221 504 220 575 219 646 c 0
 219 677 217 701 210 724 c 2
 205 737 l 1
 219 737 l 2
 259 736 295 736 329 736 c 0
 461 736 551 741 599 746 c 0
 626 749 644 768 644 781 c 0
EndSplineSet
EndChar

StartChar: G
Encoding: 71 71 43
Width: 790
GlyphClass: 2
Flags: MW
HStem: -24 10<314 507.5 314 510> 44 10<370 482 370 484.5> 290 10<423 435.5 423 436> 390 10<605 610> 587 10<605 625 618 625 618 626> 741 10<426.5 467> 810 10<440 509.5>
VStem: 71 10<259.5 517 259.5 519> 169 10<275.5 523.5 275.5 525.5> 386 10<323.5 330.5 323.5 334> 572 10<614.5 659.5> 615 10<236.5 263> 670 10<625 685.5> 715 10<254.5 293>
LayerCount: 2
Back
Fore
SplineSet
387 316 m 0
 386 319 386 322 386 325 c 0
 386 343 403 360 428 367 c 0
 467 378 548 395 596 399 c 0
 600 399 603 400 606 400 c 0
 615 400 624 399 632 397 c 0
 703 383 725 324 725 264 c 0
 725 244 723 225 719 206 c 0
 699 107 608 -24 412 -24 c 0
 210 -24 71 128 71 387 c 0
 71 651 228 799 408 818 c 0
 421 819 433 820 446 820 c 0
 576 820 680 746 680 632 c 0
 680 611 656 590 626 587 c 2
 618 587 l 2
 592 587 572 601 572 620 c 0
 572 699 504 741 430 741 c 0
 423 741 415 741 408 740 c 0
 318 730 179 648 179 399 c 0
 179 152 312 54 428 54 c 0
 536 54 594 121 611 206 c 0
 614 219 615 231 615 242 c 0
 615 284 599 315 590 321 c 1
 562 318 478 300 452 293 c 0
 446 291 439 290 433 290 c 0
 411 290 392 300 387 316 c 0
397 319 m 0
 400 309 413 300 433 300 c 0
 438 300 444 301 449 302 c 1
 449 303 l 1
 449 303 l 1
 476 310 560 328 589 331 c 2
 593 331 l 1
 596 329 l 2
 610 320 625 286 625 242 c 0
 625 230 624 217 621 204 c 0
 603 116 541 44 428 44 c 0
 306 44 169 148 169 399 c 0
 169 652 312 739 407 750 c 0
 414 751 423 751 430 751 c 0
 507 751 582 706 582 620 c 0
 582 609 595 597 618 597 c 2
 625 597 l 2
 652 600 670 618 670 632 c 0
 670 739 573 810 446 810 c 0
 434 810 422 809 409 808 c 0
 234 790 81 647 81 387 c 0
 81 132 216 -14 412 -14 c 0
 603 -14 690 113 709 208 c 0
 713 226 715 245 715 264 c 0
 715 322 695 374 630 387 c 1
 630 387 l 1
 630 387 l 1
 623 389 614 390 606 390 c 0
 604 390 605 389 596 389 c 0
 551 385 468 368 431 357 c 0
 408 351 396 336 396 325 c 0
 396 322 396 320 397 319 c 0
EndSplineSet
EndChar

StartChar: H
Encoding: 72 72 44
Width: 820
GlyphClass: 2
Flags: MW
HStem: -14 10<144 164 157 164 157 165> 355 10<355.5 421.5> 423 10<406.5 472.5> 794 10<661 668 661 661> 799 10<161 174>
VStem: 66 10<389.5 396.5 389.5 396.5> 101 10<762 765> 111 10<13.5 19 13.5 19> 211 10<302 367> 605 10<572.5 627.5> 704 10<430 467 439 467 745 776.5> 744 10<404 406 403 411.5>
LayerCount: 2
Back
Fore
SplineSet
666 -9 m 0xf6f0
 663 -9 660 -10 657 -10 c 0
 631 -10 612 5 611 24 c 0
 609 107 607 228 606 358 c 1
 536 356 460 355 383 355 c 0
 328 355 273 356 221 357 c 1
 221 247 220 134 219 31 c 0
 219 10 195 -11 165 -14 c 2
 157 -14 l 2
 131 -14 111 0 111 19 c 0xf5f0
 112 126 113 246 113 361 c 1
 108 361 l 2
 83 362 66 377 66 395 c 0
 66 398 66 400 67 403 c 0
 72 420 91 434 113 438 c 1
 112 563 109 678 101 762 c 1
 101 765 l 2
 101 785 122 803 151 808 c 0
 155 809 159 809 163 809 c 0xeef0
 188 809 207 796 209 778 c 0
 217 688 220 566 221 436 c 1
 291 434 368 433 445 433 c 0
 500 433 555 434 606 435 c 1
 606 490 605 545 605 600 c 0
 605 655 606 709 606 759 c 0
 606 780 630 801 660 804 c 2
 668 804 l 2
 694 804 714 790 714 771 c 0
 714 719 713 664 713 608 c 0
 713 552 714 495 714 439 c 1
 738 437 754 424 754 406 c 2
 754 403 l 2
 752 386 736 370 714 364 c 1
 715 236 717 118 719 36 c 2
 719 35 l 2
 719 14 695 -5 666 -9 c 0xf6f0
665 1 m 0
 691 5 709 22 709 35 c 2
 709 36 l 2
 707 118 705 236 704 364 c 2
 704 372 l 1
 711 374 l 2
 730 379 742 392 744 404 c 2
 744 406 l 2
 744 417 735 427 713 429 c 2
 704 430 l 1
 704 439 l 2
 704 495 703 552 703 608 c 0
 703 664 704 719 704 771 c 0
 704 782 691 794 668 794 c 2
 661 794 l 2xf5f0
 634 791 616 773 616 759 c 0
 616 709 615 655 615 600 c 0
 615 545 616 490 616 435 c 2
 616 425 l 1
 606 425 l 2
 555 424 500 423 445 423 c 0
 368 423 291 424 221 426 c 2
 211 426 l 1
 211 436 l 2
 210 566 207 688 199 777 c 0
 198 788 185 799 163 799 c 0
 159 799 156 799 153 798 c 1
 153 798 l 1
 153 798 l 1
 126 793 111 778 111 765 c 2
 111 762 l 1xeef0
 119 679 122 563 123 438 c 2
 123 430 l 1
 115 428 l 2
 95 425 80 412 77 400 c 0
 76 398 76 398 76 395 c 0
 76 384 87 372 108 371 c 2
 123 371 l 1
 123 361 l 2
 123 246 122 126 121 19 c 0
 121 8 134 -4 157 -4 c 2
 164 -4 l 2
 191 -1 209 17 209 31 c 0
 210 134 211 247 211 357 c 2
 211 367 l 1
 221 367 l 2
 273 366 328 365 383 365 c 0
 460 365 536 366 606 368 c 2
 616 368 l 1
 616 358 l 2
 617 228 619 107 621 24 c 0
 622 13 634 0 657 0 c 0
 658 0 659 1 665 1 c 0
EndSplineSet
EndChar

StartChar: I
Encoding: 73 73 45
Width: 480
GlyphClass: 2
Flags: MW
HStem: -3 10<217.5 264.5 217.5 265> 3 10<91 91> 59 10<104.5 119 116 119> 67 10<320 337 329 337> 729 10<288 288> 788 10<105 119 117 119 381 386>
VStem: 53 10<26.5 29 26.5 30.5> 77 10<734 743 743 743 743 746.5> 188 10<88.5 183 88.5 183> 194 10<490 590> 282 10<105 107 91.5 196.5> 288 10<502.5 603> 414 10<55.5 60>
LayerCount: 2
Back
Fore
SplineSet
55 38 m 0x4f28
 63 55 90 69 116 69 c 2
 119 69 l 2
 145 68 170 66 192 65 c 1
 189 75 188 83 188 93 c 0x6fa8
 188 273 194 406 194 574 c 0
 194 606 193 638 193 673 c 0
 192 728 171 714 89 732 c 0
 85 733 81 733 77 734 c 1
 77 739 l 2
 77 754 80 798 117 798 c 2
 119 798 l 2
 172 796 222 795 268 795 c 0
 309 795 347 796 381 798 c 2
 386 798 l 2
 409 798 426 787 426 772 c 2
 426 768 l 2
 423 750 397 734 369 732 c 0
 343 730 318 730 288 729 c 1
 294 717 297 703 297 687 c 0
 297 652 298 619 298 587 c 0x6f58
 298 418 292 286 292 107 c 2
 292 105 l 2
 292 78 293 77 329 77 c 2
 337 77 l 2
 352 77 373 76 400 75 c 0
 418 74 424 68 424 60 c 0
 424 41 390 11 390 11 c 1
 336 1 289 -3 241 -3 c 0x9f28
 193 -3 145 1 91 3 c 0
 69 4 53 15 53 29 c 0
 53 32 54 35 55 38 c 0x4f28
64 34 m 0
 64 32 63 29 63 29 c 2
 63 24 71 14 91 13 c 0x6f88
 146 11 194 7 241 7 c 0
 288 7 332 11 385 20 c 1
 392 27 414 51 414 60 c 1
 414 60 416 64 400 65 c 0
 373 66 352 67 337 67 c 2
 329 67 l 2
 311 67 297 65 288 75 c 0
 281 83 282 94 282 105 c 2
 282 107 l 2x9fa8
 282 286 288 418 288 587 c 0
 288 619 287 652 287 687 c 0
 287 702 284 714 279 725 c 2
 272 738 l 1
 288 739 l 2
 318 740 343 740 368 742 c 0
 394 744 414 758 416 769 c 2
 416 772 l 2
 416 778 407 788 386 788 c 2
 381 788 l 2
 348 786 309 785 268 785 c 0
 222 785 171 786 119 788 c 2
 117 788 l 2
 93 788 88 762 87 743 c 1
 87 743 90 742 91 742 c 0
 168 725 202 736 203 673 c 0
 203 638 204 606 204 574 c 0x9f58
 204 406 198 273 198 93 c 0
 198 84 199 77 202 68 c 2
 206 54 l 1
 192 55 l 2
 169 56 144 58 119 59 c 2
 116 59 l 2
 93 59 71 47 64 34 c 0
EndSplineSet
EndChar

StartChar: J
Encoding: 74 74 46
Width: 540
GlyphClass: 2
Flags: MW
HStem: -14 10<176.5 225 176.5 225> 55 9 129 10<73 85.5> 730 10<388 388> 788 10<180 194 192 194 456 461>
VStem: 16 10<91.5 98.5 91.5 101> 152 10 318 10<159 276> 412 10<181.5 290> 492 10<769 771 768 774>
LayerCount: 2
Back
Fore
SplineSet
422 229 m 0
 422 134 413 4 251 -13 c 0
 241 -14 230 -14 220 -14 c 0
 130 -14 56 31 21 78 c 0
 17 83 16 88 16 94 c 0
 16 108 27 123 46 132 c 0
 56 137 67 139 78 139 c 0
 95 139 111 133 119 122 c 0
 142 91 196 64 236 64 c 0
 242 64 247 65 251 65 c 0
 291 69 318 102 318 216 c 0
 318 336 310 565 298 671 c 0
 291 728 245 710 152 734 c 1
 152 739 l 2
 152 754 155 798 192 798 c 2
 194 798 l 2
 247 796 297 795 343 795 c 0
 384 795 422 796 456 798 c 2
 461 798 l 2
 485 798 502 786 502 771 c 2
 502 768 l 2
 499 750 472 734 444 732 c 0
 426 731 408 731 388 730 c 1
 395 719 400 705 402 689 c 0
 414 579 422 351 422 229 c 0
412 229 m 0
 412 351 404 579 392 688 c 0
 390 702 386 715 380 725 c 2
 370 739 l 1
 388 740 l 2
 408 741 426 741 443 742 c 0
 469 744 490 759 492 769 c 2
 492 771 l 2
 492 777 483 788 461 788 c 2
 456 788 l 2
 423 786 384 785 343 785 c 0
 297 785 246 786 194 788 c 2
 192 788 l 2
 168 788 163 760 162 742 c 1
 243 722 300 737 308 672 c 0
 320 565 328 337 328 216 c 0
 328 102 300 60 252 55 c 1
 251 55 l 1
 251 55 l 1
 249 55 243 54 236 54 c 0
 192 54 136 82 111 116 c 0
 106 123 93 129 78 129 c 0
 68 129 59 127 50 123 c 0
 33 115 26 103 26 94 c 0
 26 89 26 87 29 84 c 0
 62 40 133 -4 220 -4 c 0
 230 -4 241 -4 250 -3 c 0
 404 13 412 134 412 229 c 0
EndSplineSet
EndChar

StartChar: K
Encoding: 75 75 47
Width: 780
GlyphClass: 2
Flags: MW
HStem: -14 10<154 174 167 174 167 175> -9 10<674 686 674 687> 799 10<145 158 634.5 647>
VStem: 64 10<444 446.5 444 450.5> 86 10<762.5 764 760 773> 116 10<419 419> 211 10<544 544> 219 10<24 94.5> 679 10<773 779> 734 10<32.5 39>
LayerCount: 2
Back
Fore
SplineSet
129 807 m 0xbdc0
 135 809 142 809 148 809 c 0
 170 809 188 800 193 784 c 0
 207 738 216 658 221 544 c 1
 379 632 529 734 595 792 c 0
 607 803 625 809 642 809 c 0
 653 809 664 807 672 802 c 0
 684 796 689 786 689 776 c 0
 689 767 685 757 675 748 c 0
 589 673 413 559 232 463 c 1
 475 353 702 97 738 54 c 0
 742 49 744 43 744 37 c 0
 744 23 734 8 716 -1 c 0
 705 -6 693 -9 681 -9 c 0x7ec0
 665 -9 650 -4 642 6 c 0
 613 41 422 253 226 367 c 1
 228 270 229 158 229 31 c 0
 229 10 205 -11 175 -14 c 2
 167 -14 l 2
 141 -14 121 0 121 19 c 0
 121 174 119 308 116 419 c 0
 112 421 107 422 103 423 c 2
 103 423 64 429 64 446 c 0
 64 455 74 466 104 481 c 0
 107 483 110 484 113 486 c 0
 108 622 100 714 87 756 c 0
 86 758 86 761 86 764 c 0
 86 782 104 801 129 807 c 0xbdc0
132 798 m 1
 132 797 l 1
 131 797 l 1
 109 792 96 775 96 764 c 2
 96 760 l 1
 96 760 l 1
 97 759 l 1
 110 715 118 623 123 486 c 1
 123 481 l 1
 119 478 l 2
 114 475 111 474 110 473 c 2
 109 472 l 1
 108 472 l 1
 78 457 74 447 74 446 c 0
 74 442 100 434 105 433 c 1
 105 433 l 1
 105 433 l 1
 109 432 115 431 120 428 c 2
 126 425 l 1
 126 419 l 2
 129 308 131 174 131 19 c 0
 131 8 144 -4 167 -4 c 2
 174 -4 l 2
 201 -1 219 17 219 31 c 0xbdc0
 219 158 218 270 216 367 c 2
 216 385 l 1
 231 376 l 2
 429 260 620 48 650 12 c 0
 655 6 667 1 681 1 c 0
 691 1 702 4 712 8 c 0
 727 16 734 28 734 37 c 0
 734 41 733 45 730 48 c 0
 695 90 468 345 228 454 c 1
 209 462 l 1
 227 472 l 2
 408 568 584 682 668 755 c 0
 676 763 679 770 679 776 c 0
 679 782 676 789 668 793 c 1
 667 793 l 1
 667 794 l 1
 661 797 652 799 642 799 c 0
 627 799 612 794 602 785 c 0
 534 725 385 624 226 535 c 2
 212 527 l 1
 211 544 l 2
 206 657 197 737 183 781 c 0
 180 791 168 799 148 799 c 0
 142 799 136 799 132 798 c 1
EndSplineSet
EndChar

StartChar: L
Encoding: 76 76 48
Width: 660
GlyphClass: 2
Flags: MW
HStem: -23 10<252.5 344 252 344.5> -9 10<575 575> 45 10<274.5 327.5 274.5 328> 59 10<585 588 585 588> 794 10<190 202.5>
VStem: 126 10<84 96> 131 10<757 760 757 760 757 770> 144 10<434.5 557.5> 224 10<94 104> 242 10<444 569> 624 10<33 36 32 41.5>
LayerCount: 2
Back
Fore
SplineSet
634 32 m 2xfbe0
 631 11 605 -8 575 -9 c 0
 475 -13 382 -23 307 -23 c 0
 198 -23 126 -3 126 84 c 2
 126 96 l 1xfde0
 132 188 144 355 144 514 c 0
 144 601 140 686 131 756 c 1
 131 760 l 2
 131 780 153 798 180 803 c 0
 184 804 188 804 192 804 c 0
 216 804 236 792 239 774 c 0
 249 701 252 613 252 525 c 0
 252 363 240 197 234 104 c 1
 234 94 l 2
 234 64 247 55 302 55 c 0
 353 55 440 63 585 69 c 1
 588 69 l 2
 615 69 634 55 634 36 c 2
 634 32 l 2xfbe0
624 33 m 2
 624 36 l 2
 624 47 612 59 588 59 c 2
 585 59 l 1
 441 53 354 45 302 45 c 0
 247 45 224 57 224 94 c 2
 224 104 l 1
 224 105 l 1
 230 198 242 363 242 525 c 0
 242 613 239 701 229 772 c 0
 227 783 213 794 192 794 c 0
 188 794 185 794 182 793 c 1
 182 793 l 1
 182 793 l 1
 157 789 141 772 141 760 c 2
 141 757 l 1xfbe0
 150 687 154 601 154 514 c 0
 154 355 142 189 136 96 c 1
 136 84 l 2
 136 6 197 -13 307 -13 c 0
 381 -13 474 -3 575 1 c 0
 601 2 621 18 624 33 c 2
EndSplineSet
EndChar

StartChar: M
Encoding: 77 77 49
Width: 900
GlyphClass: 2
Flags: MW
HStem: -19 10<98.5 115 112 115> -9 10<762 775 762 775> 137 10<436 446 436 447.5> 604 20G<198 198> 783 10<175 189.5> 795 10<755.5 773>
VStem: 66 10<14 17 8.5 18 8.5 18> 102 10<650 650> 197 10<586 586> 691 10<598 598> 785 10<751 755.5> 824 10<35 38 38 38>
LayerCount: 2
Back
Fore
SplineSet
115 -19 m 2xbff0
 112 -19 l 2xbff0
 85 -19 66 -5 66 14 c 2
 66 18 l 1
 84 169 95 440 102 650 c 0
 103 687 105 723 106 755 c 1
 106 755 153 793 186 793 c 0
 196 793 205 789 211 779 c 0
 229 747 246 716 262 687 c 0
 356 514 421 353 458 270 c 1
 504 372 583 567 695 784 c 1
 695 784 737 805 766 805 c 0
 782 805 794 799 794 781 c 0
 794 771 795 761 795 751 c 0
 800 517 816 170 834 39 c 1
 834 35 l 2
 834 15 812 -3 785 -8 c 0
 781 -9 777 -9 773 -9 c 0x7ff0
 749 -9 729 3 726 21 c 0
 712 128 698 391 691 598 c 1
 569 352 527 195 485 158 c 0
 467 142 453 137 442 137 c 0
 425 137 414 149 410 153 c 0
 377 184 337 337 207 586 c 1
 200 395 190 154 174 22 c 0
 171 1 145 -18 115 -19 c 2xbff0
115 -9 m 2
 142 -8 162 9 164 23 c 0
 180 154 190 396 197 586 c 2
 198 624 l 1
 216 591 l 1
 346 341 389 187 417 160 c 0
 421 156 430 147 442 147 c 0
 450 147 461 150 478 165 c 0
 515 198 560 356 682 602 c 2
 700 638 l 1
 701 598 l 2
 708 392 722 130 736 22 c 0
 738 12 751 1 773 1 c 0x7ff0
 777 1 780 1 783 2 c 1
 783 2 l 1
 783 2 l 1
 808 6 824 23 824 35 c 2
 824 38 l 1
 806 171 790 517 785 751 c 0
 785 760 784 770 784 781 c 0
 784 792 780 795 766 795 c 0
 745 795 713 782 702 776 c 1
 592 562 513 367 467 266 c 2
 458 246 l 1
 449 266 l 2
 412 349 347 510 253 682 c 0
 237 711 220 742 202 774 c 0
 198 781 193 783 186 783 c 0
 164 783 128 759 116 750 c 1
 115 719 113 685 112 650 c 0
 105 440 94 170 76 17 c 1
 76 14 l 2
 76 3 88 -9 112 -9 c 2
 115 -9 l 2
EndSplineSet
EndChar

StartChar: N
Encoding: 78 78 50
Width: 820
GlyphClass: 2
Flags: MW
HStem: -14 10<144 164 157 164 157 165> -8 10<663.5 683 663.5 684.5> 794 10<163.5 178.5 653 653.5>
VStem: 97 10<747 749.5> 111 10<13.5 47.5 13.5 47.5> 209 10<24 64.5> 601 10<757 760 757 770> 613 10<177 249 145 340> 699 10<772 772> 711 10<214 349.5>
LayerCount: 2
Back
Fore
SplineSet
165 -14 m 2xbfc0
 157 -14 l 2xbfc0
 131 -14 111 0 111 19 c 0
 111 76 112 136 112 197 c 0
 112 398 108 609 97 747 c 0
 97 752 96 757 96 762 c 1
 96 762 141 804 175 804 c 0
 184 804 193 801 199 792 c 0
 313 638 498 345 613 177 c 1
 613 249 l 2
 613 431 610 652 601 757 c 1
 601 760 l 2
 601 780 623 800 652 804 c 0
 655 804 659 805 662 805 c 0
 687 805 707 792 709 773 c 0
 718 661 721 441 721 258 c 0
 721 170 720 90 719 35 c 0
 718 1 696 -8 673 -8 c 0x7fc0
 648 -8 621 3 621 3 c 2
 617 7 614 9 611 13 c 0
 563 70 372 375 215 602 c 1
 219 496 220 369 220 246 c 0
 220 171 219 98 219 31 c 0
 219 10 195 -11 165 -14 c 2xbfc0
164 -4 m 2
 191 -1 209 17 209 31 c 0
 209 98 210 171 210 246 c 0
 210 369 209 496 205 602 c 2
 204 636 l 1
 223 608 l 2
 380 381 572 75 619 19 c 1
 619 19 l 1
 619 19 l 1
 621 17 622 16 627 12 c 0
 632 10 654 2 673 2 c 0x7fc0
 693 2 708 8 709 35 c 0
 710 90 711 170 711 258 c 0
 711 441 708 661 699 772 c 0
 698 784 684 795 662 795 c 0
 661 795 659 794 653 794 c 0
 628 790 611 773 611 760 c 2
 611 757 l 1
 620 653 623 431 623 249 c 2
 623 145 l 1
 605 171 l 2
 490 340 305 633 191 786 c 1
 191 786 l 1
 191 786 l 1
 187 792 182 794 175 794 c 0
 152 794 118 768 106 758 c 0
 107 755 107 753 107 747 c 0
 118 610 122 398 122 197 c 0
 122 136 121 76 121 19 c 0
 121 8 134 -4 157 -4 c 2
 164 -4 l 2
EndSplineSet
EndChar

StartChar: O
Encoding: 79 79 51
Width: 830
GlyphClass: 2
Flags: MW
HStem: -22 10<317 415 317 415.5> 47 10<374 431 374 431> 742 10<412 457> 811 10<423.5 498>
VStem: 66 10<260 500.5 260 502.5> 164 10<275.5 508.5 275.5 510.5> 572 10<586.5 593 586.5 593.5> 659 10<266.5 417.5> 690 10<641 645.5> 757 10<275 430.5>
LayerCount: 2
Back
Fore
SplineSet
593 623 m 1
 567 703 493 742 421 742 c 0
 403 742 386 740 369 735 c 0
 284 713 174 620 174 397 c 0
 174 154 320 57 428 57 c 0
 434 57 441 57 447 58 c 0
 536 68 659 155 659 378 c 0
 659 457 620 549 601 559 c 0
 584 564 572 576 572 591 c 0
 572 596 573 602 577 608 c 0
 581 614 586 619 593 623 c 1
686 616 m 1
 745 572 767 472 767 390 c 0
 767 156 632 0 447 -20 c 0
 434 -21 422 -22 409 -22 c 0
 219 -22 66 131 66 385 c 0
 66 620 185 766 346 809 c 0
 377 817 408 821 438 821 c 0
 561 821 666 755 699 652 c 0
 700 649 700 647 700 644 c 0
 700 635 695 624 686 616 c 1
603 626 m 1
 605 618 l 1
 598 614 l 2
 592 611 589 607 585 602 c 0
 583 598 582 595 582 591 c 0
 582 582 589 573 604 569 c 1
 605 568 l 1
 606 568 l 1
 632 554 669 458 669 378 c 0
 669 151 542 59 449 48 c 0
 442 47 434 47 428 47 c 0
 314 47 164 150 164 397 c 0
 164 624 277 721 366 745 c 0
 384 750 402 752 421 752 c 0
 496 752 575 711 603 626 c 1
680 608 m 2
 670 615 l 1
 679 623 l 2
 686 630 690 638 690 644 c 0
 690 647 690 647 689 649 c 0
 658 747 558 811 438 811 c 0
 409 811 379 807 348 799 c 0
 192 758 76 616 76 385 c 0
 76 135 225 -12 409 -12 c 0
 421 -12 433 -11 446 -10 c 0
 625 9 757 160 757 390 c 0
 757 471 734 567 680 608 c 2
EndSplineSet
EndChar

StartChar: P
Encoding: 80 80 52
Width: 760
GlyphClass: 2
Flags: MW
HStem: -24 10<159 178 172 178 172 179> 302 10<333 412> 369 10<349.5 413.5 349.5 414.5> 429 10<90 102.5> 634 10<175 187.5> 661 10<65.5 78 65.5 78.5> 744 10<344.5 399.5> 813 10<349 423.5>
VStem: 26 10<692 698.5> 36 10<390.5 396.5 390.5 398> 116 10<597 600> 130 10<262 339 339 339> 228 10<397 397> 592 10<541.5 595.5> 693 10<549 618.5>
LayerCount: 2
Back
Fore
SplineSet
179 -24 m 2xffbe
 172 -24 l 2
 146 -24 126 -10 126 9 c 2
 126 10 l 2
 129 91 130 178 130 262 c 2
 130 339 l 1
 107 346 82 355 58 365 c 0
 44 371 36 382 36 394 c 0
 36 402 39 410 46 418 c 0xff7e
 58 431 79 439 99 439 c 0
 107 439 115 438 122 435 c 0
 124 434 125 434 127 433 c 1
 125 498 121 554 116 596 c 1
 116 600 l 2
 116 620 138 638 165 643 c 0
 169 644 173 644 177 644 c 0
 201 644 221 632 224 614 c 0
 232 559 236 483 238 397 c 1
 288 384 331 379 368 379 c 0
 459 379 516 411 549 447 c 0
 578 479 592 521 592 562 c 0
 592 629 555 696 480 726 c 0
 453 737 420 744 379 744 c 0
 310 744 219 724 105 668 c 0
 95 663 84 661 73 661 c 0
 56 661 41 667 32 677 c 0
 28 682 26 688 26 694 c 0
 26 708 37 723 55 732 c 0
 184 795 300 823 396 823 c 0
 452 823 501 813 543 796 c 0
 650 753 703 665 703 576 c 0
 703 519 681 460 637 412 c 0
 575 344 476 302 350 302 c 0
 315 302 278 305 239 312 c 1
 239 216 237 114 234 20 c 0
 233 -1 209 -21 179 -24 c 2xffbe
178 -14 m 2
 205 -11 223 7 224 20 c 0
 227 114 229 216 229 312 c 2
 229 324 l 1
 241 322 l 2
 279 315 316 312 350 312 c 0
 474 312 570 353 630 419 c 0
 672 465 693 522 693 576 c 0
 693 661 643 745 539 787 c 0
 498 803 451 813 396 813 c 0
 302 813 187 785 59 723 c 0
 44 715 36 703 36 694 c 0xffbe
 36 690 37 687 40 683 c 0
 46 677 58 671 73 671 c 0
 83 671 92 673 101 677 c 0
 216 734 308 754 379 754 c 0
 421 754 455 747 484 735 c 0
 563 704 602 633 602 562 c 0
 602 519 587 474 556 440 c 0
 521 402 461 369 368 369 c 0
 330 369 286 374 235 387 c 2
 228 389 l 1
 228 397 l 2
 226 483 222 558 214 612 c 0
 212 623 198 634 177 634 c 0
 173 634 170 634 167 633 c 1
 167 633 l 1
 167 633 l 1
 142 629 126 612 126 600 c 2
 126 597 l 1
 131 556 135 498 137 433 c 2
 138 417 l 1
 123 424 l 2
 122 424 121 425 118 426 c 0
 113 428 106 429 99 429 c 0
 81 429 63 421 53 411 c 0
 48 405 46 399 46 394 c 0
 46 387 51 379 62 374 c 0
 85 364 110 355 133 349 c 2
 140 346 l 1
 140 262 l 2
 140 178 139 91 136 10 c 2
 136 9 l 2
 136 -2 149 -14 172 -14 c 2
 178 -14 l 2
EndSplineSet
EndChar

StartChar: Q
Encoding: 81 81 53
Width: 830
GlyphClass: 2
Flags: MW
HStem: -206 10<718 728.5 718 730> -17 10<316.5 414.5 316.5 414.5> 46 10<377 434.5> 514 10<582 617.5> 576 10<551.5 615> 598 10<629 641.5 629 642> 742 10<412 457> 811 10<423.5 498>
VStem: 66 10<260.5 500.5 260.5 502.5> 164 10<275.5 508.5 275.5 510.5> 407 10<272.5 328 272.5 328> 491 10<284 334 284 334> 675 10<304 425.5> 690 10<638 645.5> 760 10<307.5 430.5> 769 10<-166 -161>
LayerCount: 2
Back
Fore
SplineSet
547 93 m 1xfffc
 616 138 675 228 675 380 c 0
 675 471 637 514 598 514 c 0
 566 514 526 489 508 401 c 0
 503 376 501 348 501 320 c 0
 501 248 516 167 547 93 c 1xfffc
460 58 m 1
 425 141 407 232 407 312 c 0
 407 344 409 373 415 401 c 0
 433 488 484 586 612 586 c 0
 737 586 770 477 770 390 c 0xfffe
 770 222 694 91 580 27 c 1
 623 -47 683 -109 759 -138 c 0
 772 -143 779 -153 779 -164 c 0xfffd
 779 -171 776 -179 770 -186 c 0xfffe
 759 -198 739 -206 721 -206 c 0
 714 -206 707 -205 701 -202 c 0
 611 -164 542 -92 493 -7 c 1
 479 -10 464 -13 449 -15 c 0
 435 -17 421 -17 408 -17 c 0
 219 -17 66 132 66 385 c 0
 66 620 185 766 346 809 c 0
 377 817 408 821 438 821 c 0
 561 821 666 755 699 652 c 0
 700 649 700 647 700 644 c 0
 700 626 683 608 658 601 c 0
 652 599 645 598 639 598 c 0
 617 598 598 608 593 624 c 0
 567 704 493 742 421 742 c 0
 403 742 386 740 369 735 c 0
 284 713 174 620 174 397 c 0
 174 154 322 56 432 56 c 0
 438 56 443 56 449 57 c 0
 453 57 456 57 460 58 c 1
552 85 m 2
 542 78 l 1
 538 89 l 1
 506 164 491 247 491 320 c 0
 491 348 493 377 498 403 c 0
 517 493 560 524 598 524 c 0
 646 524 685 473 685 380 c 0
 685 225 625 132 552 85 c 2
469 62 m 2
 474 51 l 1
 462 48 l 2
 458 47 454 47 450 47 c 0
 445 46 437 46 432 46 c 0
 316 46 164 149 164 397 c 0
 164 624 277 721 366 745 c 0
 384 750 402 752 421 752 c 0
 496 752 575 712 603 627 c 0
 606 617 619 608 639 608 c 0
 644 608 650 609 655 610 c 1
 655 611 l 1
 655 611 l 1
 678 617 690 632 690 644 c 0
 690 647 690 647 689 649 c 0
 658 747 558 811 438 811 c 0
 409 811 379 807 348 799 c 0
 192 758 76 616 76 385 c 0
 76 136 225 -7 408 -7 c 0
 421 -7 435 -7 448 -5 c 0
 462 -3 477 0 491 3 c 2
 498 4 l 1
 502 -2 l 1
 550 -86 617 -156 705 -193 c 1
 705 -193 l 1
 705 -193 l 1
 709 -195 715 -196 721 -196 c 0
 736 -196 754 -189 763 -179 c 0
 767 -174 769 -168 769 -164 c 0xfffd
 769 -158 765 -151 755 -147 c 0
 677 -117 615 -53 571 22 c 2
 566 31 l 1
 575 36 l 2
 686 98 760 225 760 390 c 0
 760 471 731 565 630 575 c 0
 625 576 618 576 612 576 c 0
 491 576 442 484 425 399 c 0
 419 372 417 344 417 312 c 0
 417 233 435 144 469 62 c 2
EndSplineSet
EndChar

StartChar: R
Encoding: 82 82 54
Width: 780
GlyphClass: 2
Flags: MW
HStem: -29 10<676 688.5 676 689.5> -24 10<159 178 172 178 172 179> 332 10<402 409 402 402> 401 10<406.5 444 406.5 444.5> 430 10<262.5 270.5> 634 10<175 187.5> 661 10<64.5 77 64.5 77.5> 745 10<356.5 439> 812 10<361.5 470.5>
VStem: 26 10<691.5 698.5 691.5 701> 116 10<597 600> 126 10<9 10 3.5 10> 228 10<273 350> 605 10<543.5 590> 705 10<542 604.5> 734 10<12.5 19>
LayerCount: 2
Back
Fore
SplineSet
179 -24 m 2x7fef
 172 -24 l 2
 146 -24 126 -10 126 9 c 2
 126 10 l 2x7fdf
 129 88 130 173 130 255 c 0
 130 391 126 519 116 596 c 1
 116 600 l 2
 116 620 138 638 165 643 c 0
 169 644 173 644 177 644 c 0
 201 644 221 632 224 614 c 0
 231 565 235 500 237 426 c 1
 245 434 254 440 268 440 c 0
 274 440 281 439 289 436 c 0
 343 418 388 411 425 411 c 0
 463 411 492 418 514 428 c 0
 570 454 605 513 605 574 c 0
 605 606 596 639 574 668 c 0
 542 711 485 745 393 745 c 0
 320 745 225 724 104 668 c 0
 94 663 83 661 72 661 c 0
 55 661 39 667 31 678 c 0
 27 683 26 688 26 694 c 0
 26 708 37 723 56 732 c 0
 193 795 312 822 409 822 c 0
 534 822 624 778 672 713 c 0
 700 675 715 629 715 582 c 0
 715 498 667 412 562 364 c 0
 518 344 465 332 409 332 c 2
 402 332 l 1
 496 242 645 104 732 39 c 0
 740 33 744 25 744 16 c 0
 744 5 738 -7 725 -16 c 0
 713 -25 697 -29 682 -29 c 0
 669 -29 657 -26 648 -19 c 0xbfef
 524 73 310 280 238 350 c 1
 238 273 l 2
 238 189 237 101 234 20 c 0
 233 -1 209 -21 179 -24 c 2x7fef
178 -14 m 2
 205 -11 223 7 224 20 c 0
 227 101 228 189 228 273 c 2
 228 374 l 1
 245 357 l 2
 317 287 531 80 654 -11 c 0
 661 -16 670 -19 682 -19 c 0
 695 -19 709 -15 719 -8 c 0
 730 0 734 9 734 16 c 0
 734 22 732 27 726 31 c 0
 638 97 489 235 395 325 c 2
 377 342 l 1
 409 342 l 2
 464 342 515 354 558 373 c 0
 660 420 705 502 705 582 c 0
 705 627 691 671 664 707 c 0
 618 769 532 812 409 812 c 0
 314 812 196 785 60 723 c 0
 44 715 36 703 36 694 c 0
 36 689 37 687 39 684 c 1
 39 684 l 1
 39 684 l 1
 44 677 57 671 72 671 c 0
 82 671 91 673 100 677 c 0
 222 734 318 755 393 755 c 0
 488 755 548 720 582 674 c 0
 605 643 615 608 615 574 c 0
 615 509 578 447 518 419 c 0
 495 408 464 401 425 401 c 0
 387 401 341 408 286 427 c 0
 278 429 273 430 268 430 c 0
 257 430 251 426 244 419 c 2
 228 402 l 1
 227 426 l 2
 225 499 221 564 214 612 c 0
 212 623 198 634 177 634 c 0
 173 634 170 634 167 633 c 1
 167 633 l 1
 167 633 l 1
 142 629 126 612 126 600 c 2
 126 597 l 1xbfef
 136 520 140 391 140 255 c 0
 140 173 139 88 136 10 c 2
 136 9 l 2
 136 -2 149 -14 172 -14 c 2
 178 -14 l 2
EndSplineSet
EndChar

StartChar: S
Encoding: 83 83 55
Width: 700
GlyphClass: 2
Flags: MW
HStem: -22 10<284 416 284 417.5> 46 10<324.5 411 324.5 412.5> 192 10<128 140> 584 10<527 542 540 542> 744 10<313.5 408.5> 812 10<301 457.5>
VStem: 60 10<555 595 555 595.5> 68 10<156.5 162.5 156.5 165.5> 159 10<578.5 605.5 578.5 606> 494 10<617 620 611.5 621 611.5 621> 555 10<189.5 228.5> 594 10<644.5 689.5> 654 10<196.5 252.5>
LayerCount: 2
Back
Fore
SplineSet
108 199 m 0xfdf8
 116 201 124 202 131 202 c 0
 151 202 168 194 174 179 c 0
 205 102 274 56 375 56 c 0
 447 56 497 84 527 124 c 0
 545 148 555 176 555 203 c 0
 555 254 521 305 440 330 c 0
 402 343 269 389 226 404 c 0
 113 442 60 515 60 590 c 0
 60 601 61 611 63 622 c 0
 84 725 209 822 390 822 c 0
 529 822 604 737 604 648 c 0
 604 640 603 633 602 625 c 0
 599 604 571 585 542 584 c 2
 540 584 l 2
 514 584 494 598 494 617 c 2
 494 621 l 2
 495 626 495 631 495 636 c 0
 495 695 443 744 374 744 c 0
 253 744 184 686 171 622 c 0
 170 615 169 609 169 602 c 0
 169 555 203 509 284 482 c 0
 329 467 460 420 496 408 c 0
 612 371 664 294 664 216 c 0
 664 174 648 131 620 94 c 0
 570 29 476 -22 359 -22 c 0
 206 -22 109 50 70 147 c 0xfef8
 69 150 68 154 68 157 c 0
 68 174 84 192 108 199 c 0xfdf8
111 189 m 0
 89 183 78 168 78 157 c 0xfdf8
 78 156 78 154 79 150 c 0
 117 58 209 -12 359 -12 c 0
 473 -12 564 38 612 100 c 0
 639 135 654 177 654 216 c 0
 654 289 606 362 493 398 c 0
 456 411 326 458 281 473 c 0
 198 500 159 549 159 602 c 0
 159 610 160 617 161 623 c 2
 161 624 l 1
 161 624 l 1
 175 694 250 754 374 754 c 0
 448 754 505 701 505 636 c 0
 505 631 505 626 504 620 c 2
 504 617 l 2
 504 606 517 594 540 594 c 2
 542 594 l 2
 568 595 590 613 592 626 c 0
 593 634 594 641 594 648 c 0
 594 731 525 812 390 812 c 0
 212 812 92 717 73 620 c 0
 71 610 70 600 70 590 c 0
 70 520 119 451 229 413 c 0
 272 398 405 352 443 340 c 0
 527 314 565 259 565 203 c 0
 565 174 554 144 535 118 c 0
 503 75 450 46 375 46 c 0
 271 46 197 94 165 175 c 0
 161 185 149 192 131 192 c 0
 125 192 117 191 111 189 c 0
EndSplineSet
EndChar

StartChar: T
Encoding: 84 84 56
Width: 720
GlyphClass: 2
Flags: MW
HStem: -19 10<339 358 352 358 352 359> 722 10<402 402> 731 10<625 625> 790 10<319.5 422.5> 800 10<109.5 140.5>
VStem: 25 10<767.5 775.5 767.5 782> 301 10<672 672> 306 10<9.5 15 9.5 15> 407 10<295 414.5> 674 10<773 776 772 781>
LayerCount: 2
Back
Fore
SplineSet
684 772 m 2x96c0
 681 751 654 732 625 731 c 0xb6c0
 556 728 478 723 402 722 c 1
 406 711 408 701 409 688 c 0
 415 601 417 488 417 341 c 0
 417 249 416 145 414 25 c 0
 414 4 389 -16 359 -19 c 2
 352 -19 l 2
 326 -19 306 -4 306 15 c 0xc5c0
 308 135 309 239 309 330 c 0
 309 476 307 586 301 672 c 0
 299 705 285 707 268 709 c 0
 199 717 91 715 52 738 c 0
 32 750 25 760 25 769 c 0
 25 795 85 808 85 808 c 2
 93 809 103 810 115 810 c 0xcec0
 167 810 257 800 382 800 c 0
 463 800 552 806 635 809 c 2
 637 809 l 2
 663 809 684 795 684 776 c 2
 684 772 l 2x96c0
674 773 m 2
 674 776 l 2
 674 786 661 799 637 799 c 2
 635 799 l 2
 553 796 463 790 382 790 c 0xb5c0
 257 790 166 800 115 800 c 0
 104 800 95 799 87 798 c 0
 77 796 35 782 35 769 c 0
 35 766 38 758 57 747 c 0
 91 727 199 727 269 719 c 0
 288 717 309 711 311 673 c 0x8ec0
 317 586 319 476 319 330 c 0
 319 239 318 135 316 15 c 0
 316 4 329 -9 352 -9 c 2
 358 -9 l 2
 385 -6 404 12 404 25 c 0
 406 145 407 249 407 341 c 0
 407 488 405 601 399 687 c 0
 398 700 396 708 393 719 c 2
 388 732 l 1
 402 732 l 2xcdc0
 478 733 555 738 625 741 c 0
 650 742 671 758 674 773 c 2
EndSplineSet
EndChar

StartChar: U
Encoding: 85 85 57
Width: 820
GlyphClass: 2
Flags: MW
HStem: -24 10<299 496.5 299 499> 44 10<349 475 349 477> 789 10<162 169 162 162 657 664 657 657>
VStem: 96 10<203 363 203 363.5> 107 10<684.5 761 684.5 764.5> 194 10<218 373.5 218 374> 205 10<695.5 771.5> 603 10<754 761 754 764.5> 616 10<296 361.5> 704 10 714 10<307 375>
LayerCount: 2
Back
Fore
SplineSet
656 799 m 2xffc0
 664 799 l 2
 691 799 711 785 711 766 c 0
 714 595 724 425 724 326 c 0xffa0
 724 287 721 249 714 214 c 0
 688 87 596 -24 402 -24 c 0
 190 -24 96 88 96 314 c 0
 96 413 107 615 107 754 c 0
 107 775 131 796 161 799 c 2
 169 799 l 2
 195 799 215 785 215 766 c 0
 215 625 204 421 204 326 c 0
 204 110 280 54 418 54 c 0
 532 54 585 102 607 214 c 0
 613 244 616 278 616 314 c 0
 616 409 606 581 603 754 c 0
 603 775 626 796 656 799 c 2xffc0
657 789 m 2
 631 786 613 768 613 754 c 0
 616 581 626 410 626 314 c 0
 626 277 623 243 617 212 c 0
 594 97 536 44 418 44 c 0
 275 44 194 107 194 326 c 0
 194 422 205 625 205 766 c 0
 205 777 192 789 169 789 c 2
 162 789 l 2
 135 786 117 768 117 754 c 0
 117 615 106 412 106 314 c 0
 106 92 196 -14 402 -14 c 0
 591 -14 679 93 704 216 c 0xffc0
 711 250 714 288 714 326 c 0
 714 424 704 594 701 766 c 0
 701 777 689 789 664 789 c 2
 657 789 l 2
EndSplineSet
EndChar

StartChar: V
Encoding: 86 86 58
Width: 810
GlyphClass: 2
Flags: MW
HStem: -21 10<381 397 381 401.5> 781 10<711.5 727 724 727> 794 10<97 109.5>
VStem: 41 10<757 763.5 757 766.5> 759 10<755.5 762.5>
LayerCount: 2
Back
Fore
SplineSet
727 791 m 2
 752 790 769 775 769 757 c 0
 769 754 769 752 768 749 c 0
 735 637 607 294 455 11 c 1
 455 11 417 -21 386 -21 c 0
 372 -21 359 -14 352 6 c 0
 351 10 350 14 348 19 c 0
 290 188 150 573 45 745 c 0
 42 749 41 754 41 759 c 0
 41 774 54 791 74 799 c 0
 83 803 92 804 101 804 c 0
 120 804 138 797 145 785 c 0
 237 633 348 335 417 142 c 1
 537 388 636 665 662 755 c 0
 668 775 696 791 724 791 c 2
 727 791 l 2
727 781 m 2
 724 781 l 2
 699 781 676 766 672 752 c 0
 645 661 546 384 426 138 c 1
 416 116 l 1
 408 139 l 2
 339 331 228 629 136 780 c 0
 132 787 118 794 101 794 c 0
 93 794 86 793 78 790 c 0
 60 783 51 768 51 759 c 0
 51 755 52 753 53 751 c 1
 53 751 l 1
 54 750 l 1
 159 577 300 191 357 23 c 0
 359 17 360 14 362 9 c 0
 367 -7 376 -11 386 -11 c 0
 408 -11 439 11 447 17 c 1
 597 298 726 641 758 752 c 0
 759 754 759 754 759 757 c 0
 759 768 748 780 727 781 c 2
EndSplineSet
EndChar

StartChar: W
Encoding: 87 87 59
Width: 1100
GlyphClass: 2
Flags: MW
HStem: -10 10<765 781 765 786> 762 10<538 552> 790 10<104.5 117>
VStem: 46 10<752.5 754 749 763> 1045 10<764.5 770>
LayerCount: 2
Back
Fore
SplineSet
1014 799 m 2
 1038 797 1055 782 1055 765 c 0
 1055 762 1054 758 1053 755 c 0
 983 561 930 342 846 23 c 1
 846 23 802 -10 770 -10 c 0
 757 -10 747 -5 742 10 c 0
 741 13 740 17 739 20 c 0
 693 149 600 448 541 608 c 1
 482 430 391 116 356 16 c 1
 356 16 311 -13 280 -13 c 0
 266 -13 255 -8 251 8 c 0
 186 269 99 587 47 746 c 0
 46 749 46 751 46 754 c 0
 46 772 63 790 88 797 c 0
 94 799 101 800 107 800 c 0
 129 800 148 790 153 774 c 0
 194 648 266 386 318 169 c 1
 380 377 470 694 495 736 c 0
 511 763 528 772 543 772 c 0
 569 772 590 746 590 746 c 1
 617 704 724 384 794 168 c 1
 847 392 895 606 952 765 c 0
 960 785 982 799 1009 799 c 2
 1014 799 l 2
1014 789 m 2
 1009 789 l 2
 985 789 967 777 961 761 c 0
 905 604 857 390 804 166 c 2
 796 131 l 1
 784 165 l 1
 715 379 608 699 582 740 c 0
 579 744 561 762 543 762 c 0
 533 762 519 756 504 731 c 0
 481 692 389 374 328 166 c 2
 317 130 l 1
 308 167 l 2
 256 383 184 645 143 771 c 0
 140 781 127 790 107 790 c 0
 102 790 96 789 91 788 c 1
 91 787 l 1
 91 787 l 1
 68 781 56 766 56 754 c 2
 56 749 l 1
 109 590 196 272 261 10 c 0
 263 0 269 -3 280 -3 c 0
 302 -3 336 15 348 23 c 1
 383 124 473 435 532 611 c 1
 540 638 l 1
 550 611 l 2
 610 451 703 152 748 23 c 0
 750 19 751 16 751 13 c 0
 755 2 760 0 770 0 c 0
 792 0 826 21 837 29 c 1
 920 344 974 565 1044 758 c 0
 1044 760 1045 764 1045 765 c 0
 1045 775 1035 787 1014 789 c 2
EndSplineSet
EndChar

StartChar: X
Encoding: 88 88 60
Width: 780
GlyphClass: 2
Flags: MW
HStem: -9 10<74 87 74 88> 4 10<676 687.5 676 688.5> 789 10<147.5 160>
VStem: 31 10<20.5 27 20.5 28> 91 10<754 760 754 762.5> 687 10<763.5 770> 734 10<43.5 50.5>
LayerCount: 2
Back
Fore
SplineSet
122 793 m 0
 132 797 142 799 152 799 c 0
 170 799 186 793 194 781 c 0
 262 681 322 595 382 513 c 1
 447 595 516 681 598 777 c 0
 610 791 632 800 652 800 c 0
 659 800 666 798 673 796 c 0
 689 790 697 779 697 766 c 0
 697 758 694 750 688 743 c 0
 592 629 513 532 439 436 c 1
 525 321 616 207 737 67 c 0
 742 61 744 55 744 48 c 0
 744 34 734 21 717 12 c 0
 706 7 694 4 683 4 c 0
 667 4 652 9 643 19 c 0
 536 143 452 248 374 350 c 1
 296 246 221 140 133 16 c 0
 122 0 99 -9 77 -9 c 0
 71 -9 65 -9 59 -7 c 0
 41 -2 31 11 31 25 c 0
 31 31 33 38 37 44 c 0
 138 187 224 306 316 427 c 1
 245 523 176 622 96 739 c 0
 93 744 91 750 91 755 c 0
 91 770 102 784 122 793 c 0
126 784 m 0
 108 776 101 765 101 755 c 0
 101 753 102 749 104 744 c 0
 184 628 253 529 324 433 c 1
 324 433 328 427 328 427 c 1
 328 427 324 421 324 421 c 1
 232 300 146 181 45 38 c 0
 43 34 41 29 41 25 c 0
 41 16 47 7 62 3 c 1
 62 3 l 1
 62 2 l 1
 66 1 71 1 77 1 c 0
 97 1 116 9 125 22 c 0
 213 146 288 252 366 356 c 2
 374 367 l 1
 382 356 l 2
 460 254 544 149 651 26 c 0
 657 19 669 14 683 14 c 0
 692 14 702 16 713 21 c 0
 727 29 734 39 734 48 c 0
 734 53 733 56 729 61 c 0
 608 201 517 315 431 430 c 1
 426 436 l 1
 431 442 l 1
 505 538 584 635 680 749 c 0
 685 755 687 761 687 766 c 0
 687 774 683 781 670 786 c 0
 664 788 657 790 652 790 c 0
 635 790 615 782 606 770 c 0
 524 675 455 589 390 507 c 2
 382 497 l 1
 374 507 l 1
 314 589 254 675 186 775 c 0
 180 784 168 789 152 789 c 0
 143 789 134 787 126 784 c 0
EndSplineSet
EndChar

StartChar: Y
Encoding: 89 89 61
Width: 720
GlyphClass: 2
Flags: MW
HStem: -20 10<352 363.5 352 364.5> 789 10<628.5 647 640 647> 800 10<94 107>
VStem: 35 10<763.5 770 763.5 773> 310 10<155 195> 408 10<167 206> 414 10<25 28 15 28> 675 10<765 771>
LayerCount: 2
Back
Fore
SplineSet
647 799 m 2xfb
 670 797 685 783 685 766 c 0
 685 762 684 758 682 754 c 0
 627 626 577 537 536 472 c 0
 457 348 420 317 419 265 c 0
 418 241 418 218 418 194 c 0xfd
 418 140 420 86 424 28 c 1
 424 25 l 2
 424 5 402 -15 373 -19 c 0
 370 -19 366 -20 363 -20 c 0
 338 -20 318 -7 316 12 c 0
 312 71 310 127 310 183 c 0
 310 207 310 231 311 255 c 0
 311 273 314 289 319 305 c 1
 267 332 223 383 182 448 c 0
 126 535 75 646 37 755 c 0
 36 758 35 761 35 764 c 0
 35 782 52 800 77 807 c 0
 84 809 90 810 97 810 c 0
 119 810 138 800 143 785 c 0
 179 680 230 571 282 490 c 0
 309 449 337 404 360 382 c 1
 381 413 408 449 438 496 c 0
 477 557 525 642 578 766 c 0
 586 785 614 799 640 799 c 2
 647 799 l 2xfb
647 789 m 2
 640 789 l 2
 617 789 593 776 587 762 c 0
 534 638 486 552 446 491 c 0
 416 443 389 407 368 376 c 2
 362 367 l 1
 353 375 l 2
 328 398 301 444 274 485 c 0
 221 567 170 676 134 782 c 0
 131 791 117 800 97 800 c 0
 91 800 86 799 80 797 c 0
 57 791 45 776 45 764 c 0
 45 763 45 761 46 758 c 0
 84 650 135 539 190 453 c 0
 231 389 274 340 324 314 c 2
 331 310 l 1
 329 302 l 2
 324 287 321 272 321 255 c 0
 320 231 320 207 320 183 c 0
 320 127 322 71 326 13 c 0
 327 1 341 -10 363 -10 c 0
 364 -10 366 -9 372 -9 c 0
 397 -5 414 12 414 25 c 2
 414 28 l 1xfb
 410 85 408 140 408 194 c 0
 408 218 408 241 409 265 c 0
 410 323 450 355 528 477 c 0
 568 542 618 630 673 758 c 1
 673 758 l 1
 673 758 l 1
 674 761 675 764 675 766 c 0
 675 776 667 787 647 789 c 2
EndSplineSet
EndChar

StartChar: Z
Encoding: 90 90 62
Width: 750
GlyphClass: 2
Flags: MW
HStem: -13 10<245.5 378.5 243 379> 64 10<323 414.5> 75 10<649 658 649 658> 709 10<287.5 350.5> 779 10<318 390> 785 10<129 149 144 149> 790 10<626 640 626 640>
VStem: 46 10<37 101 37 105> 66 10<742 747 742 748> 679 10<774 779.5> 699 10<52 53 51 58>
LayerCount: 2
Back
Fore
SplineSet
709 51 m 2xfbe0
 707 29 676 8 641 5 c 0
 577 -1 442 -13 316 -13 c 0
 175 -13 46 2 46 58 c 0
 46 152 277 410 517 715 c 1
 444 711 383 709 318 709 c 0
 257 709 192 711 111 715 c 0
 84 717 66 729 66 746 c 0
 66 750 67 754 69 758 c 0
 78 779 112 795 144 795 c 2
 149 795 l 1xf5e0
 228 791 289 789 347 789 c 0
 433 789 511 793 626 800 c 1
 640 800 l 2
 678 800 689 790 689 778 c 0
 689 764 675 749 675 749 c 1
 434 441 201 162 176 85 c 1
 207 77 281 74 365 74 c 0
 464 74 577 78 649 85 c 1
 658 85 l 2
 687 85 709 72 709 53 c 2
 709 51 l 2xfbe0
699 52 m 2
 699 53 l 2
 699 63 686 75 658 75 c 2
 649 75 l 1
 578 68 464 64 365 64 c 0
 281 64 207 67 174 75 c 2
 163 78 l 1
 166 88 l 2
 193 170 426 447 667 755 c 1
 667 755 l 1
 668 756 l 1
 668 756 679 770 679 778 c 0
 679 781 678 790 640 790 c 2
 626 790 l 1
 512 783 433 779 347 779 c 0xfbe0
 289 779 227 781 149 785 c 1
 144 785 l 2
 114 785 85 769 78 754 c 1
 78 754 l 1
 78 754 l 1
 77 751 76 748 76 746 c 0
 76 738 86 727 112 725 c 0
 192 721 257 719 318 719 c 0
 383 719 444 721 516 725 c 2
 539 726 l 1
 525 709 l 1
 284 403 56 144 56 58 c 0
 56 16 170 -3 316 -3 c 0
 441 -3 576 9 640 15 c 0
 673 18 697 38 699 52 c 2
EndSplineSet
EndChar

StartChar: bracketleft
Encoding: 91 91 63
Width: 360
GlyphClass: 2
Flags: MW
HStem: -91 10<98 135 108 135> -44 10<145 179.5> 830 10<153 186 153 153> 877 10<203.5 228.5>
VStem: 71 10<854 858 854 858 854 863> 92 10<336 500.5> 161 10<339 491.5> 289 10<-59 -56 -60 -53>
LayerCount: 2
Back
Fore
SplineSet
299 -60 m 2
 296 -76 275 -89 254 -89 c 0
 239 -89 189 -91 135 -91 c 2
 108 -91 l 2
 88 -91 75 -79 75 -66 c 2
 75 -65 l 1
 87 104 92 265 92 407 c 0
 92 594 83 749 71 853 c 1
 71 858 l 2
 71 868 75 889 114 889 c 2
 118 889 l 2
 147 888 188 887 219 887 c 0
 238 887 254 887 262 888 c 2
 267 888 l 2
 286 888 300 878 300 864 c 2
 300 863 l 2
 299 847 280 834 258 832 c 0
 241 831 215 830 186 830 c 2
 153 830 l 1
 164 724 171 577 171 406 c 0
 171 272 167 124 156 -34 c 1
 203 -34 247 -31 266 -31 c 0
 285 -31 299 -42 299 -56 c 2
 299 -60 l 2
289 -59 m 2
 289 -56 l 2
 289 -50 282 -41 266 -41 c 0
 248 -41 203 -44 156 -44 c 2
 145 -44 l 1
 146 -33 l 2
 157 124 161 272 161 406 c 0
 161 577 154 723 143 829 c 2
 142 840 l 1
 186 840 l 2
 215 840 241 841 257 842 c 0
 276 844 289 855 290 863 c 2
 290 864 l 2
 290 870 283 878 267 878 c 2
 263 878 l 2
 255 877 238 877 219 877 c 0
 188 877 147 878 118 879 c 2
 114 879 l 2
 81 879 81 864 81 858 c 2
 81 854 l 1
 93 750 102 594 102 407 c 0
 102 265 97 105 85 -65 c 1
 85 -66 l 2
 85 -72 92 -81 108 -81 c 2
 135 -81 l 2
 189 -81 238 -79 254 -79 c 0
 271 -79 287 -68 289 -59 c 2
EndSplineSet
EndChar

StartChar: backslash
Encoding: 92 92 64
Width: 480
GlyphClass: 2
Flags: MW
HStem: -29 10<389 397.5 389 398> 819 10<83 92>
VStem: 40 10<795 796 794 802.5> 430 10<2 5.5>
LayerCount: 2
Back
Fore
SplineSet
71 827 m 0
 76 828 80 829 85 829 c 0
 101 829 115 822 119 810 c 0
 210 535 312 276 438 13 c 0
 439 10 440 8 440 5 c 0
 440 -7 428 -20 412 -26 c 0
 406 -28 401 -29 395 -29 c 0
 381 -29 367 -23 362 -13 c 0
 236 252 132 513 41 790 c 0
 40 792 40 794 40 796 c 0
 40 809 53 822 71 827 c 0
73 817 m 0
 58 813 50 802 50 796 c 2
 50 794 l 1
 50 794 l 1
 51 793 l 1
 141 517 245 256 371 -9 c 0
 373 -13 383 -19 395 -19 c 0
 400 -19 404 -18 409 -17 c 0
 422 -11 430 -1 430 5 c 0
 430 6 430 5 429 9 c 0
 303 271 200 532 110 807 c 0
 107 813 99 819 85 819 c 0
 81 819 80 819 73 817 c 0
EndSplineSet
EndChar

StartChar: bracketright
Encoding: 93 93 65
Width: 360
GlyphClass: 2
Flags: MW
HStem: -90 10<83.5 97 93 97 93 98> -42 10<159.5 207 174 207 174 218> 829 10<86 103 86 103.5> 879 10<198 252 225 252>
VStem: 61 10<854 857 851 858 851 858> 189 10<306.5 459> 258 10<297.5 462> 279 10<-60 -56 -56 -56>
LayerCount: 2
Back
Fore
SplineSet
61 858 m 2
 64 874 85 887 106 887 c 0
 121 887 171 889 225 889 c 2
 252 889 l 2
 272 889 285 877 285 864 c 2
 285 863 l 1
 273 694 268 533 268 391 c 0
 268 204 277 49 289 -55 c 1
 289 -60 l 2
 289 -70 285 -91 246 -91 c 2
 242 -91 l 2
 213 -90 172 -89 141 -89 c 0
 122 -89 106 -89 98 -90 c 2
 93 -90 l 2
 74 -90 60 -80 60 -66 c 2
 60 -65 l 2
 61 -49 80 -36 102 -34 c 0
 119 -33 145 -32 174 -32 c 2
 207 -32 l 1
 196 74 189 221 189 392 c 0
 189 526 193 674 204 832 c 1
 157 832 113 829 94 829 c 0
 75 829 61 840 61 854 c 2
 61 858 l 2
71 857 m 2
 71 854 l 2
 71 848 78 839 94 839 c 0
 112 839 157 842 204 842 c 2
 215 842 l 1
 214 831 l 2
 203 674 199 526 199 392 c 0
 199 221 206 75 217 -31 c 2
 218 -42 l 1
 174 -42 l 2
 145 -42 119 -43 103 -44 c 0
 84 -46 71 -57 70 -65 c 2
 70 -66 l 2
 70 -72 77 -80 93 -80 c 2
 97 -80 l 2
 105 -79 122 -79 141 -79 c 0
 172 -79 213 -80 242 -81 c 2
 246 -81 l 2
 279 -81 279 -66 279 -60 c 2
 279 -56 l 1
 267 48 258 204 258 391 c 0
 258 533 263 693 275 863 c 1
 275 864 l 2
 275 870 268 879 252 879 c 2
 225 879 l 2
 171 879 122 877 106 877 c 0
 89 877 73 866 71 857 c 2
EndSplineSet
EndChar

StartChar: asciicircum
Encoding: 94 94 66
Width: 510
GlyphClass: 2
Flags: MW
HStem: 532 10<39 49.5 39 51.5> 839 10<249.5 260>
VStem: 23 10<545.5 548 545.5 549.5>
LayerCount: 2
Back
Fore
SplineSet
288 834 m 0
 376 746 473 594 483 573 c 1
 483 573 475 531 447 531 c 0
 441 531 435 532 427 537 c 0
 399 554 326 649 256 724 c 1
 186 645 111 558 76 538 c 1
 76 538 59 532 44 532 c 0
 33 532 23 535 23 547 c 0
 23 552 25 558 28 565 c 0
 40 591 148 731 221 826 c 1
 221 826 235 849 257 849 c 0
 266 849 277 845 288 834 c 0
281 827 m 0
 271 836 263 839 257 839 c 0
 242 839 230 821 230 821 c 1
 229 820 l 1
 229 820 l 1
 156 725 47 583 37 561 c 0
 34 555 33 549 33 547 c 0
 33 544 34 542 44 542 c 0
 55 542 68 546 72 547 c 0
 103 566 179 652 249 731 c 2
 256 739 l 1
 263 731 l 2
 333 656 408 560 432 546 c 0
 439 541 442 541 447 541 c 0
 460 541 469 560 472 572 c 1
 457 601 364 744 281 827 c 0
EndSplineSet
EndChar

StartChar: underscore
Encoding: 95 95 67
Width: 600
GlyphClass: 2
Flags: MW
HStem: -69 10<276 360> -6 10<313 395> 1 10<77 93 88 93>
VStem: 30 10<-34.5 -29.5 -34.5 -28.5> 559 10<-27 -24 -28 -19.5>
LayerCount: 2
Back
Fore
SplineSet
32 -21 m 0xd8
 39 -3 63 11 88 11 c 2
 93 11 l 1xb8
 147 6 259 4 367 4 c 0
 423 4 479 4 525 6 c 2
 527 6 l 2
 551 6 569 -7 569 -24 c 2
 569 -28 l 2
 566 -47 542 -65 515 -66 c 0
 459 -68 393 -69 327 -69 c 0
 225 -69 124 -66 67 -61 c 0
 45 -59 30 -46 30 -30 c 0
 30 -27 31 -24 32 -21 c 0xd8
41 -24 m 0
 41 -27 40 -29 40 -30 c 0
 40 -39 49 -49 68 -51 c 0
 124 -56 225 -59 327 -59 c 0
 393 -59 459 -58 515 -56 c 0
 538 -55 556 -40 559 -27 c 2
 559 -24 l 2
 559 -15 548 -4 527 -4 c 2
 525 -4 l 2
 479 -6 423 -6 367 -6 c 0xd8
 259 -6 148 -4 93 1 c 1
 88 1 l 2
 66 1 46 -12 41 -24 c 0
EndSplineSet
EndChar

StartChar: grave
Encoding: 96 96 68
Width: 360
GlyphClass: 2
Flags: MW
HStem: 541 10<294 301 294 308.5> 838 10<81.5 92>
VStem: 20 10<780.5 783 780.5 785>
LayerCount: 2
Back
Fore
SplineSet
27 798 m 2
 53 828 l 1
 53 828 68 848 89 848 c 0
 98 848 108 844 119 834 c 0
 207 751 312 606 323 583 c 1
 323 583 321 541 296 541 c 0
 291 541 285 542 277 547 c 0
 248 564 111 699 29 764 c 0
 23 769 20 776 20 782 c 0
 20 788 23 793 27 798 c 2
35 792 m 2
 31 787 30 784 30 782 c 0
 30 779 32 775 35 772 c 0
 117 707 256 571 282 556 c 0
 289 551 292 551 296 551 c 0
 306 551 311 568 313 581 c 1
 297 609 196 748 112 827 c 0
 103 835 95 838 89 838 c 0
 74 838 61 822 61 822 c 1
 61 822 l 1
 35 792 l 2
EndSplineSet
EndChar

StartChar: a
Encoding: 97 97 69
Width: 680
GlyphClass: 2
Flags: MW
HStem: -21 10<203.5 344.5 203.5 347.5> -11 10<605.5 615 605.5 616.5> 41 10<256 326.5 256 330.5> 362 10<467.5 493> 432 10<471 489 483 489 483 490> 549 10<327.5 393> 611 10<294 451.5>
VStem: 60 10<170 246.5 170 247> 149 10<187.5 256 187.5 256.5> 441 10<457.5 475> 529 10<466.5 483.5> 649 10<27.5 34>
LayerCount: 2
Back
Fore
SplineSet
540 360 m 1xbff0
 582 92 616 63 633 59 c 0
 650 55 659 43 659 30 c 0
 659 24 658 18 654 13 c 0
 644 -1 626 -11 607 -11 c 0x7ff0
 602 -11 597 -10 592 -9 c 0
 547 4 518 43 491 150 c 1
 464 64 412 -21 283 -21 c 0
 117 -21 60 105 60 232 c 0
 60 262 63 292 69 320 c 0
 96 455 195 621 386 621 c 0
 526 621 539 496 539 472 c 0
 539 453 517 435 490 432 c 2
 483 432 l 2
 459 432 441 445 441 462 c 0
 441 488 414 549 372 549 c 0
 283 549 195 456 167 320 c 0
 162 294 159 268 159 244 c 0
 159 131 215 51 297 51 c 0
 356 51 404 111 427 226 c 0
 434 263 439 301 441 336 c 0
 442 350 454 372 473 372 c 0
 514 372 540 360 540 360 c 1xbff0
531 351 m 1
 536 351 l 1
 536 351 513 362 473 362 c 0
 462 362 452 347 451 335 c 0
 449 300 444 262 437 224 c 0
 414 108 364 41 297 41 c 0
 207 41 149 129 149 244 c 0
 149 269 152 295 157 322 c 0
 186 460 276 559 372 559 c 0
 424 559 451 491 451 462 c 0
 451 453 462 442 483 442 c 2
 489 442 l 2
 513 445 529 461 529 472 c 0
 529 495 517 611 386 611 c 0
 202 611 105 451 79 318 c 0
 73 291 70 261 70 232 c 0
 70 108 124 -11 283 -11 c 0xbff0
 406 -11 455 69 481 153 c 2
 492 187 l 1
 501 152 l 2
 527 46 555 12 594 1 c 0
 598 0 604 -1 607 -1 c 0
 623 -1 638 7 646 19 c 1
 646 19 l 1
 646 19 l 1
 648 22 649 25 649 30 c 0
 649 38 644 46 631 49 c 0
 605 55 572 92 531 351 c 1
EndSplineSet
EndChar

StartChar: b
Encoding: 98 98 70
Width: 670
GlyphClass: 2
Flags: MW
HStem: -21 10<224.5 368 224.5 371> 41 10<266.5 338.5 266.5 341.5> 524 10<245.5 256 245.5 257> 546 10<346.5 399.5> 607 10<351.5 373 371 373> 836 10<134 145.5>
VStem: 81 10<802 805> 91 10<89.5 178.5 89.5 178.5> 179 10<112 193 112 193> 211 10<553 558 553 561> 504 10<324.5 395.5> 593 10<336 414.5>
LayerCount: 2
Back
Fore
SplineSet
214 542 m 0xfef0
 212 546 211 550 211 554 c 0
 211 568 223 583 242 591 c 0
 287 608 330 617 371 617 c 2
 373 617 l 2
 541 617 603 482 603 350 c 0
 603 321 600 292 594 264 c 0
 568 133 469 -21 273 -21 c 0
 172 -21 91 47 91 125 c 0xfdf0
 91 232 93 356 93 470 c 0
 93 616 91 745 81 801 c 1
 81 805 l 2
 81 823 99 840 124 845 c 0
 128 846 132 846 136 846 c 0
 158 846 176 835 179 819 c 0
 189 761 192 642 192 507 c 0
 192 385 189 251 189 135 c 0
 189 89 246 51 287 51 c 0
 390 51 471 136 497 264 c 0
 502 289 504 313 504 336 c 0
 504 455 442 546 357 546 c 0
 336 546 310 541 278 529 c 0
 270 526 261 524 253 524 c 0
 236 524 221 531 214 542 c 0xfef0
223 547 m 0
 227 541 238 534 253 534 c 0
 259 534 267 536 274 538 c 0
 307 551 334 556 357 556 c 0
 450 556 514 457 514 336 c 0
 514 312 512 288 507 262 c 0
 480 131 396 41 287 41 c 0
 242 41 179 81 179 135 c 0
 179 251 182 385 182 507 c 2
 182 554 l 2
 181 669 178 768 169 817 c 0
 167 826 155 836 136 836 c 0
 132 836 129 836 126 835 c 1
 126 835 l 1
 126 835 l 1
 104 831 91 816 91 805 c 2
 91 802 l 1xfef0
 101 745 103 616 103 470 c 0
 103 356 101 232 101 125 c 0
 101 54 176 -11 273 -11 c 0
 463 -11 559 138 584 266 c 0
 590 293 593 322 593 350 c 0
 593 479 533 607 373 607 c 2
 371 607 l 2
 332 607 289 598 246 582 c 0
 229 575 221 562 221 554 c 0
 221 552 221 550 223 547 c 0
EndSplineSet
EndChar

StartChar: c
Encoding: 99 99 71
Width: 600
GlyphClass: 2
Flags: MW
HStem: -22 10<254 328 254 328.5> 44 10<303.5 343 303.5 343> 133 10<507.5 519> 433 10<465.5 484 478 484 478 485> 548 10<334.5 361.5> 614 10<347 401>
VStem: 58 10<187 388 187 390> 152 10<202.5 392.5 202.5 394.5> 433 10<460 492.5> 527 10<469 516.5> 552 10<109 114>
LayerCount: 2
Back
Fore
SplineSet
532 141 m 0
 551 137 562 124 562 110 c 0
 562 105 560 99 557 94 c 0
 519 32 441 -11 357 -20 c 0
 346 -21 334 -22 323 -22 c 0
 179 -22 58 80 58 290 c 0
 58 490 178 607 322 622 c 0
 332 623 342 624 351 624 c 0
 454 624 537 565 537 475 c 0
 537 455 513 436 485 433 c 2
 478 433 l 2
 453 433 433 447 433 465 c 0
 433 520 386 548 337 548 c 0
 332 548 327 548 322 547 c 0
 264 541 162 485 162 300 c 0
 162 105 267 54 340 54 c 0
 346 54 352 54 357 55 c 0
 401 60 442 82 463 116 c 0
 473 132 495 143 517 143 c 0
 522 143 527 142 532 141 c 0
530 131 m 0
 525 132 521 133 517 133 c 0
 498 133 479 123 471 111 c 0
 449 74 406 51 359 45 c 0
 353 44 346 44 340 44 c 0
 262 44 152 100 152 300 c 0
 152 489 257 550 320 557 c 0
 326 558 332 558 337 558 c 0
 389 558 443 527 443 465 c 0
 443 455 456 443 478 443 c 2
 484 443 l 2
 509 446 527 463 527 475 c 0
 527 558 451 614 351 614 c 0
 343 614 333 613 323 612 c 0
 184 598 68 486 68 290 c 0
 68 84 185 -12 323 -12 c 0
 333 -12 345 -11 356 -10 c 0
 437 -1 513 41 548 99 c 0
 551 103 552 108 552 110 c 0
 552 118 545 128 530 131 c 0
EndSplineSet
EndChar

StartChar: d
Encoding: 100 100 72
Width: 720
GlyphClass: 2
Flags: MW
HStem: -21 10<224.5 367 224.5 370 632 643> 41 10<279.5 343.5 279.5 346.5> 544 10<307 394.5> 606 10<278 390> 836 10<532.5 543>
VStem: 61 10<208 288 208 288.5> 149 10<218 297 218 297> 476 10<324 371 371 422 422 422 803 804> 564 10<336 381 336 422> 679 10<18 24>
LayerCount: 2
Back
Fore
SplineSet
523 845 m 0
 526 845 530 846 533 846 c 0
 556 846 573 834 574 817 c 0
 577 770 577 721 577 672 c 0
 577 568 574 463 574 381 c 2
 574 336 l 2
 576 257 586 192 600 144 c 0
 620 77 652 51 660 49 c 0
 678 45 689 34 689 20 c 0
 689 15 688 10 685 5 c 0
 676 -10 655 -21 634 -21 c 0
 629 -21 624 -20 620 -19 c 0
 564 -5 534 51 514 120 c 0
 513 123 513 125 512 128 c 1
 480 60 427 -21 313 -21 c 0
 128 -21 61 139 61 275 c 0
 61 302 64 330 69 357 c 0
 93 478 183 616 367 616 c 0
 415 616 452 604 479 586 c 1
 479 662 l 2
 479 711 479 758 476 803 c 2
 476 804 l 2
 476 823 497 841 523 845 c 0
476 422 m 1
 465 474 436 544 353 544 c 0
 261 544 189 474 166 357 c 0
 161 334 159 309 159 285 c 0
 159 151 232 51 327 51 c 0
 360 51 403 79 437 151 c 0
 457 193 470 242 478 285 c 0
 477 298 476 310 476 324 c 2
 476 371 l 1
 476 422 l 1
524 835 m 0
 501 831 486 816 486 804 c 2
 486 803 l 2
 489 759 489 711 489 662 c 2
 489 567 l 1
 473 578 l 2
 448 594 413 606 367 606 c 0
 189 606 102 473 79 355 c 0
 74 329 71 301 71 275 c 0
 71 141 136 -11 313 -11 c 0
 421 -11 471 65 503 132 c 2
 514 155 l 1
 521 131 l 2
 523 127 523 125 524 123 c 0
 544 54 572 3 622 -9 c 0
 626 -10 630 -11 634 -11 c 0
 652 -11 670 -1 676 10 c 0
 678 13 679 16 679 20 c 0
 679 28 673 36 658 39 c 0
 643 43 611 73 590 141 c 0
 576 190 566 256 564 336 c 2
 564 381 l 2
 564 463 567 568 567 672 c 0
 567 721 567 770 564 816 c 0
 563 826 553 836 533 836 c 0
 532 836 529 835 524 835 c 0
486 424 m 1
 486 423 l 1
 486 324 l 2
 486 310 487 299 488 286 c 2
 488 284 l 1
 488 283 l 1
 480 240 467 190 446 147 c 0
 411 73 366 41 327 41 c 0
 224 41 149 148 149 285 c 0
 149 309 151 335 156 359 c 0
 180 479 255 554 353 554 c 0
 443 554 475 477 486 424 c 1
EndSplineSet
EndChar

StartChar: e
Encoding: 101 101 73
Width: 630
GlyphClass: 2
Flags: MW
HStem: -20 10<327 385 327 386.5> 42 10<348 381.5 348 383> 131 10<528.5 538.5> 552 10<353 384.5> 613 10<367 425>
VStem: 45 10<253 256 249.5 256> 71 10<288 302 282 395.5> 159 10<299 299 299 301 301 313> 471 10<397 482.5> 559 10<384.5 503> 570 10<108.5 113.5>
LayerCount: 2
Back
Fore
SplineSet
177 229 m 1
 198 120 258 73 312 58 c 0
 326 54 341 52 355 52 c 0
 408 52 459 77 486 117 c 0
 496 131 517 141 537 141 c 0
 542 141 548 140 553 139 c 0
 570 134 580 123 580 110 c 0
 580 105 578 98 574 93 c 0
 527 26 434 -20 339 -20 c 0
 314 -20 289 -17 265 -10 c 0
 169 16 97 92 76 225 c 1
 57 229 45 239 45 253 c 2
 45 256 l 2
 46 268 57 281 71 288 c 1
 71 302 l 2
 71 489 192 603 337 621 c 0
 349 622 361 623 372 623 c 0
 482 623 569 558 569 455 c 0
 569 304 408 252 249 235 c 2
 177 229 l 1
169 299 m 1
 197 301 224 303 249 306 c 0
 397 322 471 349 471 445 c 0
 471 520 413 552 356 552 c 0
 350 552 345 552 339 551 c 0
 272 543 169 482 169 313 c 2
 169 301 l 1
 169 299 l 1
167 227 m 2
 165 238 l 1
 248 245 l 2
 408 262 559 314 559 455 c 0
 559 551 478 613 372 613 c 0
 362 613 350 612 338 611 c 0
 198 594 81 484 81 302 c 2
 81 282 l 1
 75 279 l 2
 64 273 56 263 55 256 c 2
 55 253 l 2
 55 246 61 238 78 235 c 2
 85 233 l 1
 86 227 l 2
 106 97 176 25 268 0 c 0
 291 -7 315 -10 339 -10 c 0
 431 -10 521 35 566 99 c 1
 566 99 l 1
 566 99 l 1
 568 102 570 107 570 110 c 0
 570 117 565 125 551 129 c 0
 547 130 540 131 537 131 c 0
 520 131 502 122 494 111 c 0
 465 68 411 42 355 42 c 0
 340 42 324 44 309 48 c 0
 252 64 189 115 167 227 c 2
170 289 m 2
 159 288 l 1
 159 313 l 2
 159 487 267 552 337 561 c 0
 344 562 350 562 356 562 c 0
 416 562 481 527 481 445 c 0
 481 340 397 312 250 296 c 0
 225 293 198 291 170 289 c 2
EndSplineSet
EndChar

StartChar: f
Encoding: 102 102 74
Width: 480
GlyphClass: 2
Flags: MW
HStem: -20 10<196 214 208 214 208 215> 521 10<248 263> 586 10<365 367 365 367> 591 10<67 83 78 83> 759 10<417.5 428 417.5 429> 803 10<293 314.5> 864 10<293.5 339>
VStem: 20 10<555.5 560.5 555.5 561.5> 132 10<712 737 712 738.5> 166 10<5.5 25 5.5 25> 219 9 255 10<92 187.5> 399 10<563 566 562 570.5> 469 10<798 803.5>
LayerCount: 2
Back
Fore
SplineSet
215 -20 m 2xeffc
 208 -20 l 2
 184 -20 166 -7 166 10 c 0
 166 40 167 68 167 96 c 0
 167 265 160 400 149 523 c 1
 119 524 90 526 57 529 c 0
 35 531 20 544 20 560 c 0
 20 563 21 566 22 569 c 0
 29 587 53 601 78 601 c 2
 83 601 l 2xdffc
 105 599 129 597 147 596 c 1
 142 630 137 664 133 697 c 0
 132 703 132 709 132 715 c 0
 132 762 151 806 195 837 c 0
 229 862 271 874 314 874 c 0
 366 874 421 856 468 822 c 0
 476 816 479 809 479 801 c 0
 479 791 473 780 462 772 c 0
 451 764 436 759 422 759 c 0
 411 759 400 762 392 768 c 0
 356 795 326 803 303 803 c 0
 283 803 268 797 259 790 c 0
 243 778 228 755 228 724 c 0
 228 720 229 717 229 713 c 0
 231 674 234 634 237 593 c 1
 270 593 313 594 365 596 c 2
 367 596 l 2
 391 596 409 583 409 566 c 2
 409 562 l 2
 406 543 382 525 355 524 c 0
 313 522 278 521 248 521 c 1
 258 401 265 269 265 106 c 0
 265 78 264 50 264 20 c 0
 264 1 242 -17 215 -20 c 2xeffc
214 -10 m 2
 238 -7 254 9 254 20 c 0
 254 50 255 78 255 106 c 0
 255 269 248 400 238 520 c 2
 237 531 l 1
 248 531 l 2
 278 531 313 532 355 534 c 0
 378 535 396 550 399 563 c 2
 399 566 l 2
 399 575 388 586 367 586 c 2
 365 586 l 2xeffc
 314 584 270 583 237 583 c 2
 228 583 l 1
 227 592 l 2
 224 633 221 673 219 712 c 2
 219 713 l 1
 219 713 l 1
 219 715 218 718 218 724 c 0
 218 758 235 784 253 798 c 0
 264 806 281 813 303 813 c 0
 328 813 361 804 398 776 c 0
 404 772 413 769 422 769 c 0
 434 769 447 773 456 780 c 0
 465 787 469 795 469 801 c 0
 469 806 468 810 462 814 c 0
 417 847 364 864 314 864 c 0
 273 864 233 853 201 829 c 0
 159 800 142 759 142 715 c 0
 142 709 142 704 143 698 c 0
 147 665 152 632 157 597 c 2
 159 585 l 1
 146 586 l 2
 128 587 106 589 83 591 c 2
 78 591 l 2
 56 591 36 578 31 566 c 0
 31 563 30 561 30 560 c 0
 30 551 39 541 58 539 c 0
 91 536 120 534 149 533 c 2
 158 533 l 1
 159 524 l 2
 170 401 177 265 177 96 c 0
 177 68 176 40 176 10 c 0
 176 1 187 -10 208 -10 c 2
 214 -10 l 2
EndSplineSet
EndChar

StartChar: g
Encoding: 103 103 75
Width: 650
GlyphClass: 2
Flags: MW
HStem: -266 10<297.5 402 297.5 405> -204 10<326.5 378 326.5 380.5> -144 10<202 213> -21 10<203.5 341.5 203.5 345> 41 10<256 326.5 256 330.5> 366 10<468.5 485> 432 10<471 489 483 489 483 490> 549 10<327.5 393> 611 10<294 451.5>
VStem: 60 10<170 246.5 170 247> 150 10<-177 -172 -177 -169.5> 441 10<457.5 475> 493 10<52.5 92> 529 10<466.5 483.5> 572 10<36.5 99>
LayerCount: 2
Back
Fore
SplineSet
539 356 m 1
 567 247 582 143 582 57 c 0
 582 16 579 -22 572 -57 c 0
 550 -169 477 -266 333 -266 c 0
 260 -266 189 -238 155 -190 c 0
 152 -186 150 -181 150 -176 c 0
 150 -163 161 -148 179 -140 c 0
 188 -136 197 -134 206 -134 c 0
 222 -134 237 -140 245 -150 c 0
 265 -178 306 -194 347 -194 c 0
 409 -194 459 -163 480 -57 c 0
 488 -18 493 27 493 78 c 0
 493 106 492 135 488 166 c 1
 460 75 407 -21 283 -21 c 0
 117 -21 60 105 60 232 c 0
 60 262 63 292 69 320 c 0
 96 455 195 621 386 621 c 0
 526 621 539 496 539 472 c 0
 539 453 517 435 490 432 c 2
 483 432 l 2
 459 432 441 445 441 462 c 0
 441 488 414 549 372 549 c 0
 283 549 195 456 167 320 c 0
 162 294 159 268 159 244 c 0
 159 131 215 51 297 51 c 0
 356 51 404 111 427 226 c 0
 434 263 439 301 441 336 c 0
 442 355 452 376 477 376 c 0
 501 376 539 356 539 356 c 1
530 349 m 1
 521 354 493 366 477 366 c 0
 460 366 452 352 451 335 c 0
 449 300 444 262 437 224 c 0
 414 108 364 41 297 41 c 0
 207 41 149 129 149 244 c 0
 149 269 152 295 157 322 c 0
 186 460 276 559 372 559 c 0
 424 559 451 491 451 462 c 0
 451 453 462 442 483 442 c 2
 489 442 l 2
 513 445 529 461 529 472 c 0
 529 495 517 611 386 611 c 0
 202 611 105 451 79 318 c 0
 73 291 70 261 70 232 c 0
 70 108 124 -11 283 -11 c 0
 400 -11 451 79 478 169 c 2
 492 213 l 1
 498 167 l 2
 502 136 503 106 503 78 c 0
 503 26 498 -19 490 -59 c 0
 468 -168 414 -204 347 -204 c 0
 304 -204 261 -188 237 -156 c 0
 232 -150 220 -144 206 -144 c 0
 198 -144 191 -146 183 -149 c 0
 168 -156 160 -168 160 -176 c 0
 160 -178 161 -181 163 -184 c 0
 195 -229 262 -256 333 -256 c 0
 471 -256 541 -164 562 -55 c 0
 569 -21 572 16 572 57 c 0
 572 141 558 241 530 349 c 1
EndSplineSet
EndChar

StartChar: h
Encoding: 104 104 76
Width: 670
GlyphClass: 2
Flags: MW
HStem: -14 10<129 143.5 129 148.5> 549 10<375.5 436> 611 10<365 496> 836 10<119.5 130.5>
VStem: 65 10<804.5 809.5 804.5 813> 106 10<10.5 15 10.5 15> 187 10<425 425> 491 10<297 433 297 433.5> 496 10<14.5 19 14.5 19> 579 10<307 436.5 307 437> 584 10<25 31>
LayerCount: 2
Back
Fore
SplineSet
133 -14 m 0xff
 118 -14 106 1 106 15 c 0
 105 304 87 745 67 796 c 0
 66 799 65 802 65 805 c 0
 65 821 80 836 102 843 c 0
 108 845 116 846 122 846 c 0
 141 846 158 838 163 824 c 0
 181 779 191 613 197 425 c 1
 230 523 292 621 432 621 c 0
 570 621 589 503 589 370 c 0xff40
 589 244 592 136 594 31 c 0
 594 12 573 -7 546 -10 c 2
 538 -10 l 2
 514 -10 496 2 496 19 c 0xfea0
 494 124 491 234 491 360 c 0
 491 507 454 549 418 549 c 0
 333 549 279 461 249 324 c 0
 211 153 212 106 204 12 c 1
 204 12 164 -14 133 -14 c 0xff
133 -4 m 0
 154 -4 183 11 194 18 c 1
 202 107 202 158 239 326 c 0
 269 463 325 559 418 559 c 0
 464 559 501 506 501 360 c 0xff40
 501 234 504 124 506 19 c 0
 506 10 516 0 538 0 c 2
 545 0 l 2
 569 3 584 19 584 31 c 0xfea0
 582 136 579 244 579 370 c 0
 579 504 560 611 432 611 c 0
 298 611 239 518 206 422 c 2
 189 369 l 1
 187 425 l 2
 181 612 170 779 154 820 c 0
 151 829 139 836 122 836 c 0
 117 836 110 835 105 833 c 0
 85 827 75 814 75 805 c 0
 75 804 75 803 76 799 c 0
 98 744 115 305 116 15 c 0
 116 6 125 -4 133 -4 c 0
EndSplineSet
EndChar

StartChar: i
Encoding: 105 105 77
Width: 340
GlyphClass: 2
Flags: MW
HStem: -21 10<182.5 193 182.5 194> 595 10<166 173 166 166> 725 10<137.5 185 137.5 187.5> 852 10<147 182.5>
VStem: 86 10<774 795 774 797.5> 116 10<564 570 564 573.5> 204 10<145 168 576 580.5> 234 10<17.5 24> 244 10<799 810.5>
LayerCount: 2
Back
Fore
SplineSet
228 -8 m 0xff
 217 -16 201 -21 187 -21 c 0
 176 -21 166 -18 158 -13 c 0
 121 13 114 51 114 98 c 0
 114 117 115 137 116 158 c 0
 118 227 118 282 118 333 c 0
 118 403 117 469 116 564 c 0
 116 583 138 602 165 605 c 2
 173 605 l 2
 196 605 214 593 214 576 c 0
 215 481 216 415 216 344 c 0
 216 292 216 238 214 168 c 2
 214 145 l 2
 214 82 221 50 232 43 c 0
 240 37 244 30 244 21 c 0
 244 11 239 0 228 -8 c 0xff
222 0 m 0
 231 6 234 14 234 21 c 0
 234 27 233 30 226 35 c 0
 209 47 204 83 204 145 c 2
 204 168 l 2
 206 238 206 292 206 344 c 0
 206 415 205 481 204 576 c 0
 204 585 194 595 173 595 c 2
 166 595 l 2
 142 592 126 576 126 564 c 0
 127 469 128 403 128 333 c 0
 128 282 128 227 126 158 c 0
 125 136 124 117 124 98 c 0
 124 52 130 19 164 -5 c 0
 170 -8 178 -11 187 -11 c 0
 199 -11 213 -6 222 0 c 0
236 842 m 0x3880
 238 840 254 825 254 801 c 0
 254 797 254 792 253 788 c 0
 248 762 215 725 160 725 c 0
 110 725 86 756 86 786 c 0
 86 809 108 862 180 862 c 0
 186 862 192 861 196 860 c 2
 212 856 l 2
 222 853 231 848 236 842 c 0x3880
229 835 m 2
 228 836 l 2
 225 839 218 844 209 846 c 1
 210 846 211 846 210 846 c 2
 194 850 l 2
 190 851 185 852 180 852 c 0
 114 852 96 804 96 786 c 0
 96 762 115 735 160 735 c 0
 210 735 239 769 243 790 c 1
 243 790 l 1
 243 790 l 1
 244 793 244 797 244 801 c 0
 244 820 231 833 229 835 c 2
EndSplineSet
EndChar

StartChar: j
Encoding: 106 106 78
Width: 340
GlyphClass: 2
Flags: MW
HStem: -246 10<65.5 76 65.5 77> 596 10<181.5 192> 725 10<137.5 185 137.5 187.5> 852 10<147 182.5>
VStem: 31 10<-217 -212 -217 -209> 86 10<774 795 774 797.5> 126 10<563 566 563 575> 146 10<-62 129.5> 234 10<-54 140.5> 244 10<799 810.5>
LayerCount: 2
Back
Fore
SplineSet
172 605 m 0xff80
 175 605 179 606 182 606 c 0
 205 606 222 594 224 577 c 0
 235 452 244 266 244 15 c 0
 244 -125 199 -202 98 -241 c 0
 90 -244 81 -246 73 -246 c 0
 56 -246 41 -239 34 -228 c 0
 32 -224 31 -220 31 -216 c 0
 31 -202 43 -187 62 -179 c 0
 107 -162 146 -129 146 5 c 0
 146 254 137 440 126 563 c 1
 126 566 l 2
 126 584 146 601 172 605 c 0xff80
173 595 m 0
 150 591 136 577 136 566 c 2
 136 563 l 1
 147 441 156 254 156 5 c 0
 156 -131 115 -170 66 -188 c 0
 49 -195 41 -208 41 -216 c 0
 41 -218 41 -220 43 -223 c 0
 47 -229 58 -236 73 -236 c 0
 79 -236 87 -234 94 -232 c 0
 191 -194 234 -123 234 15 c 0
 234 266 225 452 214 576 c 0
 213 586 202 596 182 596 c 0
 181 596 178 595 173 595 c 0
236 842 m 0x3440
 238 840 254 825 254 801 c 0
 254 797 254 792 253 788 c 0
 248 762 215 725 160 725 c 0
 110 725 86 756 86 786 c 0
 86 809 108 862 180 862 c 0
 186 862 192 861 196 860 c 2
 212 856 l 2
 222 853 231 848 236 842 c 0x3440
229 835 m 2
 228 836 l 2
 225 839 218 844 209 846 c 1
 210 846 211 846 210 846 c 2
 194 850 l 2
 190 851 185 852 180 852 c 0
 114 852 96 804 96 786 c 0
 96 762 115 735 160 735 c 0
 210 735 239 769 243 790 c 1
 243 790 l 1
 243 790 l 1
 244 793 244 797 244 801 c 0
 244 820 231 833 229 835 c 2
EndSplineSet
EndChar

StartChar: k
Encoding: 107 107 79
Width: 620
GlyphClass: 2
Flags: MW
HStem: -11 10<526.5 537.5 526.5 538> 596 10<502 513> 836 10<129.5 140.5>
VStem: 75 10<804.5 809.5 804.5 813> 105 10<364 364> 194 10<414 414> 539 10<573 578.5> 580 10<26 31>
LayerCount: 2
Back
Fore
SplineSet
112 843 m 0
 118 845 126 846 132 846 c 0
 151 846 168 838 173 824 c 0
 191 778 199 607 204 414 c 1
 318 477 418 549 464 590 c 0
 475 600 493 606 509 606 c 0
 518 606 527 604 534 600 c 0
 544 594 549 585 549 576 c 0
 549 567 545 558 536 550 c 0
 473 495 348 417 217 347 c 1
 394 261 558 78 584 46 c 0
 588 41 590 35 590 30 c 0
 590 17 580 4 563 -4 c 0
 554 -9 543 -11 533 -11 c 0
 518 -11 504 -6 496 4 c 0
 475 29 347 180 207 265 c 1
 208 182 209 99 209 25 c 0
 209 6 187 -12 160 -15 c 2
 153 -15 l 2
 129 -15 111 -2 111 15 c 0
 111 105 109 208 107 311 c 0
 106 311 106 312 105 312 c 2
 105 312 69 318 69 333 c 0
 69 341 78 351 105 364 c 1
 99 573 90 764 77 796 c 0
 76 799 75 802 75 805 c 0
 75 821 90 836 112 843 c 0
109 322 m 2
 109 322 111 321 112 321 c 2
 117 321 l 1
 117 311 l 2
 119 208 121 105 121 15 c 0
 121 6 132 -5 153 -5 c 2
 159 -5 l 2
 183 -2 199 14 199 25 c 0
 199 99 198 182 197 265 c 2
 197 283 l 1
 212 274 l 2
 354 187 482 36 504 10 c 0
 509 3 520 -1 533 -1 c 0
 542 -1 551 1 558 5 c 1
 558 5 l 1
 559 5 l 1
 574 12 580 22 580 30 c 0
 580 32 579 36 576 40 c 0
 551 71 387 253 213 338 c 2
 195 347 l 1
 212 356 l 2
 343 426 468 504 529 558 c 0
 537 564 539 570 539 576 c 0
 539 581 536 587 529 591 c 0
 524 594 517 596 509 596 c 0
 495 596 479 590 471 583 c 0
 424 541 324 469 209 405 c 2
 194 397 l 1
 194 414 l 1
 189 606 180 778 164 820 c 0
 161 829 149 836 132 836 c 0
 127 836 120 835 115 833 c 0
 95 827 85 814 85 805 c 0
 85 804 85 803 86 799 c 0
 101 763 109 574 115 364 c 1
 115 358 l 1
 109 355 l 2
 84 343 79 335 79 333 c 0
 81 329 107 322 109 322 c 2
EndSplineSet
EndChar

StartChar: l
Encoding: 108 108 80
Width: 360
GlyphClass: 2
Flags: MW
HStem: -23 10<266 277 266 278.5> 830 10<161 167 161 161>
VStem: 106 10<374 475.5> 111 10<800 805.5 800 809.5> 194 10<384 485.5> 199 10<810 814.5> 315 10<17 21.5>
LayerCount: 2
Back
Fore
SplineSet
320 3 m 0xc6
 310 -12 289 -23 268 -23 c 0
 263 -23 258 -22 254 -21 c 0
 195 -7 116 32 111 145 c 0xd6
 107 246 106 333 106 415 c 0xe2
 106 536 109 651 111 800 c 0
 111 819 133 837 160 840 c 2
 167 840 l 2
 191 840 209 827 209 810 c 0xd6
 207 661 204 546 204 425 c 0xca
 204 343 205 258 209 157 c 0
 212 70 261 55 296 47 c 0
 314 43 325 31 325 18 c 0
 325 13 323 8 320 3 c 0xc6
312 8 m 0
 314 12 315 16 315 18 c 0
 315 25 309 34 294 37 c 0
 257 46 202 64 199 157 c 0
 195 258 194 343 194 425 c 0xda
 194 546 197 661 199 810 c 0
 199 819 188 830 167 830 c 2
 161 830 l 2
 137 827 121 811 121 800 c 0
 119 651 116 536 116 415 c 0xe6
 116 333 117 246 121 145 c 0
 126 38 199 2 256 -11 c 0
 260 -12 264 -13 268 -13 c 0
 286 -13 303 -4 312 8 c 0
EndSplineSet
EndChar

StartChar: m
Encoding: 109 109 81
Width: 965
GlyphClass: 2
Flags: MW
HStem: -19 10<119 135.5 119 141> -10 10<459 475.5 459 481 818 824> 549 10<326.5 378.5 666.5 718.5> 606 10<129.5 140.5> 611 10<315.5 410.5 657.5 775.5>
VStem: 76 10<573 575 573 575 573 584> 96 10<5.5 10 5.5 10> 167 10<461 461> 436 10<14.5 73.5 14.5 73.5> 441 10<254 398.5 254 399.5> 776 10<15.5 73 15.5 73> 781 10<254 398.5 254 399.5> 864 10<24.5 82> 869 10<263 395.5 263 396.5>
LayerCount: 2
Back
Fore
SplineSet
463 -10 m 0x6f10
 448 -10 436 5 436 19 c 0x6f90
 436 128 441 218 441 290 c 0
 441 509 404 549 353 549 c 0
 300 549 244 501 224 366 c 0
 198 194 200 101 194 7 c 1
 194 7 159 -19 123 -19 c 0
 108 -19 96 -4 96 10 c 0
 95 149 88 466 76 572 c 1
 76 575 l 2
 76 593 95 611 121 615 c 0
 125 616 128 616 131 616 c 0xb740
 153 616 167 605 169 588 c 0
 172 558 175 513 177 461 c 1
 205 547 258 621 367 621 c 0
 460 621 502 566 521 474 c 1
 550 555 603 621 707 621 c 0
 854 621 879 491 879 300 c 0x2f44
 879 226 874 134 874 30 c 0
 874 11 852 -7 825 -10 c 2
 818 -10 l 2
 794 -10 776 3 776 20 c 0x6f28
 776 126 781 218 781 290 c 0
 781 509 744 549 693 549 c 0
 640 549 584 501 564 366 c 0
 538 194 540 111 534 16 c 1
 534 16 499 -10 463 -10 c 0x6f10
463 0 m 0
 488 0 513 14 524 21 c 1
 530 114 528 198 554 367 c 0
 574 504 633 559 693 559 c 0
 754 559 791 507 791 290 c 0x6790
 791 218 786 126 786 20 c 0
 786 11 797 0 818 0 c 2
 824 0 l 2
 848 3 864 19 864 30 c 0x6728
 864 134 869 226 869 300 c 0
 869 493 844 611 707 611 c 0
 608 611 559 550 530 471 c 2
 518 437 l 1
 511 472 l 2
 493 562 454 611 367 611 c 0x6f04
 264 611 214 542 187 458 c 2
 169 405 l 1
 167 461 l 2
 165 512 162 557 159 587 c 0
 158 598 150 606 131 606 c 0
 128 606 126 606 123 605 c 1
 123 605 l 1
 123 605 l 1
 99 602 86 586 86 575 c 2
 86 573 l 1
 98 467 105 149 106 10 c 0
 106 1 115 -9 123 -9 c 0
 148 -9 173 5 184 12 c 1
 190 104 188 198 214 367 c 0
 234 504 293 559 353 559 c 0
 414 559 451 507 451 290 c 0xb744
 451 218 446 128 446 19 c 0
 446 10 455 0 463 0 c 0
EndSplineSet
EndChar

StartChar: n
Encoding: 110 110 82
Width: 660
GlyphClass: 2
Flags: MW
HStem: -15 10<123 140.5 123 145.5> -10 10<516 535 528 535 528 536> 549 10<365.5 426> 606 10<109.5 120.5> 611 10<349.5 486>
VStem: 55 10<574.5 579.5 574.5 583> 96 10<10 15 10 15> 481 10<297 433 297 433.5> 486 10<14.5 19 14.5 19> 569 10<307 436.5 307 437> 574 10<25 31>
LayerCount: 2
Back
Fore
SplineSet
130 -15 m 0xa7
 111 -15 96 -1 96 15 c 0
 95 305 78 511 57 566 c 0
 56 569 55 572 55 575 c 0
 55 591 70 606 92 613 c 0
 98 615 106 616 112 616 c 0xb7
 131 616 148 608 153 594 c 0
 167 558 176 492 183 399 c 1
 213 505 270 621 422 621 c 0
 560 621 579 503 579 370 c 0x2f40
 579 244 582 136 584 31 c 0
 584 12 563 -7 536 -10 c 2
 528 -10 l 2
 504 -10 486 2 486 19 c 0x6ea0
 484 124 481 234 481 360 c 0
 481 507 444 549 408 549 c 0
 323 549 274 461 244 324 c 0
 206 153 202 106 194 10 c 1
 194 10 161 -15 130 -15 c 0xa7
130 -5 m 0
 151 -5 175 9 184 15 c 1
 192 108 197 158 234 326 c 0
 264 463 314 559 408 559 c 0
 454 559 491 506 491 360 c 0xb740
 491 234 494 124 496 19 c 0
 496 10 506 0 528 0 c 2
 535 0 l 2
 559 3 574 19 574 31 c 0x66a0
 572 136 569 244 569 370 c 0
 569 504 550 611 422 611 c 0x6e40
 277 611 222 502 193 396 c 2
 177 342 l 1
 173 398 l 2
 166 491 157 556 144 591 c 0
 141 599 129 606 112 606 c 0
 107 606 100 605 95 603 c 0
 75 597 65 584 65 575 c 0
 65 574 66 572 66 569 c 0
 89 511 105 306 106 15 c 0
 106 5 116 -5 130 -5 c 0
EndSplineSet
EndChar

StartChar: o
Encoding: 111 111 83
Width: 660
GlyphClass: 2
Flags: MW
HStem: -21 10<253.5 329.5 253.5 330> 42 9 552 10<327.5 358.5> 614 10<338.5 396.5>
VStem: 61 10<196.5 377 196.5 379> 149 10<209 382 209 384> 441 10<440.5 446 440.5 446.5> 506 10<202 313> 594 10<209 325>
LayerCount: 2
Back
Fore
SplineSet
456 471 m 1
 436 527 383 552 334 552 c 0
 321 552 309 550 297 547 c 0
 240 531 159 464 159 300 c 0
 159 118 269 51 343 51 c 0
 347 51 351 52 355 52 c 0
 414 58 506 119 506 285 c 0
 506 341 480 406 466 416 c 1
 451 421 441 431 441 444 c 0
 441 449 442 455 446 460 c 0
 448 464 452 468 456 471 c 1
546 465 m 1
 588 428 604 356 604 295 c 0
 604 119 503 -3 356 -19 c 0
 346 -20 335 -21 325 -21 c 0
 176 -21 61 99 61 290 c 0
 61 468 150 580 277 614 c 0
 302 621 326 624 350 624 c 0
 446 624 528 572 553 493 c 0
 556 484 553 474 546 465 c 1
465 474 m 1
 468 467 l 1
 462 463 l 2
 459 461 456 457 455 456 c 2
 454 455 l 1
 454 454 l 2
 452 451 451 448 451 444 c 0
 451 437 456 430 469 425 c 1
 471 425 l 1
 472 424 l 1
 492 410 516 343 516 285 c 0
 516 115 421 49 356 42 c 1
 356 42 l 1
 355 42 l 2
 353 42 349 41 343 41 c 0
 263 41 149 113 149 300 c 0
 149 468 232 539 294 557 c 0
 307 560 320 562 334 562 c 0
 386 562 444 535 465 474 c 1
539 457 m 1
 532 464 l 1
 538 471 l 2
 544 479 545 485 543 490 c 0
 520 564 443 614 350 614 c 0
 327 614 304 611 280 604 c 0
 157 572 71 464 71 290 c 0
 71 103 182 -11 325 -11 c 0
 334 -11 345 -10 355 -9 c 0
 496 6 594 123 594 295 c 0
 594 355 578 424 539 457 c 1
EndSplineSet
EndChar

StartChar: p
Encoding: 112 112 84
Width: 680
GlyphClass: 2
Flags: MW
HStem: -246 10<130 147 142 147> -16 10<305.5 416.5 305.5 419.5> 46 10<306 386.5> 549 10<315 402.5> 610 10<92.5 102>
VStem: 41 10<579 584 579 586.5> 101 10<-214 -213 -219 -213> 108 10<32.5 122.5> 193 10<-32 33> 523 10<295 372.5> 612 10<306 391.5>
LayerCount: 2
Back
Fore
SplineSet
147 -246 m 2xfde0
 142 -246 l 2
 118 -246 101 -231 101 -214 c 2
 101 -213 l 1xfee0
 106 -147 108 -24 108 89 c 0
 108 156 107 219 106 264 c 0
 102 400 79 520 46 565 c 0
 43 570 41 575 41 580 c 0
 41 593 51 606 68 614 c 0
 77 618 87 620 96 620 c 0
 110 620 122 615 129 605 c 0
 149 574 163 530 172 476 c 1
 201 552 255 621 367 621 c 0
 552 621 622 465 622 320 c 0
 622 291 619 262 614 235 c 0
 590 118 506 -16 333 -16 c 0
 276 -16 234 4 203 33 c 1
 203 -32 l 2
 203 -101 202 -165 199 -207 c 0
 198 -226 174 -244 147 -246 c 2xfde0
202 174 m 1
 220 116 265 56 347 56 c 0
 426 56 493 121 516 235 c 0
 521 259 523 283 523 307 c 0
 523 438 452 549 353 549 c 0
 277 549 232 468 208 348 c 0
 205 332 202 316 199 301 c 2
 202 174 l 1
147 -236 m 2
 171 -234 188 -218 189 -206 c 0
 192 -165 193 -101 193 -32 c 2
 193 56 l 1
 210 40 l 2
 239 13 278 -6 333 -6 c 0
 500 -6 581 123 604 237 c 0
 609 263 612 292 612 320 c 0
 612 463 544 611 367 611 c 0
 260 611 210 546 181 472 c 2
 168 438 l 1
 162 474 l 2
 153 528 139 571 121 599 c 0
 116 606 108 610 96 610 c 0
 89 610 80 608 72 605 c 0
 57 598 51 588 51 580 c 0
 51 578 52 575 54 571 c 0
 89 522 112 401 116 264 c 0
 117 219 118 156 118 89 c 0xfde0
 118 -24 116 -146 111 -213 c 1
 111 -214 l 2
 111 -224 122 -236 142 -236 c 2
 147 -236 l 2
192 171 m 1
 192 172 l 1
 189 302 l 1
 189 303 l 2
 192 318 195 334 198 350 c 0
 222 470 268 559 353 559 c 0
 461 559 533 440 533 307 c 0
 533 282 531 258 526 233 c 0
 502 116 432 46 347 46 c 0
 259 46 211 111 192 171 c 1
EndSplineSet
EndChar

StartChar: q
Encoding: 113 113 85
Width: 670
GlyphClass: 2
Flags: MW
HStem: -261 10<557.5 573.5 557.5 575> -184 10<610.5 621.5> -17 10<211 312.5 211 313.5> 44 10<264 317.5 264 318.5> 66 10<409 419.5> 549 10<322 393.5> 611 10<292.5 435.5>
VStem: 59 10<187.5 267 187.5 267.5> 149 10<206 277.5 206 278> 444 10<42 47> 459 10<-48.5 7 7 43> 471 10<396 488> 547 10<-31.5 84 -32 84.5> 559 10<398.5 510.5> 649 10<-208.5 -203>
LayerCount: 2
Back
Fore
SplineSet
451 58 m 0
 453 54 454 50 454 46 c 0
 454 32 442 17 423 9 c 0
 378 -8 334 -17 293 -17 c 0
 122 -17 59 119 59 253 c 0
 59 282 62 312 68 339 c 0
 94 469 192 621 387 621 c 0
 488 621 569 553 569 475 c 0
 569 322 557 151 557 17 c 0
 557 -81 558 -161 578 -186 c 1
 579 -185 580 -185 581 -184 c 0
 592 -177 604 -174 616 -174 c 0
 629 -174 642 -178 650 -185 c 0
 656 -191 659 -198 659 -205 c 0
 659 -216 652 -228 639 -236 c 0
 618 -249 590 -261 560 -261 c 0
 555 -261 550 -261 545 -260 c 0
 526 -257 510 -251 502 -241 c 0
 464 -197 459 -104 459 7 c 0
 459 143 471 314 471 465 c 0
 471 511 414 549 373 549 c 0
 271 549 191 465 166 339 c 0
 161 314 159 289 159 266 c 0
 159 146 221 54 307 54 c 0
 328 54 355 59 387 71 c 0
 395 74 404 76 412 76 c 0
 429 76 444 69 451 58 c 0
442 53 m 0
 438 59 427 66 412 66 c 0
 406 66 398 64 391 62 c 0
 358 49 330 44 307 44 c 0
 213 44 149 144 149 266 c 0
 149 290 151 315 156 341 c 0
 182 470 265 559 373 559 c 0
 418 559 481 519 481 465 c 0
 481 327 471 172 469 43 c 2
 469 7 l 2
 469 -104 475 -195 510 -235 c 0
 515 -242 528 -247 547 -250 c 0
 551 -251 555 -251 560 -251 c 0
 587 -251 614 -240 634 -227 c 0
 644 -221 649 -212 649 -205 c 0
 649 -201 648 -197 643 -192 c 0
 638 -188 627 -184 616 -184 c 0
 605 -184 599 -185 585 -193 c 1
 577 -201 l 1
 570 -192 l 2
 546 -162 547 -80 547 17 c 0
 547 152 559 322 559 475 c 0
 559 546 484 611 387 611 c 0
 198 611 103 464 78 337 c 0
 72 311 69 281 69 253 c 0
 69 122 129 -7 293 -7 c 0
 332 -7 376 2 419 18 c 0
 436 25 444 38 444 46 c 0
 444 48 444 50 442 53 c 0
EndSplineSet
EndChar

StartChar: r
Encoding: 114 114 86
Width: 510
GlyphClass: 2
Flags: MW
HStem: -13 10<193 211 193 217> 524 10<427.5 438.5 427.5 439.5> 549 10<345.5 358> 596 10<69.5 79.5> 611 10<361 373 361 373>
VStem: 20 10<561.5 567 561.5 568> 171 10<14 14> 261 10<147 175> 479 10<563 569>
LayerCount: 2
Back
Fore
SplineSet
196 -13 m 0
 182 -13 172 2 171 14 c 0
 165 147 166 230 146 351 c 0
 129 456 86 527 47 536 c 0
 30 540 20 552 20 565 c 0
 20 571 22 577 26 582 c 0
 36 596 58 606 78 606 c 0
 83 606 88 605 93 604 c 0
 159 586 191 523 209 453 c 1
 226 533 263 615 361 621 c 1
 373 621 l 2
 410 621 443 609 475 589 c 0
 485 583 489 575 489 566 c 0
 489 557 485 547 475 539 c 0
 463 529 447 524 432 524 c 0
 422 524 412 526 405 531 c 0
 378 548 361 549 355 549 c 0
 336 549 287 494 279 382 c 0
 272 284 271 229 271 175 c 2
 271 147 l 2
 271 112 271 80 269 15 c 1
 269 15 238 -13 196 -13 c 0
196 -3 m 0
 226 -3 250 13 259 20 c 1
 261 81 261 113 261 147 c 2
 261 175 l 2
 261 229 262 285 269 383 c 0
 277 495 325 559 355 559 c 0
 363 559 382 557 410 539 c 1
 411 539 l 1
 411 539 l 1
 415 536 423 534 432 534 c 0
 445 534 459 538 469 547 c 0
 477 553 479 560 479 566 c 0
 479 572 477 576 470 580 c 0
 439 600 408 611 373 611 c 2
 361 611 l 1
 271 605 236 531 219 451 c 2
 210 409 l 1
 199 451 l 2
 182 520 152 577 91 594 c 0
 86 595 81 596 78 596 c 0
 61 596 42 587 34 576 c 1
 34 576 l 1
 34 576 l 1
 31 573 30 569 30 565 c 0
 30 558 36 549 49 546 c 0
 96 535 139 458 156 353 c 0
 176 231 175 147 181 15 c 0
 182 6 190 -3 196 -3 c 0
EndSplineSet
EndChar

StartChar: s
Encoding: 115 115 87
Width: 570
GlyphClass: 2
Flags: MW
HStem: -20 10<229.5 331 229.5 332.5> 42 10<265 328.5 265 329.5> 151 10<114.5 125.5> 434 10<411 425 423 425> 554 10<252.5 321.5> 616 10<243.5 365>
VStem: 60 10<119.5 124.5 119.5 128> 139 10<440.5 459 440.5 459> 381 10<465 468 460.5 469 460.5 469> 431 10<141 169> 470 10<486 520.5> 516 10<151.5 195>
LayerCount: 2
Back
Fore
SplineSet
97 158 m 0
 103 160 111 161 117 161 c 0
 136 161 153 153 158 139 c 0
 180 83 229 52 301 52 c 0
 356 52 391 70 412 98 c 0
 424 114 431 132 431 150 c 0
 431 188 404 226 344 245 c 0
 315 255 216 289 184 300 c 0
 97 329 56 387 56 445 c 0
 56 453 56 461 58 469 c 0
 74 550 172 626 312 626 c 0
 422 626 480 558 480 489 c 0
 480 483 480 477 479 471 c 0
 476 452 452 435 425 434 c 2
 423 434 l 2
 399 434 381 448 381 465 c 2
 381 469 l 2
 382 473 382 476 382 480 c 0
 382 522 345 554 298 554 c 0
 207 554 159 514 150 469 c 0
 149 465 149 461 149 457 c 0
 149 424 176 390 236 370 c 0
 270 359 369 324 396 315 c 0
 485 287 526 228 526 167 c 0
 526 134 514 100 491 71 c 0
 452 20 378 -20 287 -20 c 0
 169 -20 92 37 62 111 c 0
 61 114 60 117 60 120 c 0
 60 136 75 151 97 158 c 0
100 148 m 0
 80 142 70 129 70 120 c 0
 70 119 70 118 71 114 c 0
 100 45 172 -10 287 -10 c 0
 375 -10 446 29 483 77 c 0
 505 105 516 136 516 167 c 0
 516 223 479 278 393 305 c 0
 366 315 267 350 233 360 c 0
 171 381 139 418 139 457 c 0
 139 461 139 466 140 471 c 0
 150 522 204 564 298 564 c 0
 349 564 392 529 392 480 c 0
 392 476 392 473 391 468 c 2
 391 465 l 2
 391 456 402 444 423 444 c 2
 425 444 l 2
 449 445 467 460 469 473 c 0
 470 478 470 483 470 489 c 0
 470 552 418 616 312 616 c 0
 175 616 83 542 68 467 c 1
 68 467 l 1
 68 467 l 1
 66 460 66 453 66 445 c 0
 66 392 103 338 187 309 c 0
 219 298 318 264 347 254 c 0
 410 235 441 193 441 150 c 0
 441 129 433 109 420 92 c 0
 397 61 358 42 301 42 c 0
 226 42 172 75 149 135 c 0
 146 144 134 151 117 151 c 0
 112 151 105 150 100 148 c 0
EndSplineSet
EndChar

StartChar: t
Encoding: 116 116 88
Width: 480
GlyphClass: 2
Flags: MW
HStem: -18 10<265.5 304 265.5 305> 41 10<291 305 291 306.5> 86 10<401 411.5> 524 10<141 151> 586 10<365 367> 741 10<192.5 203>
VStem: 20 10<555.5 560.5 555.5 561.5> 131 10<118.5 205.5 118.5 205.5> 136 10<708 709 708 718.5> 141 10<524 534> 219 10<133 212.5 133 212.5> 225 10<664.5 686> 399 10<563 566 562 570.5> 439 10<62 67.5>
LayerCount: 2
Back
Fore
SplineSet
183 750 m 0xfe8c
 186 750 190 751 193 751 c 0
 216 751 233 739 234 722 c 0
 235 708 235 693 235 679 c 0xfe9c
 235 650 234 622 234 593 c 1
 267 593 313 594 365 596 c 2
 367 596 l 2
 391 596 409 583 409 566 c 2
 409 562 l 2
 406 543 382 525 355 524 c 0
 309 522 271 522 239 522 c 1
 237 394 229 270 229 155 c 0
 229 111 247 77 268 62 c 0
 276 56 285 51 297 51 c 0
 313 51 334 59 367 83 c 0
 378 91 393 96 407 96 c 0
 418 96 429 93 437 87 c 0
 445 81 449 73 449 65 c 0
 449 55 444 45 433 37 c 0
 383 0 329 -18 281 -18 c 0
 248 -18 217 -9 193 8 c 0
 150 39 131 90 131 145 c 0xff2c
 131 266 140 394 141 524 c 1xfe4c
 114 525 87 526 57 529 c 0
 35 531 20 544 20 560 c 0
 20 563 21 566 22 569 c 0
 29 587 53 601 78 601 c 2
 83 601 l 2
 104 599 127 597 145 596 c 1
 144 633 139 671 136 708 c 2
 136 709 l 2
 136 728 157 746 183 750 c 0xfe8c
184 740 m 0
 161 736 146 721 146 709 c 2
 146 708 l 2xfe9c
 149 673 154 634 155 596 c 2
 155 585 l 1
 144 586 l 2
 126 587 105 589 83 591 c 2
 78 591 l 2
 56 591 36 578 31 566 c 0
 31 563 30 561 30 560 c 0
 30 551 39 541 58 539 c 0
 88 536 114 535 141 534 c 2
 151 534 l 1
 151 524 l 2xfe4c
 150 394 141 266 141 145 c 0
 141 92 159 45 199 16 c 0
 221 1 250 -8 281 -8 c 0
 327 -8 379 9 427 45 c 0
 436 52 439 59 439 65 c 0
 439 70 437 75 431 79 c 0
 425 83 416 86 407 86 c 0
 395 86 382 82 373 75 c 0
 339 51 316 41 297 41 c 0
 282 41 271 48 262 54 c 0
 238 71 219 108 219 155 c 0xff2c
 219 270 227 394 229 522 c 2
 229 532 l 1
 239 532 l 2
 271 532 309 532 355 534 c 0
 378 535 396 550 399 563 c 2
 399 566 l 2
 399 575 388 586 367 586 c 2
 365 586 l 2
 314 584 267 583 234 583 c 2
 224 583 l 1
 224 593 l 2
 224 622 225 650 225 679 c 0
 225 693 225 708 224 721 c 0
 223 731 213 741 193 741 c 0
 192 741 189 740 184 740 c 0
EndSplineSet
EndChar

StartChar: u
Encoding: 117 117 89
Width: 680
GlyphClass: 2
Flags: MW
HStem: -21 10<220 345.5 220 348.5> -16 10<594.5 605.5 594.5 606.5> 41 10<272.5 331 272.5 335> 601 10<135.5 147 507 524.5>
VStem: 81 10<568 570 568 570 568 579> 86 10<155.5 259.5 155.5 259.5> 174 10<166 269.5 166 269.5> 471 10<571 571> 649 10<22.5 28>
LayerCount: 2
Back
Fore
SplineSet
564 592 m 1xbb80
 569 201 600 89 650 45 c 0
 656 39 659 33 659 26 c 0
 659 15 652 3 639 -5 c 0
 628 -12 613 -16 600 -16 c 0x7b80
 588 -16 577 -13 570 -5 c 0
 539 30 517 83 503 173 c 1
 472 74 414 -21 283 -21 c 0
 150 -21 86 78 86 230 c 0xb780
 86 289 87 347 87 402 c 0
 87 463 86 520 81 567 c 1
 81 570 l 2
 81 588 101 606 127 610 c 0
 131 611 134 611 137 611 c 0
 159 611 177 600 179 583 c 0
 184 533 185 475 185 413 c 0
 185 358 184 299 184 240 c 0
 184 92 248 51 297 51 c 0
 365 51 416 109 443 245 c 0
 463 346 467 468 471 571 c 0
 472 590 493 611 516 611 c 0
 538 611 564 592 564 592 c 1xbb80
554 586 m 1
 558 584 l 1
 558 584 533 601 516 601 c 0
 498 601 482 583 481 571 c 0
 477 468 473 345 453 243 c 0
 426 106 373 41 297 41 c 0
 241 41 174 89 174 240 c 0
 174 299 175 358 175 413 c 0
 175 475 174 533 169 582 c 0
 168 591 157 601 137 601 c 0
 134 601 132 601 129 600 c 1
 129 600 l 1
 129 600 l 1
 105 597 91 581 91 570 c 2
 91 568 l 1x7b80
 96 521 97 463 97 402 c 0
 97 347 96 289 96 230 c 0
 96 81 157 -11 283 -11 c 0xb780
 408 -11 463 78 493 176 c 2
 506 217 l 1
 513 175 l 2
 527 85 548 35 577 2 c 0
 582 -3 589 -6 600 -6 c 0
 611 -6 624 -2 634 3 c 0
 644 10 649 19 649 26 c 0
 649 30 648 32 643 38 c 0
 589 86 559 200 554 586 c 1
EndSplineSet
EndChar

StartChar: v
Encoding: 118 118 90
Width: 630
GlyphClass: 2
Flags: MW
HStem: -18 10<293.5 307.5 293.5 312> 581 10<554 556> 591 10<88 98.5>
VStem: 35 10<559.5 564 559.5 567> 584 10<559.5 565>
LayerCount: 2
Back
Fore
SplineSet
556 591 m 2xd8
 578 590 594 577 594 561 c 0
 594 558 594 556 593 553 c 0
 568 469 474 222 361 12 c 1
 361 12 326 -18 298 -18 c 0
 285 -18 273 -11 267 7 c 0
 266 10 264 14 263 18 c 0
 220 143 116 420 39 547 c 0
 37 551 35 556 35 560 c 0
 35 574 47 588 66 596 c 0
 74 599 83 601 91 601 c 0xb8
 108 601 124 594 131 583 c 0
 197 475 274 270 326 129 c 1
 410 302 478 494 497 557 c 0
 503 575 529 591 554 591 c 2
 556 591 l 2xd8
556 581 m 2xd8
 554 581 l 2xd8
 533 581 511 567 507 554 c 0
 487 491 419 298 335 125 c 2
 325 104 l 1
 317 126 l 2
 265 266 187 471 123 578 c 0
 118 585 106 591 91 591 c 0xb8
 85 591 76 589 70 587 c 0
 53 580 45 568 45 560 c 0
 45 559 46 556 48 552 c 0
 125 424 229 147 272 21 c 1
 273 21 l 1
 273 20 l 2
 273 18 275 14 276 10 c 0
 281 -4 289 -8 298 -8 c 0
 317 -8 345 12 353 18 c 1
 465 226 559 473 583 556 c 0
 584 558 584 558 584 561 c 0
 584 569 574 580 556 581 c 2xd8
EndSplineSet
EndChar

StartChar: w
Encoding: 119 119 91
Width: 840
GlyphClass: 2
Flags: MW
HStem: -11 10<573.5 587.5 573.5 592.5> 568 10<414 425.5> 590 10<94 105.5>
VStem: 41 10<557.5 559 556 567> 790 10<569.5 574.5>
LayerCount: 2
Back
Fore
SplineSet
763 601 m 2
 785 599 800 586 800 570 c 0
 800 567 799 564 798 561 c 0
 747 419 709 253 647 18 c 1
 647 18 607 -11 578 -11 c 0
 566 -11 557 -6 552 7 c 0
 522 93 458 307 414 429 c 1
 371 297 310 80 286 11 c 1
 286 11 245 -15 217 -15 c 0
 205 -15 195 -10 191 4 c 0
 143 197 80 435 42 552 c 0
 41 554 41 556 41 559 c 0
 41 575 57 592 79 598 c 0
 85 600 91 600 97 600 c 0
 116 600 133 592 138 578 c 0
 166 490 218 300 252 148 c 1
 295 298 356 513 375 545 c 0
 390 570 405 578 418 578 c 0
 440 578 456 554 456 554 c 1
 477 523 550 303 599 148 c 1
 632 299 667 459 707 569 c 0
 714 587 734 601 758 601 c 2
 763 601 l 2
763 591 m 2
 758 591 l 2
 738 591 722 579 716 565 c 0
 677 457 642 297 609 146 c 2
 601 109 l 1
 589 145 l 2
 541 299 466 521 448 548 c 0
 448 549 433 568 418 568 c 0
 410 568 398 563 384 540 c 0
 367 511 304 295 262 145 c 2
 251 108 l 1
 242 146 l 2
 208 297 157 486 129 575 c 0
 125 582 114 590 97 590 c 0
 91 590 86 590 82 589 c 1
 82 588 l 1
 82 588 l 1
 62 583 51 568 51 559 c 2
 51 556 l 1
 51 556 l 1
 52 555 l 1
 90 438 153 199 201 7 c 0
 203 -2 208 -5 217 -5 c 0
 236 -5 267 11 278 18 c 1
 302 90 362 302 404 432 c 1
 414 460 l 1
 423 432 l 1
 468 310 532 96 561 10 c 0
 565 1 569 -1 578 -1 c 0
 597 -1 628 17 638 24 c 1
 699 255 738 423 789 564 c 0
 789 567 790 569 790 570 c 0
 790 579 782 589 763 591 c 2
EndSplineSet
EndChar

StartChar: x
Encoding: 120 120 92
Width: 600
GlyphClass: 2
Flags: MW
HStem: -6 10<65.5 75.5 65.5 77> 5 10<506.5 517.5 506.5 518> 591 10<122 133>
VStem: 26 10<21 26 21 27> 71 10<558 564 558 566.5> 524 10<568 573.5> 559 10<42.5 48>
LayerCount: 2
Back
Fore
SplineSet
99 595 m 0
 108 599 117 601 126 601 c 0
 143 601 158 594 165 584 c 0
 213 514 254 449 295 393 c 1
 339 449 387 513 444 580 c 0
 455 593 474 600 492 600 c 0
 499 600 506 599 512 597 c 0
 526 592 534 582 534 570 c 0
 534 563 531 557 526 550 c 0
 456 466 394 397 341 329 c 1
 403 247 473 166 563 62 c 0
 567 57 569 52 569 46 c 0
 569 34 560 20 544 12 c 0
 534 7 523 5 513 5 c 0
 498 5 485 9 477 18 c 0
 400 107 340 185 286 256 c 1
 233 185 180 106 118 18 c 0
 108 4 87 -6 67 -6 c 0
 62 -6 56 -5 51 -4 c 0
 35 1 26 12 26 24 c 0
 26 30 28 36 32 42 c 0
 107 148 173 234 239 320 c 1
 188 389 134 460 75 546 c 0
 72 550 71 555 71 560 c 0
 71 573 81 587 99 595 c 0
103 586 m 0
 88 579 81 568 81 560 c 0
 81 556 82 554 83 552 c 0
 142 466 196 395 247 326 c 1
 252 320 l 1
 247 314 l 1
 181 228 115 142 40 36 c 0
 37 32 36 28 36 24 c 0
 36 18 40 10 53 6 c 0
 57 5 64 4 67 4 c 0
 84 4 102 13 110 24 c 0
 172 112 225 191 278 262 c 2
 286 273 l 1
 294 262 l 2
 348 191 408 113 485 25 c 0
 490 19 500 15 513 15 c 0
 522 15 531 17 540 21 c 0
 553 28 559 39 559 46 c 0
 559 50 558 52 555 56 c 0
 466 159 395 241 333 323 c 1
 328 329 l 1
 333 335 l 2
 387 404 447 471 518 556 c 0
 522 562 524 566 524 570 c 0
 524 577 520 584 509 588 c 0
 504 589 498 590 492 590 c 0
 476 590 460 584 452 574 c 0
 395 507 347 443 303 387 c 2
 295 376 l 1
 287 387 l 2
 246 444 205 509 157 578 c 0
 152 585 140 591 126 591 c 0
 118 591 111 589 103 586 c 0
EndSplineSet
EndChar

StartChar: y
Encoding: 121 121 93
Width: 630
GlyphClass: 2
Flags: MW
HStem: -257 10<253.5 295.5 253.5 296.5> -195 10<273.5 292 273.5 293.5> -164 10<181.5 191> 4 10<220.5 318.5 220.5 321.5> 584 10<510.5 527.5> 595 10<111 122.5>
VStem: 56 10<561 564 561 564 561 573> 130 10<-205 -200 -205 -198>
LayerCount: 2
Back
Fore
SplineSet
574 573 m 1
 554 382 542 283 519 151 c 0
 493 5 475 -131 400 -207 c 0
 366 -241 321 -257 272 -257 c 0
 233 -257 191 -247 149 -228 c 0
 137 -222 130 -213 130 -202 c 0
 130 -194 136 -183 143 -176 c 0
 154 -165 171 -154 188 -154 c 0
 196 -154 204 -156 211 -159 c 0
 247 -177 265 -185 282 -185 c 0
 302 -185 312 -177 322 -169 c 0
 369 -130 399 -24 423 106 c 1
 393 49 355 4 288 4 c 0
 141 4 117 223 56 560 c 1
 56 564 l 2
 56 582 74 599 99 604 c 0
 104 605 109 605 113 605 c 0
 134 605 152 596 154 580 c 0
 208 247 244 89 303 76 c 1
 332 80 392 156 422 262 c 0
 448 356 463 478 476 559 c 0
 479 575 497 594 518 594 c 0
 548 594 574 573 574 573 c 1
563 568 m 1
 556 574 537 584 518 584 c 0
 503 584 488 569 486 557 c 0
 473 477 458 354 432 259 c 0
 401 153 342 71 304 66 c 1
 303 66 l 1
 301 66 l 1
 230 82 198 249 144 579 c 0
 143 587 132 595 113 595 c 0
 109 595 105 595 101 594 c 0
 79 590 66 575 66 564 c 2
 66 561 l 1
 128 220 153 14 288 14 c 0
 349 14 385 54 414 111 c 2
 445 169 l 1
 433 104 l 2
 409 -26 380 -134 328 -177 c 0
 318 -185 305 -195 282 -195 c 0
 262 -195 242 -186 207 -168 c 0
 201 -166 194 -164 188 -164 c 0
 175 -164 160 -173 150 -183 c 0
 144 -189 140 -198 140 -202 c 0
 140 -208 144 -214 153 -219 c 0
 194 -237 235 -247 272 -247 c 0
 319 -247 361 -232 393 -200 c 0
 464 -128 483 6 509 153 c 0
 532 283 544 380 563 568 c 1
EndSplineSet
EndChar

StartChar: z
Encoding: 122 122 94
Width: 590
GlyphClass: 2
Flags: MW
HStem: -17 10<199 300.5 196.5 301> 51 10<269.5 335> 59 10<503 511 503 511> 525 15 587 10<254.5 308> 592 10<112 129 124 129>
VStem: 46 10<26 76.5 26 80.5> 61 10<555 559.5 555 560.5> 531 10<582.5 587> 544 10<38 39 38 43.5>
LayerCount: 2
Back
Fore
SplineSet
554 38 m 2xb3c0
 553 19 527 0 497 -3 c 0
 452 -7 349 -17 253 -17 c 0
 145 -17 46 -5 46 43 c 0
 46 118 215 305 392 529 c 1
 345 527 303 525 260 525 c 0
 213 525 163 527 101 530 c 0
 77 532 61 543 61 559 c 0
 61 562 62 566 63 569 c 0
 71 588 97 602 124 602 c 2
 129 602 l 2xb7c0
 187 599 233 597 276 597 c 0
 340 597 398 601 485 606 c 1
 499 606 l 2
 532 606 541 597 541 586 c 0
 541 573 527 558 527 558 c 1
 353 335 186 134 158 68 c 1
 186 63 240 61 299 61 c 0xdbc0
 371 61 451 64 503 69 c 1
 511 69 l 2
 536 69 554 56 554 39 c 2
 554 38 l 2xb3c0
544 38 m 2
 544 39 l 2
 544 48 534 59 511 59 c 2
 503 59 l 1xb7c0
 452 54 371 51 299 51 c 0
 240 51 186 53 156 58 c 2
 144 60 l 1
 149 72 l 2
 178 142 345 341 519 564 c 1
 519 564 l 1
 520 565 l 1
 520 565 531 579 531 586 c 0
 531 588 532 596 499 596 c 2
 485 596 l 1
 399 591 340 587 276 587 c 0xdbc0
 233 587 186 589 129 592 c 2
 124 592 l 2
 100 592 79 579 72 565 c 0
 72 564 71 560 71 559 c 0
 71 551 79 542 102 540 c 0
 163 537 213 535 260 535 c 0
 303 535 345 537 392 539 c 2
 413 540 l 1
 400 523 l 1
 222 298 56 110 56 43 c 0
 56 9 140 -7 253 -7 c 0
 348 -7 451 3 496 7 c 0
 523 10 543 27 544 38 c 2
EndSplineSet
EndChar

StartChar: braceleft
Encoding: 123 123 95
Width: 360
GlyphClass: 2
Flags: MW
HStem: -89 10<198.5 262.5 198.5 264.5> -41 10<236.5 274> 830 10<228 228> 879 10<259 274>
VStem: 22 10<397 399.5 397 405.5> 112 10<12 65 12 65.5> 128 10<223 265.5> 182 10<27.5 70 27.5 70.5> 197 10<233 274> 205 10<520.5 565> 289 10<-59 -56 -60 -53 861 864>
LayerCount: 2
Back
Fore
SplineSet
299 860 m 2xffa0
 296 844 275 831 254 831 c 0
 243 831 235 831 228 830 c 0
 203 826 194 810 194 772 c 0
 194 745 199 707 205 655 c 0
 209 620 215 583 215 548 c 0xff60
 215 491 200 437 140 399 c 1
 195 358 207 302 207 247 c 0
 207 218 204 190 201 164 c 0
 196 121 192 85 192 55 c 0
 192 0 207 -31 266 -31 c 0
 285 -31 299 -42 299 -56 c 2
 299 -60 l 2
 296 -76 275 -89 254 -89 c 0
 137 -89 112 -25 112 46 c 0
 112 85 119 126 123 160 c 0
 126 186 128 211 128 235 c 0
 128 296 112 348 47 375 c 0
 29 383 22 390 22 397 c 0
 22 414 61 427 61 427 c 1
 117 442 134 482 134 546 c 0
 134 573 131 605 127 641 c 0
 123 678 113 721 113 761 c 0
 113 819 134 871 222 885 c 0
 236 887 251 889 266 889 c 0
 285 889 299 878 299 864 c 2
 299 860 l 2xffa0
289 861 m 2
 289 864 l 2
 289 870 282 879 266 879 c 0
 252 879 237 877 223 875 c 0
 141 862 123 816 123 761 c 0
 123 723 133 680 137 642 c 0
 141 606 144 574 144 546 c 0
 144 481 126 435 64 417 c 0
 60 416 32 402 32 397 c 1
 32 397 33 392 51 384 c 0
 121 355 138 298 138 235 c 0
 138 210 136 185 133 159 c 0
 129 124 122 84 122 46 c 0
 122 -22 143 -79 254 -79 c 0
 271 -79 287 -68 289 -59 c 2
 289 -56 l 2
 289 -50 282 -41 266 -41 c 0
 201 -41 182 -2 182 55 c 0
 182 86 186 122 191 165 c 0
 194 191 197 219 197 247 c 0xffa0
 197 301 186 353 134 391 c 2
 122 400 l 1
 135 407 l 1
 191 443 205 493 205 548 c 0
 205 582 199 619 195 654 c 0
 189 706 184 744 184 772 c 0
 184 811 195 835 227 840 c 0
 235 841 243 841 254 841 c 0
 271 841 287 852 289 861 c 2
EndSplineSet
EndChar

StartChar: bar
Encoding: 124 124 96
Width: 360
GlyphClass: 2
Flags: MW
HStem: -92 10<162.5 179 173 179 173 180> 882 10<175 175 175 181>
VStem: 131 10<855 856 855 864.5> 209 10<865 865> 216 10<267 417.5>
LayerCount: 2
Back
Fore
SplineSet
174 892 m 2xe8
 181 892 l 2
 202 892 218 880 219 865 c 0xf0
 225 673 226 512 226 323 c 0
 226 211 226 88 225 -55 c 0
 225 -72 204 -89 180 -92 c 2
 173 -92 l 2
 152 -92 135 -80 135 -65 c 0
 136 118 137 266 137 404 c 0
 137 555 136 695 131 855 c 1
 131 856 l 2
 131 873 151 889 174 892 c 2xe8
175 882 m 2
 155 879 141 865 141 856 c 2
 141 855 l 1
 146 695 147 555 147 404 c 0
 147 266 146 118 145 -65 c 0
 145 -72 155 -82 173 -82 c 2
 179 -82 l 2
 200 -79 215 -64 215 -55 c 0
 216 88 216 211 216 323 c 0xe8
 216 512 215 673 209 865 c 0
 209 872 199 882 181 882 c 2
 175 882 l 2
EndSplineSet
EndChar

StartChar: braceright
Encoding: 125 125 97
Width: 360
GlyphClass: 2
Flags: MW
HStem: -89 10<86 101 86 101.5> -41 10<97.5 111.5> 831 10<86 123.5> 879 10<97.5 161.5>
VStem: 61 10<-64 -61 -67 -60 -67 -60 856 859> 145 10<235 279.5 235 280.5> 153 10<526 567 526 567.5> 166 10<9 41.5> 216 10<240.5 286 240.5 286.5> 222 10<534.5 577 534.5 577.5> 237 10<11.5 58> 328 10<400.5 403>
LayerCount: 2
Back
Fore
SplineSet
61 -60 m 2xf9b0
 64 -44 85 -31 106 -31 c 0
 117 -31 125 -31 132 -30 c 0
 157 -26 166 -10 166 28 c 0
 166 55 161 93 155 145 c 0
 151 180 145 217 145 252 c 0xfdb0
 145 309 160 363 220 401 c 1
 165 442 153 498 153 553 c 0
 153 582 156 610 159 636 c 0
 164 679 168 715 168 745 c 0
 168 800 153 831 94 831 c 0
 75 831 61 842 61 856 c 2
 61 860 l 2
 64 876 85 889 106 889 c 0
 223 889 248 825 248 754 c 0
 248 715 241 674 237 640 c 0
 234 614 232 589 232 565 c 0xfb70
 232 504 248 452 313 425 c 0
 331 417 338 410 338 403 c 0
 338 386 299 373 299 373 c 1
 243 358 226 318 226 254 c 0
 226 227 229 195 233 159 c 0
 237 122 247 79 247 39 c 0
 247 -19 226 -71 138 -85 c 0
 124 -87 109 -89 94 -89 c 0
 75 -89 61 -78 61 -64 c 2
 61 -60 l 2xf9b0
71 -61 m 2
 71 -64 l 2
 71 -70 78 -79 94 -79 c 0
 108 -79 123 -77 137 -75 c 0
 219 -62 237 -16 237 39 c 0
 237 77 227 120 223 158 c 0
 219 194 216 226 216 254 c 0xfdb0
 216 319 234 365 296 383 c 0
 300 384 328 398 328 403 c 1
 328 403 327 408 309 416 c 0
 239 445 222 502 222 565 c 0
 222 590 224 615 227 641 c 0
 231 676 238 716 238 754 c 0
 238 822 217 879 106 879 c 0
 89 879 73 868 71 859 c 2
 71 856 l 2
 71 850 78 841 94 841 c 0
 159 841 178 802 178 745 c 0
 178 714 174 678 169 635 c 0
 166 609 163 581 163 553 c 0xfb70
 163 499 174 447 226 409 c 2
 238 400 l 1
 225 393 l 1
 169 357 155 307 155 252 c 0
 155 218 161 181 165 146 c 0
 171 94 176 56 176 28 c 0
 176 -11 165 -35 133 -40 c 0
 125 -41 117 -41 106 -41 c 0
 89 -41 73 -52 71 -61 c 2
EndSplineSet
EndChar

StartChar: asciitilde
Encoding: 126 126 98
Width: 600
GlyphClass: 2
Flags: MW
HStem: 249 10<369 413.5 369 415.5> 260 10<86 93 86 93> 311 10<399 404 403 404> 359 10<196.5 199.5> 411 10<507 511> 421 10<187.5 231>
VStem: 51 10<286 290.5 286 291.5> 539 10<388.5 394>
LayerCount: 2
Back
Fore
SplineSet
511 421 m 2xfb
 533 419 549 406 549 390 c 0
 549 387 549 385 548 382 c 0
 541 358 525 329 501 302 c 0
 480 279 442 249 389 249 c 0
 346 249 317 267 296 283 c 0
 269 304 248 328 228 344 c 0
 213 357 202 359 197 359 c 0
 196 359 192 358 182 348 c 0
 167 332 154 308 147 290 c 0
 140 273 117 260 93 260 c 2
 86 260 l 2
 65 262 51 275 51 290 c 0
 51 293 52 297 53 300 c 0
 62 322 76 353 102 382 c 0
 123 404 160 431 211 431 c 0xf7
 254 431 284 414 306 396 c 0
 332 376 353 350 372 335 c 0
 387 323 398 321 403 321 c 2
 404 321 l 2
 406 321 411 322 421 334 c 0
 435 349 447 374 452 388 c 0
 458 406 482 421 507 421 c 2
 511 421 l 2xfb
511 411 m 2xfb
 507 411 l 2xfb
 485 411 466 397 461 385 c 0
 456 370 443 343 429 328 c 0
 418 315 411 311 404 311 c 2
 403 311 l 2
 395 311 382 314 366 327 c 0
 345 343 325 369 300 388 c 0
 279 405 251 421 211 421 c 0xf7
 164 421 129 396 109 375 c 0
 85 348 72 319 62 297 c 0
 62 295 61 291 61 290 c 0
 61 282 68 272 86 270 c 2
 93 270 l 2
 114 270 133 282 138 294 c 0
 145 313 158 337 175 355 c 0
 185 366 191 369 197 369 c 0
 205 369 218 366 234 352 c 0
 255 335 276 311 302 291 c 0
 322 276 349 259 389 259 c 0
 438 259 474 287 494 309 c 0
 517 335 532 362 538 385 c 0
 539 387 539 387 539 390 c 0
 539 398 530 409 511 411 c 2xfb
EndSplineSet
EndChar

StartChar: copyright
Encoding: 169 169 100
Width: 1020
GlyphClass: 2
Flags: MW
HStem: -27 10<380 629.5 380 632.5> 17 10<416 612.5 416 615> 170 10<453.5 506 453.5 506> 224 10<494 526 518 526 518 527 518 527> 283 10<626 636> 472 10<592.5 609 603 609 603 610> 549 10<501 508 500 501> 603 10<519.5 558.5> 773 10<414 590.5> 817 10<399 621.5>
VStem: 83 10<275 396 275 396> 147 10<287.5 402.5 287.5 403> 315 10<315 448 315 450> 395 10<328 454 328 456> 565 10<495.5 516.5> 645 10<504.5 536.5> 661 10<264 269> 798 10<580 582.5 580 584> 863 10<380 429.5> 927 10<389 442>
LayerCount: 2
Back
Fore
SplineSet
865 604 m 1
 914 556 937 483 937 403 c 0
 937 374 934 344 928 314 c 0
 894 153 761 -27 504 -27 c 0
 250 -27 83 169 83 376 c 0
 83 416 86 454 94 490 c 0
 135 684 288 827 505 827 c 0
 742 827 837 695 870 628 c 0
 871 626 872 623 872 621 c 0
 872 616 869 609 865 604 c 1
805 598 m 0
 803 600 801 602 800 604 c 0
 769 665 688 773 493 773 c 0
 335 773 206 672 168 490 c 0
 161 457 157 421 157 384 c 0
 157 191 316 27 516 27 c 0
 709 27 823 160 855 314 c 0
 860 341 863 367 863 393 c 0
 863 466 842 531 804 568 c 0
 800 572 798 576 798 581 c 0
 798 587 801 593 805 598 c 0
646 292 m 0
 662 288 671 278 671 266 c 0
 671 261 670 257 667 252 c 0
 641 208 586 177 526 171 c 0
 518 170 510 170 502 170 c 0
 399 170 315 242 315 383 c 0
 315 517 397 601 501 612 c 0
 508 613 516 613 523 613 c 0
 597 613 655 572 655 509 c 0
 655 492 634 475 610 472 c 2
 603 472 l 2
 582 472 565 484 565 499 c 0
 565 534 536 549 508 549 c 2
 501 549 l 2
 471 546 405 515 405 393 c 0
 405 263 475 234 518 234 c 2
 526 234 l 2
 551 237 575 250 587 270 c 0
 595 284 615 293 634 293 c 0
 638 293 642 293 646 292 c 0
858 597 m 2
 852 603 l 1
 857 610 l 2
 860 614 862 619 862 621 c 2
 862 621 861 623 861 624 c 0
 829 688 738 817 505 817 c 0
 293 817 144 678 104 488 c 0
 96 453 93 416 93 376 c 0
 93 174 256 -17 504 -17 c 0
 755 -17 885 159 918 316 c 0
 924 345 927 375 927 403 c 0
 927 481 904 551 858 597 c 2
812 605 m 2
 818 599 l 1
 813 592 l 2
 810 588 808 584 808 581 c 0
 808 579 808 578 811 575 c 0
 852 535 873 468 873 393 c 0
 873 366 870 340 865 312 c 0
 832 154 714 17 516 17 c 0
 310 17 147 185 147 384 c 0
 147 422 151 458 158 492 c 0
 197 678 330 783 493 783 c 0
 692 783 777 672 809 609 c 1
 809 609 810 607 812 605 c 2
644 282 m 0
 641 283 638 283 634 283 c 0
 618 283 601 275 596 265 c 0
 582 241 555 227 527 224 c 1
 527 224 l 1
 518 224 l 2
 470 224 395 258 395 393 c 0
 395 519 465 555 500 559 c 1
 501 559 l 1
 508 559 l 2
 539 559 575 541 575 499 c 0
 575 492 585 482 603 482 c 2
 609 482 l 2
 630 485 645 500 645 509 c 0
 645 564 594 603 523 603 c 0
 516 603 509 603 502 602 c 0
 403 592 325 513 325 383 c 0
 325 247 405 180 502 180 c 0
 510 180 517 180 525 181 c 0
 583 187 634 217 658 257 c 0
 661 261 661 262 661 266 c 0
 661 272 657 279 644 282 c 0
EndSplineSet
EndChar

StartChar: guillemotleft
Encoding: 171 171 101
Width: 720
GlyphClass: 2
Flags: MW
HStem: 65 10<329 337 329 338 599 607> 605 10
VStem: 66 10<333 336.5 333 338.5> 336 10<333 336.5 333 338.5> 356 10<590 595> 368 10<95 101> 626 10<590 595> 638 10<95 101>
LayerCount: 2
Back
Fore
SplineSet
633 74 m 0
 623 68 613 65 603 65 c 0
 592 65 582 69 574 76 c 0
 517 129 404 234 341 320 c 0
 338 324 336 329 336 334 c 0
 336 343 341 352 349 360 c 0
 429 430 531 537 560 589 c 0
 569 605 584 616 603 616 c 0
 607 616 610 616 614 615 c 0
 630 612 636 603 636 592 c 0
 636 586 634 578 630 571 c 0
 596 510 526 417 444 341 c 1
 503 265 586 171 636 124 c 0
 644 117 648 107 648 98 c 0
 648 89 644 80 633 74 c 0
363 74 m 0
 353 68 343 65 333 65 c 0
 322 65 312 69 304 76 c 0
 247 129 134 234 71 320 c 0
 68 324 66 329 66 334 c 0
 66 343 71 352 79 360 c 0
 159 430 261 537 290 589 c 0
 299 605 314 616 333 616 c 0
 337 616 340 616 344 615 c 0
 360 612 366 603 366 592 c 0
 366 586 364 578 360 571 c 0
 326 510 256 417 174 341 c 1
 233 265 316 171 366 124 c 0
 374 117 378 107 378 98 c 0
 378 89 374 80 363 74 c 0
628 83 m 0
 636 87 638 92 638 98 c 0
 638 104 635 111 629 117 c 0
 578 165 496 258 436 335 c 1
 430 342 l 1
 437 348 l 1
 518 424 588 516 621 576 c 0
 624 581 626 588 626 592 c 0
 626 598 624 603 612 605 c 1
 612 605 l 1
 612 605 l 1
 609 606 607 606 603 606 c 0
 588 606 576 598 569 584 c 0
 538 529 438 424 356 353 c 0
 349 346 346 339 346 334 c 0
 346 332 347 329 349 326 c 0
 411 241 524 136 581 83 c 0
 587 78 595 75 603 75 c 0
 611 75 619 77 628 83 c 0
358 83 m 0
 366 87 368 92 368 98 c 0
 368 104 365 111 359 117 c 0
 308 165 226 258 166 335 c 1
 160 342 l 1
 167 348 l 1
 248 424 318 516 351 576 c 0
 354 581 356 588 356 592 c 0
 356 598 354 603 342 605 c 1
 342 605 l 1
 342 605 l 1
 339 606 337 606 333 606 c 0
 318 606 306 598 299 584 c 0
 268 529 168 424 86 353 c 0
 79 346 76 339 76 334 c 0
 76 332 77 329 79 326 c 0
 141 241 254 136 311 83 c 0
 317 78 325 75 333 75 c 0
 341 75 349 77 358 83 c 0
EndSplineSet
EndChar

StartChar: registered
Encoding: 174 174 102
Width: 810
GlyphClass: 2
Flags: MW
HStem: 319 10<315.5 504 315.5 507> 351 10<343 489.5 343 492.5> 469 10<323.5 336 332 336 332 337> 596 20G<363 363 446 446> 644 10<419 431> 654 10<361 371 361 361> 725 11<290 323> 757 10<406 429.5> 799 10<407 451> 919 10<342 473.5> 951 10<329 496.5>
VStem: 90 10<546.5 636 546.5 636.5> 140 10<556 641.5 556 641.5> 263 10<747 750 747 753> 301 10<491 492 489 492> 303 10<575.5 615.5> 363 10<576.5 616> 480 10<694 709> 544 10<695.5 719.5> 557 10<495 498.5> 628 10<775 777 775 778> 677 10<626 662.5> 727 10<634 672.5>
LayerCount: 2
Back
Fore
SplineSet
682 794 m 1xfbfcfe
 719 758 737 703 737 644 c 0
 737 623 734 601 730 579 c 0
 705 457 605 319 409 319 c 0
 217 319 90 466 90 622 c 0
 90 651 93 678 98 704 c 0
 128 852 244 961 409 961 c 0
 588 961 660 862 685 812 c 0
 686 810 686 808 686 806 c 0
 686 802 685 798 682 794 c 1xfbfcfe
632 788 m 0
 631 789 630 791 629 792 c 0
 606 838 546 919 401 919 c 0
 283 919 185 842 157 704 c 0
 152 680 150 655 150 628 c 0
 150 484 269 361 417 361 c 0
 562 361 648 463 671 579 c 0
 675 598 677 617 677 635 c 0
 677 690 660 739 632 766 c 0
 629 769 628 772 628 776 c 0
 628 780 629 784 632 788 c 0
337 469 m 2
 332 469 l 2
 315 469 301 479 301 491 c 2
 301 492 l 2xf3fefe
 302 524 303 559 303 592 c 0
 303 639 302 683 298 710 c 1
 298 713 l 2
 298 718 300 722 303 726 c 1xf3fdfe
 300 726 298 725 296 725 c 0
 284 725 273 730 267 737 c 0
 264 740 263 744 263 748 c 0
 263 758 271 768 284 774 c 0
 338 798 386 809 426 809 c 0
 478 809 516 792 537 764 c 0
 548 749 554 730 554 711 c 0
 554 676 533 638 486 617 c 0
 475 612 462 609 448 606 c 1
 482 574 532 533 558 513 c 0
 564 509 567 503 567 497 c 0
 567 489 562 481 554 475 c 0
 546 469 535 466 525 466 c 0
 516 466 508 468 502 473 c 0
 466 499 410 555 373 592 c 1
 373 561 373 528 372 498 c 0
 371 484 357 471 337 469 c 2
345 742 m 1
 358 740 365 733 367 722 c 0
 369 706 370 687 371 664 c 0xf7fcfe
 375 664 380 663 385 661 c 0
 401 655 414 654 424 654 c 0xfbfcfe
 438 654 448 657 455 660 c 0
 469 665 480 684 480 704 c 0
 480 714 477 724 470 734 c 0
 461 746 444 757 415 757 c 0
 397 757 374 753 345 742 c 1
675 787 m 2
 669 793 l 1
 674 800 l 2
 676 802 676 804 676 806 c 2
 676 808 l 1
 652 855 584 951 409 951 c 0
 249 951 137 846 108 702 c 0
 103 677 100 650 100 622 c 0
 100 471 222 329 409 329 c 0
 599 329 696 462 720 581 c 0
 724 602 727 624 727 644 c 0xfbfcfe
 727 701 709 753 675 787 c 2
639 795 m 2
 645 789 l 1
 640 782 l 2
 638 780 638 778 638 776 c 0
 638 774 638 774 639 773 c 0
 670 744 687 692 687 635 c 0
 687 616 685 597 681 577 c 0
 657 458 568 351 417 351 c 0
 263 351 140 479 140 628 c 0
 140 655 142 681 147 706 c 0
 176 848 278 929 401 929 c 0
 549 929 612 847 637 798 c 1
 637 798 638 796 639 795 c 2
336 479 m 2
 352 481 361 491 362 499 c 0
 363 528 363 561 363 592 c 2
 363 616 l 1
 380 599 l 2
 417 562 473 506 508 481 c 1
 508 481 l 1
 508 481 l 1
 512 478 517 476 525 476 c 0
 533 476 542 479 548 483 c 0
 554 488 557 493 557 497 c 0
 557 500 556 502 552 505 c 1
 552 505 l 1
 552 505 l 1
 526 525 476 566 441 599 c 2
 427 612 l 1
 446 616 l 2
 460 619 472 622 482 626 c 0
 526 646 544 680 544 711 c 0
 544 728 539 745 529 758 c 0
 510 783 476 799 426 799 c 0
 388 799 341 788 288 765 c 0
 277 760 273 752 273 748 c 0
 273 746 274 745 274 744 c 1
 274 744 l 1
 275 744 l 1
 278 739 286 735 296 735 c 2
 296 735 298 736 303 736 c 2xf3fdfe
 323 736 l 1
 311 720 l 2xf3fefe
 309 717 308 715 308 713 c 2
 308 711 l 1
 312 684 313 639 313 592 c 0xf3fdfe
 313 559 312 523 311 492 c 2
 311 491 l 2xf3fefe
 311 487 318 479 332 479 c 2
 336 479 l 2
343 732 m 2
 306 738 l 1
 341 751 l 2
 371 763 396 767 415 767 c 0
 447 767 467 755 478 740 c 0
 486 728 490 716 490 704 c 0
 490 681 479 659 458 651 c 0
 452 648 439 644 424 644 c 0xfbfcfe
 413 644 399 645 381 652 c 0
 377 653 373 654 371 654 c 2xf7fcfe
 361 654 l 1
 361 664 l 2
 360 686 359 704 357 720 c 0
 356 727 353 731 343 732 c 2
EndSplineSet
EndChar

StartChar: guillemotright
Encoding: 187 187 103
Width: 720
GlyphClass: 2
Flags: MW
HStem: 64 10<115 124.5 115 126.5 385 394.5> 605 10<113 121 383 391>
VStem: 72 10<579 585 579 586.5> 84 10<85 90 85 91> 342 10<579 585 579 586.5> 354 10<85 90 85 91> 374 10<343.5 347> 644 10<343.5 347>
LayerCount: 2
Back
Fore
SplineSet
357 606 m 0
 367 612 377 615 387 615 c 0
 398 615 408 611 416 604 c 0
 473 551 586 446 649 360 c 0
 652 356 654 351 654 346 c 0
 654 337 649 328 641 320 c 0
 561 250 459 143 430 91 c 0
 421 75 406 64 387 64 c 0
 383 64 380 64 376 65 c 0
 360 68 354 77 354 88 c 0
 354 94 356 102 360 109 c 0
 394 170 464 263 546 339 c 1
 487 415 404 509 354 556 c 0
 346 563 342 573 342 582 c 0
 342 591 346 600 357 606 c 0
87 606 m 0
 97 612 107 615 117 615 c 0
 128 615 138 611 146 604 c 0
 203 551 316 446 379 360 c 0
 382 356 384 351 384 346 c 0
 384 337 379 328 371 320 c 0
 291 250 189 143 160 91 c 0
 151 75 136 64 117 64 c 0
 113 64 110 64 106 65 c 0
 90 68 84 77 84 88 c 0
 84 94 86 102 90 109 c 0
 124 170 194 263 276 339 c 1
 217 415 134 509 84 556 c 0
 76 563 72 573 72 582 c 0
 72 591 76 600 87 606 c 0
362 597 m 0
 354 593 352 588 352 582 c 0
 352 576 355 569 361 563 c 0
 412 515 494 422 554 345 c 1
 560 338 l 1
 553 332 l 1
 472 256 402 164 369 104 c 0
 366 99 364 92 364 88 c 0
 364 82 366 77 378 75 c 1
 378 75 l 1
 378 75 l 1
 381 74 383 74 387 74 c 0
 402 74 414 82 421 96 c 0
 452 151 552 256 634 327 c 0
 641 334 644 341 644 346 c 0
 644 348 643 351 641 354 c 0
 579 439 466 544 409 597 c 0
 403 602 395 605 387 605 c 0
 379 605 371 603 362 597 c 0
92 597 m 0
 84 593 82 588 82 582 c 0
 82 576 85 569 91 563 c 0
 142 515 224 422 284 345 c 1
 290 338 l 1
 283 332 l 1
 202 256 132 164 99 104 c 0
 96 99 94 92 94 88 c 0
 94 82 96 77 108 75 c 1
 108 75 l 1
 108 75 l 1
 111 74 113 74 117 74 c 0
 132 74 144 82 151 96 c 0
 182 151 282 256 364 327 c 0
 371 334 374 341 374 346 c 0
 374 348 373 351 371 354 c 0
 309 439 196 544 139 597 c 0
 133 602 125 605 117 605 c 0
 109 605 101 603 92 597 c 0
EndSplineSet
EndChar

StartChar: uni0E01
Encoding: 3585 3585 104
Width: 660
GlyphClass: 2
Flags: MW
HStem: -16 10<121 138 133 138> 4 10<502 512.5 502 513.5> 544 10<346 401.5> 606 10<347 435.5>
VStem: 91 10<15 16 10.5 16 537.5 539> 105 10<350 429> 179 10<25 25> 193 10<359.5 430.5> 467 10<152.5 240> 476 10<437.5 492.5> 559 10<46 47 36.5 47> 564 10<446 515.5>
LayerCount: 2
Back
Fore
SplineSet
138 -16 m 2xff40
 133 -16 l 2
 109 -16 91 -2 91 15 c 2
 91 16 l 1
 98 175 105 304 105 396 c 0
 105 462 100 509 92 531 c 0
 91 534 91 536 91 539 c 0
 91 553 102 567 118 574 c 0
 192 609 307 616 387 616 c 0
 486 616 574 569 574 470 c 0xff50
 574 421 565 313 565 185 c 0
 565 140 566 94 569 47 c 2
 569 46 l 2
 569 27 548 9 522 5 c 0
 519 5 515 4 512 4 c 0
 489 4 472 16 471 33 c 0
 468 82 467 130 467 175 c 0xffa0
 467 305 476 415 476 460 c 0
 476 525 430 544 373 544 c 0
 319 544 246 539 196 527 c 1
 201 497 203 455 203 406 c 0
 203 312 196 183 189 24 c 0
 188 5 165 -14 138 -16 c 2xff40
138 -6 m 2
 161 -4 178 13 179 25 c 0
 186 183 193 313 193 406 c 0
 193 455 191 496 186 525 c 2
 185 535 l 1
 194 537 l 2
 245 549 318 554 373 554 c 0
 432 554 486 532 486 460 c 0xff50
 486 414 477 305 477 175 c 0
 477 130 478 82 481 34 c 0
 482 24 492 14 512 14 c 0
 513 14 516 15 521 15 c 0
 544 19 559 34 559 46 c 2
 559 47 l 2xffa0
 556 93 555 140 555 185 c 0
 555 313 564 422 564 470 c 0
 564 561 484 606 387 606 c 0
 307 606 194 599 122 565 c 0
 108 559 101 548 101 539 c 2
 101 534 l 1
 110 510 115 462 115 396 c 0
 115 304 108 174 101 16 c 1
 101 15 l 2
 101 6 112 -6 133 -6 c 2
 138 -6 l 2
EndSplineSet
EndChar

StartChar: uni0E02
Encoding: 3586 3586 105
Width: 600
GlyphClass: 2
Flags: MW
HStem: -19 10<293.5 384 293.5 389> 432 10<46 53 46 53 45 53> 584 10<517 519> 594 10<107 200>
VStem: 14 10<456.5 461.5 456.5 461.5> 547 10<563 572.5 564 565 565 568.5>
LayerCount: 2
Back
Fore
SplineSet
519 594 m 2xec
 541 593 557 580 557 565 c 0
 557 563 557 561 556 559 c 0
 524 435 506 341 491 256 c 0
 486 228 482 203 477 179 c 0
 459 91 445 -19 333 -19 c 0
 244 -19 237 74 219 160 c 0
 204 235 191 322 179 433 c 0
 174 482 161 518 149 531 c 1
 126 506 104 459 104 459 c 2
 97 443 75 432 53 432 c 2
 45 432 l 2
 26 434 14 446 14 460 c 0
 14 463 14 467 16 471 c 2
 16 471 48 604 157 604 c 0xdc
 253 604 264 515 271 447 c 0
 283 338 296 253 311 180 c 0
 323 121 335 78 348 57 c 1
 365 85 381 156 399 254 c 0
 414 339 432 435 464 561 c 0
 469 578 493 594 517 594 c 2
 519 594 l 2xec
519 584 m 2xec
 517 584 l 2xec
 497 584 477 569 474 558 c 0
 442 433 424 337 409 252 c 0
 391 154 375 83 357 52 c 2
 348 38 l 1
 339 52 l 2
 325 75 313 119 301 178 c 0
 286 251 273 337 261 446 c 0
 254 516 243 594 157 594 c 0xdc
 57 594 26 470 26 469 c 2
 25 468 l 1
 25 467 l 2
 24 465 24 463 24 460 c 0
 24 453 30 444 46 442 c 2
 53 442 l 2
 72 442 90 452 95 463 c 0
 95 464 117 511 142 538 c 2
 149 546 l 1
 156 538 l 2
 171 522 184 484 189 434 c 0
 201 323 214 237 229 162 c 0
 248 72 254 -9 333 -9 c 0
 435 -9 449 90 467 181 c 0
 472 205 476 230 481 258 c 0
 496 343 514 437 546 561 c 1
 547 563 l 1
 547 563 l 1
 547 565 l 2
 547 572 538 583 519 584 c 2xec
EndSplineSet
EndChar

StartChar: uni0E03
Encoding: 3587 3587 106
Width: 610
GlyphClass: 2
Flags: MW
HStem: -24 10<298.5 401.5 298.5 407> 400 10<102 111 102 112.5> 584 10<515.5 528 526 528> 603 10<54 63.5>
VStem: 11 10<578 581 578 581 578 588> 224 10<435 481 435 488> 230 10<198 198> 297 10<445 455 445 455.5>
LayerCount: 2
Back
Fore
SplineSet
230 198 m 0xfb
 224 266 226 345 224 435 c 2
 224 481 l 2xfd
 224 495 224 509 223 521 c 1
 189 480 163 442 143 419 c 0
 130 404 118 400 107 400 c 0
 93 400 82 408 80 409 c 0
 49 431 33 475 11 577 c 1
 11 581 l 2
 11 595 25 607 44 612 c 0
 48 613 52 613 56 613 c 0
 73 613 87 605 89 593 c 0
 99 548 109 516 117 494 c 1
 139 523 166 558 198 593 c 0
 207 603 223 609 236 609 c 0
 245 609 254 607 262 604 c 0
 302 589 309 550 309 508 c 0
 309 487 307 465 307 445 c 0
 309 355 314 278 320 212 c 0
 328 127 344 68 358 48 c 1
 376 72 395 144 414 250 c 0
 429 333 445 438 474 561 c 0
 478 578 502 594 526 594 c 2
 528 594 l 2
 551 593 567 580 567 564 c 0
 567 562 566 561 566 559 c 0
 537 438 521 335 506 250 c 0
 481 114 471 -24 343 -24 c 0
 243 -24 240 87 230 198 c 0xfb
240 199 m 0xfb
 250 84 254 -14 343 -14 c 0
 460 -14 470 112 496 252 c 0
 511 335 527 441 556 559 c 0
 556 562 556 562 557 565 c 0
 556 573 547 583 528 584 c 2
 526 584 l 2
 505 584 486 569 484 559 c 0
 455 436 439 331 424 248 c 0
 405 142 387 70 366 42 c 2
 358 31 l 1
 350 42 l 2
 333 66 318 125 310 211 c 0
 304 277 299 354 297 445 c 0
 297 466 299 488 299 508 c 0
 299 550 292 582 258 595 c 0
 251 597 244 599 236 599 c 0
 226 599 212 594 205 586 c 0
 174 552 147 517 125 488 c 2
 114 473 l 1
 108 491 l 2
 99 513 89 545 79 591 c 1
 79 591 l 1
 79 591 l 1
 78 596 71 603 56 603 c 0
 52 603 49 603 46 602 c 0
 29 598 21 588 21 581 c 2
 21 578 l 1
 43 479 58 437 85 417 c 0
 88 416 97 410 107 410 c 0
 115 410 124 412 135 426 c 0
 155 448 181 486 215 527 c 2
 231 546 l 1
 233 522 l 2
 234 509 234 495 234 481 c 2
 234 435 l 2xfd
 236 345 234 266 240 199 c 0xfb
EndSplineSet
EndChar

StartChar: uni0E04
Encoding: 3588 3588 107
Width: 660
GlyphClass: 2
Flags: MW
HStem: -19 10<172.5 185.5 172.5 190.5> -4 10<474 479 474 479> 363 10<347 356.5> 551 10<319 325 319 325> 608 10<329 339 329 339>
VStem: 59 10<339.5 355.5 339.5 355.5> 142 10<349.5 363.5 349.5 363.5> 381 10<341.5 347> 439 10<21 26.5 21 26.5> 508 10<340.5 420.5> 590 10<346.5 435.5>
LayerCount: 2
Back
Fore
SplineSet
387 358 m 0
 390 354 391 350 391 345 c 0
 391 333 382 319 365 312 c 0
 247 260 240 46 230 17 c 1
 230 17 205 -19 176 -19 c 0
 165 -19 154 -13 143 1 c 0
 128 21 85 158 64 291 c 0
 61 311 59 330 59 348 c 0
 59 363 60 378 62 392 c 0
 81 527 198 614 329 618 c 1
 339 618 l 2
 481 618 600 522 600 355 c 0
 600 338 599 320 596 301 c 0
 578 176 531 28 530 26 c 0
 523 8 501 -4 479 -4 c 2
 474 -4 l 2
 453 -2 439 10 439 25 c 0
 439 28 439 30 440 33 c 2
 440 33 487 181 504 299 c 0
 506 316 508 333 508 348 c 0
 508 493 406 551 325 551 c 2
 319 551 l 2
 251 549 171 507 155 395 c 0
 153 383 152 370 152 357 c 0
 152 342 154 326 156 309 c 0
 160 274 169 231 185 170 c 1
 199 239 237 331 325 368 c 0
 333 371 342 373 350 373 c 0
 365 373 380 368 387 358 c 0
379 352 m 0
 375 358 363 363 350 363 c 0
 344 363 335 361 329 359 c 0
 246 324 209 236 195 168 c 2
 186 126 l 1
 175 167 l 2
 159 229 150 272 146 308 c 0
 144 325 142 341 142 357 c 0
 142 370 143 384 145 397 c 0
 162 514 247 559 319 561 c 2
 325 561 l 2
 411 561 518 499 518 348 c 0
 518 332 516 315 514 298 c 0
 497 178 450 30 450 30 c 2
 449 28 449 28 449 25 c 0
 449 17 456 8 474 6 c 2
 479 6 l 2
 498 6 516 17 521 30 c 1
 521 31 520 29 521 30 c 1
 524 38 569 182 586 302 c 0
 589 321 590 338 590 355 c 0
 590 516 476 608 339 608 c 2
 329 608 l 1
 203 604 90 520 72 391 c 0
 70 377 69 363 69 348 c 0
 69 331 71 312 74 292 c 0
 95 161 139 23 151 7 c 0
 161 -5 169 -9 176 -9 c 0
 195 -9 215 14 221 22 c 0
 229 51 238 267 361 321 c 0
 375 327 381 338 381 345 c 0
 381 349 381 350 379 352 c 0
EndSplineSet
EndChar

StartChar: uni0E05
Encoding: 3589 3589 108
Width: 660
GlyphClass: 2
Flags: MW
HStem: -18 10<178.5 190.5 178.5 194.5> -4 10<479 483 479 483 478 483> 363 10<360 371> 469 10<328 340.5 328 342.5> 549 10<216.5 223.5 440 444.5> 606 10<218.5 251 454.5 507.5>
VStem: 60 10<272 406 272 406.5> 142 10<324 419 324 419.5> 444 10<22 26 26 27.5> 508 10<288.5 426.5> 590 10<295.5 424.5 294.5 425>
LayerCount: 2
Back
Fore
SplineSet
401 349 m 0
 401 347 402 346 402 344 c 0
 402 328 384 313 361 308 c 0
 242 283 254 64 223 5 c 1
 223 5 207 -18 182 -18 c 0
 172 -18 160 -14 148 -4 c 0
 117 22 60 193 60 349 c 0
 60 464 86 551 155 594 c 0
 180 609 205 616 230 616 c 0
 278 616 324 572 344 540 c 1
 361 568 397 611 440 615 c 0
 446 616 452 616 457 616 c 0
 569 616 600 492 600 357 c 0
 600 232 568 120 535 26 c 0
 529 9 506 -4 483 -4 c 2
 478 -4 l 2
 458 -2 444 11 444 26 c 0
 444 29 444 31 445 34 c 0
 478 126 508 230 508 347 c 0
 508 506 448 549 441 549 c 0
 439 549 414 540 380 497 c 0
 363 476 349 469 336 469 c 0
 314 469 299 490 299 490 c 1
 259 542 229 549 218 549 c 0
 215 549 213 548 213 548 c 1
 195 540 152 479 152 359 c 0
 152 289 163 226 179 162 c 1
 196 234 238 349 349 372 c 0
 353 373 358 373 362 373 c 0
 382 373 398 364 401 349 c 0
391 350 m 0
 390 353 380 363 362 363 c 0
 358 363 354 363 351 362 c 0
 247 341 206 231 189 160 c 2
 179 120 l 1
 169 160 l 2
 153 224 142 288 142 359 c 0
 142 480 184 546 209 557 c 1
 209 557 213 559 218 559 c 0
 233 559 266 550 307 496 c 1
 307 496 320 479 336 479 c 0
 345 479 356 483 372 503 c 0
 407 547 432 559 441 559 c 0
 460 559 518 506 518 347 c 0
 518 228 488 123 454 31 c 1
 454 26 l 2
 454 18 462 8 479 6 c 2
 483 6 l 2
 503 6 522 18 526 29 c 0
 558 123 590 234 590 357 c 0
 590 493 558 606 457 606 c 0
 452 606 447 606 442 605 c 2
 441 605 l 1
 441 605 l 1
 404 602 369 562 353 535 c 2
 344 521 l 1
 336 535 l 2
 316 565 272 606 230 606 c 0
 207 606 184 600 160 585 c 0
 96 545 70 463 70 349 c 0
 70 195 129 25 154 4 c 0
 165 -5 175 -8 182 -8 c 0
 199 -8 212 6 214 10 c 0
 240 61 231 291 359 318 c 0
 379 322 391 335 392 343 c 0
 392 345 392 340 391 350 c 0
EndSplineSet
EndChar

StartChar: uni0E06
Encoding: 3590 3590 109
Width: 670
GlyphClass: 2
Flags: MW
HStem: -27 10<149.5 198.5 149.5 199.5> 223 10<177.5 198.5> 277 10<164 213.5> 403 10<112 121.5 112 123.5> 598 10<541 546> 608 10<54 63.5>
VStem: 11 10<583 586 583 586 583 593> 35 10<76.5 131 76.5 131.5> 110 10<97 140.5 97 140.5> 239 10<203 205.5> 251 10<431.5 472> 317 10<253 255 253 255 253 256 253 256> 325 10<435.5 495.5> 486 10<106 106> 494 10<571 571> 566 10<9 15> 576 10<579 580 579 583.5>
LayerCount: 2
Back
Fore
SplineSet
240 214 m 0xf3e0
 223 220 204 223 193 223 c 0
 162 223 132 213 122 164 c 0
 120 155 120 146 120 135 c 0
 120 59 166 36 199 33 c 1
 208 46 220 85 228 127 c 0
 233 150 236 176 239 204 c 0
 239 207 240 211 240 214 c 0xf3e0
490 -10 m 1
 468 26 413 93 360 140 c 0
 347 151 327 166 315 175 c 1
 313 161 311 151 308 135 c 0
 297 74 286 7 231 -19 c 0
 220 -24 206 -27 193 -27 c 0
 102 -27 35 22 35 125 c 0
 35 138 37 151 39 163 c 0
 53 233 117 287 207 287 c 0
 222 287 234 282 245 280 c 1
 248 338 251 403 251 460 c 0
 251 484 248 508 243 529 c 1
 205 484 170 446 154 425 c 0
 141 408 129 403 118 403 c 0
 102 403 90 414 90 414 c 1
 62 434 33 479 11 582 c 1
 11 586 l 2
 11 600 25 612 44 617 c 0
 48 618 52 618 56 618 c 0xf7e1
 73 618 87 610 89 598 c 0
 100 548 113 513 124 492 c 1
 151 523 183 558 216 601 c 0
 223 609 236 619 254 619 c 0
 260 619 267 618 274 615 c 0
 329 590 335 521 335 470 c 0xfbe9
 335 401 332 325 327 255 c 1
 327 253 l 2
 330 251 334 250 337 248 c 0
 368 227 394 206 425 175 c 0
 445 155 467 130 486 106 c 1xfbf4
 490 360 490 465 494 571 c 0
 495 589 516 606 541 608 c 2
 546 608 l 2
 568 608 586 596 586 580 c 2
 586 579 l 1xfbe280
 582 460 581 345 576 15 c 0xfbe1
 576 -3 555 -23 539 -23 c 0
 516 -23 490 -10 490 -10 c 1
243 223 m 2
 250 221 l 1
 250 214 l 2
 250 209 249 205 249 204 c 2
 249 203 l 1
 249 203 l 1
 246 175 243 148 238 125 c 0
 230 82 218 43 207 27 c 2
 204 23 l 1
 198 23 l 2
 161 26 110 54 110 135 c 0
 110 146 110 156 112 166 c 0
 123 220 159 233 193 233 c 0
 206 233 225 230 243 223 c 2
497 -2 m 1
 504 -5 523 -13 539 -13 c 0
 549 -13 566 3 566 15 c 0xf7e9
 571 345 572 459 576 579 c 1
 576 580 l 2
 576 587 566 598 546 598 c 2
 541 598 l 2
 520 596 505 581 504 571 c 0xfbe280
 500 465 500 360 496 106 c 1
 496 78 l 1
 478 100 l 2
 459 123 438 148 418 168 c 0
 387 199 362 219 331 240 c 1
 331 240 326 241 321 245 c 2
 317 248 l 1
 317 255 l 1xfbf4
 317 256 l 1
 322 325 325 401 325 470 c 0xfbe8
 325 521 318 584 270 606 c 0
 265 608 259 609 254 609 c 0
 240 609 230 602 224 595 c 0
 191 552 158 516 132 485 c 2
 122 474 l 1
 115 487 l 2
 104 509 90 545 79 596 c 1
 79 596 l 1
 79 596 l 1
 78 601 71 608 56 608 c 0
 52 608 49 608 46 607 c 0
 29 603 21 593 21 586 c 2
 21 583 l 1
 43 483 71 440 96 422 c 1
 96 422 l 1
 97 421 l 1
 97 421 106 413 118 413 c 0
 125 413 134 416 146 431 c 0
 163 453 197 491 235 535 c 2
 248 551 l 1
 253 531 l 2
 258 510 261 485 261 460 c 0
 261 403 258 338 255 279 c 2
 254 268 l 1
 243 270 l 2
 231 272 220 277 207 277 c 0
 121 277 62 226 49 161 c 0
 47 150 45 137 45 125 c 0
 45 28 106 -17 193 -17 c 0
 204 -17 217 -14 227 -10 c 0
 276 13 287 75 298 137 c 0
 301 153 303 163 305 176 c 2
 307 193 l 1
 321 183 l 2
 333 174 353 159 367 148 c 0
 419 101 473 36 497 -2 c 1
EndSplineSet
EndChar

StartChar: uni0E07
Encoding: 3591 3591 110
Width: 540
GlyphClass: 2
Flags: MW
HStem: -26 10<241.5 330 241.5 334> 355 10<93 105> 504 10<188.5 199 188.5 200> 549 10<294 306.5> 611 10<285.5 356>
VStem: 41 10<323.5 325 320 333> 151 10<532 538 532 540> 381 10<285 343> 469 10<293.5 354.5>
LayerCount: 2
Back
Fore
SplineSet
164 512 m 0
 155 518 151 526 151 535 c 0
 151 545 156 555 167 563 c 0
 209 595 256 621 312 621 c 0
 406 621 442 554 460 492 c 0
 474 442 479 385 479 325 c 0
 479 261 471 199 455 146 c 0
 433 72 385 -26 283 -26 c 0
 192 -26 139 71 103 150 c 0
 78 207 59 268 42 317 c 0
 41 320 41 322 41 325 c 0
 41 341 56 357 78 363 c 0
 84 365 90 365 96 365 c 0
 116 365 133 357 138 343 c 0
 155 294 174 233 197 180 c 0
 234 99 283 48 297 46 c 0
 302 48 338 79 359 150 c 0
 373 197 381 255 381 315 c 0
 381 371 376 426 364 468 c 0
 346 530 315 549 298 549 c 0
 290 549 267 543 233 517 c 0
 222 509 207 504 193 504 c 0
 182 504 172 507 164 512 c 0
169 520 m 0
 176 516 184 514 193 514 c 0
 205 514 218 518 227 525 c 0
 262 552 286 559 298 559 c 0
 322 559 355 535 374 471 c 0
 386 427 391 372 391 315 c 0
 391 254 383 195 369 147 c 0
 347 74 311 41 301 37 c 2
 298 36 l 1
 296 36 l 2
 273 39 225 94 188 176 c 0
 164 230 145 291 129 340 c 0
 126 348 114 355 96 355 c 0
 90 355 85 355 81 354 c 1
 81 353 l 1
 81 353 l 1
 61 348 51 335 51 325 c 2
 51 320 l 1
 68 271 88 210 112 154 c 0
 148 74 200 -16 283 -16 c 0
 377 -16 423 75 445 149 c 0
 461 201 469 262 469 325 c 0
 469 384 464 441 450 489 c 0
 433 550 400 611 312 611 c 0
 259 611 214 587 173 555 c 0
 164 548 161 541 161 535 c 0
 161 529 163 525 169 520 c 0
EndSplineSet
EndChar

StartChar: uni0E08
Encoding: 3592 3592 111
Width: 600
GlyphClass: 2
Flags: MW
HStem: -11 10<322 336 322 338> 229 10<138 149 138 150> 307 10<197 201 197 201> 429 10<69 80.5 69 82> 552 9 614 10<305.5 374>
VStem: 31 10<456 462 456 463> 101 10<257.5 263.5 257.5 265> 444 10<280.5 428> 529 10<257 442>
LayerCount: 2
Back
Fore
SplineSet
56 431 m 0
 40 436 31 447 31 460 c 0
 31 466 33 472 37 478 c 0
 94 557 182 612 278 622 c 0
 289 623 300 624 310 624 c 0
 444 624 539 528 539 360 c 0
 539 150 410 31 370 5 c 1
 370 5 349 -11 327 -11 c 0
 314 -11 300 -5 292 15 c 0
 281 41 235 226 188 245 c 0
 186 244 185 243 182 241 c 0
 171 233 157 229 143 229 c 0
 131 229 120 232 112 238 c 0
 104 244 101 252 101 260 c 0
 101 270 106 281 118 289 c 0
 140 304 167 316 197 317 c 2
 201 317 l 2
 233 317 249 308 264 294 c 0
 307 254 337 139 352 85 c 1
 390 134 444 211 444 350 c 0
 444 506 359 552 293 552 c 0
 288 552 283 551 278 551 c 0
 229 546 168 514 123 452 c 0
 113 438 92 429 72 429 c 0
 66 429 61 429 56 431 c 0
59 441 m 1
 59 440 l 1
 60 440 l 2
 62 439 66 439 72 439 c 0
 89 439 107 447 115 458 c 0
 161 522 225 556 277 561 c 1
 277 561 l 1
 278 561 l 2
 282 561 287 562 293 562 c 0
 364 562 454 511 454 350 c 0
 454 208 398 128 360 79 c 2
 348 63 l 1
 342 82 l 2
 327 137 296 250 257 287 c 0
 244 299 231 307 201 307 c 2
 197 307 l 2
 170 306 145 295 124 281 c 0
 114 274 111 267 111 260 c 0
 111 255 113 250 118 246 c 0
 124 242 133 239 143 239 c 0
 155 239 167 242 176 249 c 0
 179 251 180 252 184 254 c 2
 184 254 188 256 188 256 c 1
 188 256 192 254 192 254 c 1
 248 232 292 41 301 19 c 0
 308 2 317 -1 327 -1 c 0
 345 -1 364 13 364 13 c 1
 364 13 l 1
 365 13 l 1
 402 38 529 154 529 360 c 0
 529 524 438 614 310 614 c 0
 301 614 290 613 279 612 c 0
 186 602 100 549 45 472 c 0
 42 468 41 464 41 460 c 0
 41 452 46 445 59 441 c 1
EndSplineSet
EndChar

StartChar: uni0E09
Encoding: 3593 3593 112
Width: 670
GlyphClass: 2
Flags: MW
HStem: -19 10<471.5 534.5 471.5 537> 29 10<511.5 519 511.5 521> 231 10<492 492 492 504> 279 10<512.5 561> 318 10<129 139> 431 10<70.5 80 70.5 81.5> 557 10<273 307> 616 10<263.5 323>
VStem: 33 10<456.5 462 456.5 463> 87 10<288.5 293.5 288.5 294.5> 156 10 410 10<76 113.5 76 113.5> 426 10<408 456> 480 10<104 154> 498 10<416 471> 570 10<130.5 168.5> 640 10<137.5 178>
LayerCount: 2
Back
Fore
SplineSet
492 231 m 1
 490 202 490 178 490 154 c 2
 490 104 l 2
 490 57 507 39 516 39 c 0
 522 39 555 43 567 102 c 0
 569 112 570 124 570 137 c 0
 570 200 535 231 504 231 c 2
 492 231 l 1
156 0 m 1
 156 30 149 142 142 213 c 0
 137 259 123 262 112 265 c 0
 96 269 87 280 87 292 c 0
 87 297 88 301 91 306 c 0
 100 320 118 328 137 328 c 0
 141 328 146 328 150 327 c 0
 197 316 220 283 225 227 c 0
 229 189 232 140 235 101 c 1
 258 131 290 165 321 193 c 0
 348 217 379 246 416 264 c 1
 418 297 421 336 425 387 c 0
 426 396 426 404 426 412 c 0
 426 500 382 541 335 553 c 0
 325 556 313 557 301 557 c 0
 245 557 174 527 121 453 c 0
 112 440 91 431 72 431 c 0
 67 431 62 432 57 433 c 0
 42 437 33 448 33 460 c 0
 33 466 35 472 39 477 c 0
 103 566 211 626 312 626 c 0
 335 626 359 623 381 616 c 0
 460 592 508 524 508 421 c 0
 508 411 508 402 507 392 c 0
 503 350 498 317 496 288 c 1
 503 289 509 289 516 289 c 0
 613 289 650 214 650 145 c 0
 650 130 649 116 646 103 c 0
 631 28 570 -19 504 -19 c 0
 430 -19 410 55 410 96 c 0
 410 131 411 158 412 191 c 1
 401 183 390 174 379 164 c 0
 322 113 267 45 244 14 c 0
 232 -3 220 -22 204 -22 c 0
 183 -22 156 0 156 0 c 1
482 232 m 2
 483 241 l 1
 504 241 l 2
 542 241 580 203 580 137 c 0
 580 123 579 111 577 100 c 0
 564 37 526 29 516 29 c 0
 496 29 480 57 480 104 c 2
 480 154 l 2
 480 178 480 202 482 232 c 2
166 5 m 1
 173 0 193 -12 204 -12 c 0
 212 -12 223 1 236 20 c 0
 259 52 314 120 372 171 c 0
 383 182 395 191 406 199 c 2
 423 211 l 1
 422 191 l 2
 421 158 420 131 420 96 c 0
 420 56 439 -9 504 -9 c 0
 565 -9 622 34 636 105 c 0
 639 117 640 130 640 145 c 0
 640 211 606 279 516 279 c 0
 509 279 504 279 497 278 c 2
 485 276 l 1
 486 289 l 2
 488 318 493 351 497 393 c 0
 498 402 498 411 498 421 c 0
 498 521 452 584 378 606 c 0
 357 613 334 616 312 616 c 0
 215 616 109 558 47 471 c 1
 47 471 l 1
 47 471 l 1
 44 468 43 464 43 460 c 0
 43 453 47 446 59 443 c 0
 64 442 69 441 72 441 c 0
 88 441 106 449 113 459 c 0
 168 535 242 567 301 567 c 0
 313 567 327 566 338 563 c 0
 389 550 436 504 436 412 c 0
 436 404 436 395 435 386 c 0
 431 335 428 296 426 263 c 2
 426 258 l 1
 420 255 l 2
 385 238 355 210 328 186 c 0
 297 158 265 124 243 95 c 2
 227 74 l 1
 225 100 l 2
 222 139 219 188 215 226 c 0
 210 280 190 307 148 317 c 0
 145 318 141 318 137 318 c 0
 121 318 106 311 99 301 c 0
 97 297 97 295 97 292 c 0
 97 285 102 278 115 275 c 0
 129 271 147 263 152 214 c 0
 159 146 165 43 166 5 c 1
EndSplineSet
EndChar

StartChar: uni0E0A
Encoding: 3594 3594 113
Width: 630
GlyphClass: 2
Flags: MW
HStem: -29 10<260 377 260 379> 29 10<307 317 316 317> 437 10<76 83 76 83 75 83> 599 10<152.5 237> 644 10<551 561>
VStem: 44 10<461.5 466.5 461.5 466.5> 186 10<122 232.5> 197 10<471.5 494> 268 10<131.5 240> 279 10<468 507.5 484 507.5 484 508> 473 10<173.5 221.5> 555 10<182 236> 586 10<622.5 627>
LayerCount: 2
Back
Fore
SplineSet
583 647 m 0
 592 641 596 633 596 625 c 0
 596 617 592 608 583 600 c 0
 494 526 411 479 357 450 c 1
 494 397 565 288 565 189 c 0
 565 175 564 162 561 148 c 0
 543 57 455 -29 303 -29 c 0
 208 -29 186 38 186 206 c 0
 186 259 189 325 194 407 c 0
 195 418 196 428 196 438 c 0
 197 452 197 465 197 478 c 0
 197 510 190 532 185 539 c 1
 169 526 146 490 134 464 c 0
 127 448 105 437 83 437 c 2
 75 437 l 2
 56 439 44 451 44 465 c 0
 44 468 44 472 46 476 c 0
 60 507 100 609 197 609 c 0
 287 609 289 531 289 484 c 1
 336 507 418 558 517 640 c 0
 528 649 543 654 557 654 c 0
 567 654 576 651 583 647 c 0
285 402 m 1
 281 329 278 264 278 216 c 0
 278 45 309 39 316 39 c 2
 317 39 l 2
 409 39 456 80 469 147 c 0
 471 157 473 168 473 179 c 0
 473 264 407 365 285 402 c 1
578 638 m 0
 573 641 565 644 557 644 c 0
 545 644 532 640 523 632 c 0
 424 550 341 499 293 475 c 2
 279 468 l 1
 279 484 l 2
 279 532 277 599 197 599 c 0
 108 599 70 504 55 472 c 0
 54 470 54 468 54 465 c 0
 54 458 60 449 76 447 c 2
 83 447 l 2
 102 447 120 457 125 468 c 0
 137 495 160 532 179 547 c 2
 187 553 l 1
 193 545 l 2
 200 535 207 511 207 478 c 0
 207 465 207 453 206 438 c 0
 206 428 205 417 204 406 c 0
 199 325 196 259 196 206 c 0
 196 37 217 -19 303 -19 c 0
 451 -19 534 64 551 150 c 0
 554 163 555 175 555 189 c 0
 555 283 487 389 353 441 c 2
 333 449 l 1
 352 459 l 2
 406 488 489 534 576 608 c 0
 584 614 586 620 586 625 c 0
 586 629 585 634 578 638 c 0
275 403 m 2
 276 415 l 1
 288 412 l 1
 414 373 483 269 483 179 c 0
 483 167 481 155 479 145 c 0
 465 73 413 29 317 29 c 2
 316 29 l 2
 298 29 268 47 268 216 c 0
 268 264 271 329 275 403 c 2
EndSplineSet
EndChar

